<svg width="24" height="24" viewBox="0 0 24 24" fill="none" xmlns="http://www.w3.org/2000/svg">
<circle cx="12" cy="12" r="11.5" fill="white" stroke="#FF9D93"/>
<path d="M12.5149 11.9985L16.3741 8.13553C16.4421 8.06711 16.4803 7.97449 16.4803 7.87797C16.4802 7.78145 16.4419 7.68888 16.3737 7.62055C16.2373 7.48478 15.9969 7.4841 15.8591 7.62124L12.0009 11.4842L8.14138 7.62021C8.00424 7.48478 7.76389 7.48547 7.62744 7.6209C7.59357 7.65463 7.56675 7.69478 7.54856 7.73898C7.53037 7.78319 7.52117 7.83058 7.52149 7.87838C7.52149 7.97575 7.55921 8.06695 7.62744 8.1345L11.4866 11.9982L7.62778 15.8622C7.55968 15.9307 7.52155 16.0234 7.52174 16.12C7.52193 16.2166 7.56044 16.3092 7.62881 16.3775C7.69498 16.443 7.78858 16.4807 7.88526 16.4807H7.88732C7.98435 16.4803 8.07795 16.4423 8.14275 16.3761L12.0009 12.5131L15.8605 16.3771C15.9287 16.445 16.0199 16.4827 16.1166 16.4827C16.1644 16.4829 16.2118 16.4735 16.2559 16.4553C16.3001 16.4371 16.3403 16.4103 16.3741 16.3765C16.4079 16.3427 16.4347 16.3025 16.4529 16.2583C16.4712 16.2141 16.4805 16.1668 16.4804 16.119C16.4804 16.0219 16.4426 15.9304 16.3741 15.8628L12.5149 11.9985Z" fill="#9DA8B5"/>
</svg>
