<svg width="44" height="44" viewBox="0 0 44 44" fill="none" xmlns="http://www.w3.org/2000/svg">
<g clip-path="url(#clip0_134_1539)">
<path d="M16.4987 19.7083C13.712 19.7083 11.457 17.4533 11.457 14.6667C11.457 11.88 13.712 9.625 16.4987 9.625C19.2854 9.625 21.5404 11.88 21.5404 14.6667C21.5404 17.4533 19.2854 19.7083 16.4987 19.7083ZM16.4987 12.375C15.2337 12.375 14.207 13.4017 14.207 14.6667C14.207 15.9317 15.2337 16.9583 16.4987 16.9583C17.7637 16.9583 18.7904 15.9317 18.7904 14.6667C18.7904 13.4017 17.7637 12.375 16.4987 12.375Z" fill="#A0A3BD"/>
<path d="M27.5013 41.7082H16.5013C6.5463 41.7082 2.29297 37.4548 2.29297 27.4998V16.4998C2.29297 6.54484 6.5463 2.2915 16.5013 2.2915H23.8346C24.5863 2.2915 25.2096 2.91484 25.2096 3.6665C25.2096 4.41817 24.5863 5.0415 23.8346 5.0415H16.5013C8.04963 5.0415 5.04297 8.04817 5.04297 16.4998V27.4998C5.04297 35.9515 8.04963 38.9582 16.5013 38.9582H27.5013C35.953 38.9582 38.9596 35.9515 38.9596 27.4998V18.3332C38.9596 17.5815 39.583 16.9582 40.3346 16.9582C41.0863 16.9582 41.7096 17.5815 41.7096 18.3332V27.4998C41.7096 37.4548 37.4563 41.7082 27.5013 41.7082Z" fill="#A0A3BD"/>
<path d="M38.9583 10.5415H28.875C28.1233 10.5415 27.5 9.91817 27.5 9.1665C27.5 8.41484 28.1233 7.7915 28.875 7.7915H38.9583C39.71 7.7915 40.3333 8.41484 40.3333 9.1665C40.3333 9.91817 39.71 10.5415 38.9583 10.5415Z" fill="#A0A3BD"/>
<path d="M33.918 15.5833C33.1663 15.5833 32.543 14.96 32.543 14.2083V4.125C32.543 3.37333 33.1663 2.75 33.918 2.75C34.6696 2.75 35.293 3.37333 35.293 4.125V14.2083C35.293 14.96 34.6696 15.5833 33.918 15.5833Z" fill="#A0A3BD"/>
<path d="M4.89375 36.1169C4.45375 36.1169 4.01375 35.8969 3.75708 35.5119C3.33541 34.8885 3.50041 34.0269 4.12375 33.6052L13.1621 27.5369C15.1421 26.2169 17.8737 26.3635 19.6704 27.8852L20.2754 28.4169C21.1921 29.2052 22.7504 29.2052 23.6487 28.4169L31.2754 21.8719C33.2371 20.2035 36.2804 20.2035 38.2421 21.8719L41.2304 24.4385C41.7988 24.9335 41.8721 25.7952 41.3771 26.3819C40.8821 26.9502 40.0204 27.0235 39.4338 26.5285L36.4454 23.9619C35.5287 23.1735 33.9704 23.1735 33.0721 23.9619L25.4454 30.5069C23.5021 32.1752 20.4404 32.1752 18.4787 30.5069L17.8737 29.9752C17.0304 29.2602 15.6371 29.1869 14.7021 29.8285L5.68208 35.8969C5.42541 36.0435 5.15041 36.1169 4.89375 36.1169Z" fill="#A0A3BD"/>
</g>
<defs>
<clipPath id="clip0_134_1539">
<rect width="44" height="44" fill="white"/>
</clipPath>
</defs>
</svg>
