<svg width="30" height="30" viewBox="0 0 30 30" fill="none" xmlns="http://www.w3.org/2000/svg">
<path d="M21.9668 17.7441L21.9669 17.7441L21.9721 17.7368C23.0532 16.2399 24.806 15.3998 26.6553 15.3998C26.8034 15.3998 26.9194 15.4566 27.0163 15.576C27.0301 15.638 27.0356 15.703 27.0313 15.7588C27.0282 15.7996 27.0213 15.8208 27.0182 15.8288L26.9801 15.867L26.9464 15.9268L24.493 20.2884L24.493 20.2883L24.491 20.2919C23.1235 22.7706 20.5635 24.3042 17.7505 24.3042C13.5746 24.3042 9.49037 25.5078 5.96101 27.8227C5.77032 27.9171 5.70437 27.9388 5.66535 27.9388H5.66482H5.66429H5.66377H5.66324H5.66272H5.6622H5.66168H5.66116H5.66065H5.66013H5.65962H5.65911H5.65861H5.6581H5.6576H5.6571H5.6566H5.6561H5.65561H5.65511H5.65462H5.65413H5.65364H5.65316H5.65267H5.65219H5.65171H5.65123H5.65076H5.65028H5.64981H5.64934H5.64887H5.6484H5.64794H5.64747H5.64701H5.64655H5.64609H5.64564H5.64518H5.64473H5.64428H5.64383H5.64338H5.64293H5.64249H5.64205H5.6416H5.64116H5.64073H5.64029H5.63986H5.63942H5.63899H5.63856H5.63814H5.63771H5.63728H5.63686H5.63644H5.63602H5.6356H5.63518H5.63477H5.63436H5.63394H5.63353H5.63312H5.63272H5.63231H5.63191H5.6315H5.6311H5.6307H5.6303H5.62991H5.62951H5.62912H5.62872H5.62833H5.62794H5.62755H5.62717H5.62678H5.6264H5.62601H5.62563H5.62525H5.62487H5.6245H5.62412H5.62375H5.62337H5.623H5.62263H5.62226H5.62189H5.62152H5.62116H5.62079H5.62043H5.62007H5.61971H5.61935H5.61899H5.61863H5.61828H5.61792H5.61757H5.61722H5.61687H5.61652H5.61617H5.61582H5.61547H5.61513H5.61478H5.61444H5.6141H5.61376H5.61342H5.61308H5.61274H5.61241H5.61221C5.56941 27.9128 5.5248 27.8828 5.48392 27.851C5.44796 27.823 5.42047 27.798 5.40153 27.7777C5.39037 27.7658 5.38502 27.7586 5.38337 27.7563L5.37706 27.7437L5.36718 27.7272L2.64122 23.1839L2.6351 23.1737L2.6285 23.1638C2.55873 23.0592 2.55873 22.9145 2.62849 22.8099L2.62855 22.8099L2.63306 22.8029L5.08642 18.9866L5.08651 18.9866L5.09166 18.9782C6.44498 16.7791 8.90941 15.3998 12.0259 15.3998H15.7514H16.2514V14.8998V12.9917V12.5517L15.815 12.4957C12.51 12.072 9.89084 9.27649 9.89084 5.81329C9.89084 5.65432 9.94164 5.56069 9.99427 5.50807C10.0469 5.45544 10.1405 5.40463 10.2995 5.40463C12.3211 5.40463 14.1029 6.3306 15.3866 7.69997L16.2514 8.62239V7.358V2.17867C16.2514 2.0197 16.3022 1.92608 16.3548 1.87345C16.4075 1.82083 16.5011 1.77002 16.6601 1.77002C16.819 1.77002 16.9127 1.82083 16.9653 1.87345C17.0179 1.92608 17.0687 2.0197 17.0687 2.17867V4.63204V5.89643L17.9335 4.97401C19.2173 3.60464 20.999 2.67867 23.0206 2.67867C23.1796 2.67867 23.2732 2.72948 23.3259 2.78211C23.3785 2.83473 23.4293 2.92836 23.4293 3.08733C23.4293 6.46354 20.8062 9.34654 17.5051 9.76975L17.0687 9.8257V10.2657V14.8998V15.3998H17.5687C17.6333 15.3998 17.7397 15.4371 17.8399 15.5373C17.9401 15.6375 17.9774 15.7439 17.9774 15.8085V15.8993C17.9774 17.0352 16.882 18.0344 15.6605 18.0344H13.9341C13.5479 18.0344 13.1872 18.1654 12.9218 18.4308C12.6564 18.6962 12.5255 19.0569 12.5255 19.4431C12.5255 19.8293 12.6564 20.19 12.9218 20.4554C13.1872 20.7208 13.5479 20.8518 13.9341 20.8518H16.6601C18.3341 20.8518 20.0253 20.1638 21.1307 18.8574L21.1402 18.8462L21.149 18.8344L21.9668 17.7441Z" stroke="#008081"/>
</svg>
