<svg width="30" height="30" viewBox="0 0 30 30" fill="none" xmlns="http://www.w3.org/2000/svg">
<path d="M11.1565 18.3748L9.83341 16.0831L8.51032 13.7915C8.30888 13.4426 7.80527 13.4426 7.60379 13.7915L6.2807 16.0831L4.95762 18.3748C4.75617 18.7237 5.00798 19.1599 5.4109 19.1599H8.05707H10.7032C11.1061 19.1599 11.3579 18.7237 11.1565 18.3748Z" fill="#FF5443"/>
<path d="M13.2998 14.1699L12.0632 12.0278C11.8617 11.6789 11.3581 11.6789 11.1566 12.0278L9.91992 14.1699H13.2998Z" fill="#FF5443"/>
<path d="M13.8946 15.2L13.7184 14.895H9.98633L11.785 18.0103C11.9921 18.3683 12.0095 18.7899 11.8379 19.1589H15.2736C15.6767 19.1589 15.9285 18.7227 15.727 18.3738L13.8946 15.2Z" fill="#FF5443"/>
<path d="M6.33577 13.6701C7.13605 13.6701 7.78482 13.0213 7.78482 12.221C7.78482 11.4207 7.13605 10.772 6.33577 10.772C5.53548 10.772 4.88672 11.4207 4.88672 12.221C4.88672 13.0213 5.53551 13.6701 6.33577 13.6701ZM6.33577 11.4989C6.73395 11.4989 7.05789 11.8228 7.05789 12.221C7.05789 12.6192 6.73395 12.9431 6.33577 12.9431C5.93759 12.9431 5.61364 12.6192 5.61364 12.221C5.61364 11.8228 5.93759 11.4989 6.33577 11.4989Z" fill="#FF5443"/>
<path d="M19.5837 13.7153C19.8068 13.6791 19.9582 13.4689 19.922 13.2459C19.8858 13.0229 19.6757 12.8714 19.4527 12.9076C19.2296 12.9438 19.0782 13.1539 19.1144 13.377C19.1506 13.6 19.3607 13.7515 19.5837 13.7153Z" fill="#FF5443"/>
<path d="M24.2386 10.772H18.5129C18.0312 10.772 17.6406 11.1625 17.6406 11.6443V18.2871C17.6406 18.7689 18.0312 19.1594 18.5129 19.1594H24.2385C24.7203 19.1594 25.1108 18.7689 25.1108 18.2871V11.6443C25.1109 11.1625 24.7203 10.772 24.2386 10.772ZM21.8952 13.9532C22.0025 13.7671 22.2709 13.7671 22.3785 13.9532L23.0377 15.0953H21.4402L21.3378 14.9183L21.8952 13.9532ZM18.3813 13.3113C18.3813 12.6849 18.8909 12.1753 19.5173 12.1753C20.1437 12.1753 20.6533 12.6849 20.6533 13.3113C20.6533 13.9377 20.1437 14.4473 19.5173 14.4473C18.8909 14.4474 18.3813 13.9377 18.3813 13.3113ZM21.6534 17.7562H20.2426H18.8318C18.6169 17.7562 18.4827 17.5237 18.5901 17.3376L19.2955 16.1158L20.001 14.8939C20.1084 14.7079 20.3769 14.7079 20.4843 14.8939L21.1897 16.1158L21.8952 17.3376C22.0025 17.5236 21.8683 17.7562 21.6534 17.7562ZM24.0908 17.7562H22.6198C22.6945 17.4968 22.6628 17.2133 22.5247 16.974L21.8597 15.8223H23.0376C23.1676 15.8223 23.2924 15.7877 23.4011 15.7248L24.3324 17.3375C24.4397 17.5235 24.3057 17.7562 24.0908 17.7562Z" fill="#FF5443"/>
<path d="M8.60272 8.83727C8.8028 8.83361 8.95934 8.66194 8.95934 8.46183V6.09762C8.95934 5.81659 9.18716 5.58877 9.46819 5.58877H19.7304C20.0114 5.58877 20.2392 5.81659 20.2392 6.09762V7.1065C20.2392 7.23531 20.1348 7.33972 20.006 7.33972C19.8508 7.33972 19.7538 7.50773 19.8314 7.64212L20.1298 8.15888L20.4281 8.67563C20.5057 8.81003 20.6997 8.81003 20.7773 8.67563L21.0757 8.15888L21.374 7.64212C21.4516 7.5077 21.3546 7.33969 21.1994 7.33969C21.0706 7.33969 20.9662 7.23528 20.9662 7.10647V6.09759C20.9662 5.41509 20.4129 4.86182 19.7304 4.86182H9.46819C8.7857 4.86182 8.23242 5.41509 8.23242 6.09759V8.47387C8.23242 8.67688 8.39886 8.84102 8.60272 8.83727Z" fill="#FF5443"/>
<path d="M21.3943 20.1783C21.1942 20.1819 21.0377 20.3536 21.0377 20.5538V23.9018C21.0377 24.1828 20.8099 24.4106 20.5288 24.4106H10.2666C9.98562 24.4106 9.7578 24.1828 9.7578 23.9018V21.8908C9.7578 21.762 9.86222 21.6576 9.99103 21.6576C10.1462 21.6576 10.2432 21.4896 10.1656 21.3552L9.86728 20.8384L9.56892 20.3216C9.49131 20.1872 9.29731 20.1872 9.21973 20.3216L8.92138 20.8384L8.62302 21.3552C8.54541 21.4896 8.64241 21.6576 8.79762 21.6576C8.92644 21.6576 9.03088 21.762 9.03088 21.8908V23.9018C9.03088 24.5843 9.58416 25.1376 10.2666 25.1376H20.5289C21.2113 25.1376 21.7646 24.5843 21.7646 23.9018V20.5417C21.7646 20.3387 21.5982 20.1745 21.3943 20.1783Z" fill="#FF5443"/>
<path d="M11.5002 8.77624H12.6025C12.8033 8.77624 12.966 8.6135 12.966 8.41278C12.966 8.21203 12.8033 8.04932 12.6025 8.04932H11.5002C11.2995 8.04932 11.1367 8.21203 11.1367 8.41278C11.1367 8.6135 11.2995 8.77624 11.5002 8.77624Z" fill="#FF5443"/>
<path d="M18.8594 8.41278C18.8594 8.21203 18.6967 8.04932 18.4959 8.04932H14.3635C14.1627 8.04932 14 8.21203 14 8.41278C14 8.6135 14.1627 8.77624 14.3635 8.77624H18.496C18.6967 8.77624 18.8594 8.6135 18.8594 8.41278Z" fill="#FF5443"/>
<path d="M11.5002 20.6704C11.2995 20.6704 11.1367 20.8331 11.1367 21.0339C11.1367 21.2346 11.2995 21.3973 11.5002 21.3973H12.6025C12.8033 21.3973 12.966 21.2346 12.966 21.0339C12.966 20.8331 12.8033 20.6704 12.6025 20.6704H11.5002Z" fill="#FF5443"/>
<path d="M14 21.0339C14 21.2346 14.1627 21.3973 14.3635 21.3973H18.496C18.6967 21.3973 18.8594 21.2346 18.8594 21.0339C18.8594 20.8332 18.6967 20.6704 18.496 20.6704H14.3635C14.1627 20.6704 14 20.8332 14 21.0339Z" fill="#FF5443"/>
</svg>
