<svg width="42" height="42" viewBox="0 0 42 42" fill="none" xmlns="http://www.w3.org/2000/svg">
<circle cx="21" cy="21" r="20.5" stroke="#314C80"/>
<path d="M18.5695 27.8201C18.3795 27.8201 18.1895 27.7501 18.0395 27.6001L11.9695 21.5301C11.6795 21.2401 11.6795 20.7601 11.9695 20.4701L18.0395 14.4001C18.3295 14.1101 18.8095 14.1101 19.0995 14.4001C19.3895 14.6901 19.3895 15.1701 19.0995 15.4601L13.5595 21.0001L19.0995 26.5401C19.3895 26.8301 19.3895 27.3101 19.0995 27.6001C18.9595 27.7501 18.7595 27.8201 18.5695 27.8201Z" fill="#292D32"/>
<path d="M29.4999 21.75H12.6699C12.2599 21.75 11.9199 21.41 11.9199 21C11.9199 20.59 12.2599 20.25 12.6699 20.25H29.4999C29.9099 20.25 30.2499 20.59 30.2499 21C30.2499 21.41 29.9099 21.75 29.4999 21.75Z" fill="#292D32"/>
</svg>
