<svg width="24" height="24" viewBox="0 0 24 24" fill="none" xmlns="http://www.w3.org/2000/svg">
<path d="M16.7502 3.56V2C16.7502 1.59 16.4102 1.25 16.0002 1.25C15.5902 1.25 15.2502 1.59 15.2502 2V3.5H8.75023V2C8.75023 1.59 8.41023 1.25 8.00023 1.25C7.59023 1.25 7.25023 1.59 7.25023 2V3.56C4.55023 3.81 3.24023 5.42 3.04023 7.81C3.02023 8.1 3.26023 8.34 3.54023 8.34H20.4602C20.7502 8.34 20.9902 8.09 20.9602 7.81C20.7602 5.42 19.4502 3.81 16.7502 3.56Z" fill="#314C80"/>
<path d="M19.998 9.83984H3.99805C3.44805 9.83984 2.99805 10.2898 2.99805 10.8398V16.9998C2.99805 19.9998 4.49805 21.9998 7.99805 21.9998H15.998C19.498 21.9998 20.998 19.9998 20.998 16.9998V10.8398C20.998 10.2898 20.548 9.83984 19.998 9.83984ZM9.20805 18.2098C9.15805 18.2498 9.10805 18.2998 9.05805 18.3298C8.99805 18.3698 8.93805 18.3998 8.87805 18.4198C8.81805 18.4498 8.75805 18.4698 8.69805 18.4798C8.62805 18.4898 8.56805 18.4998 8.49805 18.4998C8.36805 18.4998 8.23805 18.4698 8.11805 18.4198C7.98805 18.3698 7.88805 18.2998 7.78805 18.2098C7.60805 18.0198 7.49805 17.7598 7.49805 17.4998C7.49805 17.2398 7.60805 16.9798 7.78805 16.7898C7.88805 16.6998 7.98805 16.6298 8.11805 16.5798C8.29805 16.4998 8.49805 16.4798 8.69805 16.5198C8.75805 16.5298 8.81805 16.5498 8.87805 16.5798C8.93805 16.5998 8.99805 16.6298 9.05805 16.6698C9.10805 16.7098 9.15805 16.7498 9.20805 16.7898C9.38805 16.9798 9.49805 17.2398 9.49805 17.4998C9.49805 17.7598 9.38805 18.0198 9.20805 18.2098ZM9.20805 14.7098C9.01805 14.8898 8.75805 14.9998 8.49805 14.9998C8.23805 14.9998 7.97805 14.8898 7.78805 14.7098C7.60805 14.5198 7.49805 14.2598 7.49805 13.9998C7.49805 13.7398 7.60805 13.4798 7.78805 13.2898C8.06805 13.0098 8.50805 12.9198 8.87805 13.0798C9.00805 13.1298 9.11805 13.1998 9.20805 13.2898C9.38805 13.4798 9.49805 13.7398 9.49805 13.9998C9.49805 14.2598 9.38805 14.5198 9.20805 14.7098ZM12.708 18.2098C12.518 18.3898 12.258 18.4998 11.998 18.4998C11.738 18.4998 11.478 18.3898 11.288 18.2098C11.108 18.0198 10.998 17.7598 10.998 17.4998C10.998 17.2398 11.108 16.9798 11.288 16.7898C11.658 16.4198 12.338 16.4198 12.708 16.7898C12.888 16.9798 12.998 17.2398 12.998 17.4998C12.998 17.7598 12.888 18.0198 12.708 18.2098ZM12.708 14.7098C12.658 14.7498 12.608 14.7898 12.558 14.8298C12.498 14.8698 12.438 14.8998 12.378 14.9198C12.318 14.9498 12.258 14.9698 12.198 14.9798C12.128 14.9898 12.068 14.9998 11.998 14.9998C11.738 14.9998 11.478 14.8898 11.288 14.7098C11.108 14.5198 10.998 14.2598 10.998 13.9998C10.998 13.7398 11.108 13.4798 11.288 13.2898C11.378 13.1998 11.488 13.1298 11.618 13.0798C11.988 12.9198 12.428 13.0098 12.708 13.2898C12.888 13.4798 12.998 13.7398 12.998 13.9998C12.998 14.2598 12.888 14.5198 12.708 14.7098ZM16.208 18.2098C16.018 18.3898 15.758 18.4998 15.498 18.4998C15.238 18.4998 14.978 18.3898 14.788 18.2098C14.608 18.0198 14.498 17.7598 14.498 17.4998C14.498 17.2398 14.608 16.9798 14.788 16.7898C15.158 16.4198 15.838 16.4198 16.208 16.7898C16.388 16.9798 16.498 17.2398 16.498 17.4998C16.498 17.7598 16.388 18.0198 16.208 18.2098ZM16.208 14.7098C16.158 14.7498 16.108 14.7898 16.058 14.8298C15.998 14.8698 15.938 14.8998 15.878 14.9198C15.818 14.9498 15.758 14.9698 15.698 14.9798C15.628 14.9898 15.558 14.9998 15.498 14.9998C15.238 14.9998 14.978 14.8898 14.788 14.7098C14.608 14.5198 14.498 14.2598 14.498 13.9998C14.498 13.7398 14.608 13.4798 14.788 13.2898C14.888 13.1998 14.988 13.1298 15.118 13.0798C15.298 12.9998 15.498 12.9798 15.698 13.0198C15.758 13.0298 15.818 13.0498 15.878 13.0798C15.938 13.0998 15.998 13.1298 16.058 13.1698C16.108 13.2098 16.158 13.2498 16.208 13.2898C16.388 13.4798 16.498 13.7398 16.498 13.9998C16.498 14.2598 16.388 14.5198 16.208 14.7098Z" fill="#314C80"/>
</svg>
