<svg width="26" height="26" viewBox="0 0 26 26" fill="none" xmlns="http://www.w3.org/2000/svg">
<circle cx="13" cy="13" r="12.5" fill="white" stroke="#FF9D93"/>
<path d="M13.554 12.9978L17.7348 8.81292C17.8086 8.7388 17.85 8.63846 17.8499 8.5339C17.8498 8.42933 17.8083 8.32905 17.7345 8.25503C17.5866 8.10795 17.3263 8.1072 17.1769 8.25577L12.9973 12.4407L8.81608 8.25466C8.66751 8.10795 8.40714 8.10869 8.25931 8.2554C8.22262 8.29195 8.19357 8.33544 8.17387 8.38333C8.15416 8.43122 8.14419 8.48256 8.14454 8.53435C8.14454 8.63983 8.1854 8.73863 8.25931 8.8118L12.4401 12.9974L8.25968 17.1834C8.18591 17.2577 8.1446 17.3581 8.14481 17.4628C8.14502 17.5674 8.18673 17.6677 8.2608 17.7417C8.33248 17.8126 8.43388 17.8535 8.53863 17.8535H8.54085C8.64597 17.8531 8.74737 17.8119 8.81757 17.7402L12.9973 13.5553L17.1784 17.7413C17.2523 17.8149 17.3511 17.8557 17.4559 17.8557C17.5077 17.8559 17.559 17.8458 17.6069 17.826C17.6547 17.8063 17.6982 17.7772 17.7349 17.7406C17.7715 17.704 17.8005 17.6605 17.8203 17.6126C17.84 17.5647 17.8501 17.5134 17.85 17.4616C17.85 17.3565 17.8091 17.2573 17.7348 17.1842L13.554 12.9978Z" fill="#9DA8B5"/>
</svg>
