<svg width="15" height="15" viewBox="0 0 15 15" fill="none" xmlns="http://www.w3.org/2000/svg">
<path d="M13.1253 4.20605C13.1128 4.20605 13.094 4.20605 13.0753 4.20605C9.76903 3.8748 6.46903 3.7498 3.20028 4.08105L1.92528 4.20605C1.66278 4.23105 1.43153 4.04355 1.40653 3.78105C1.38153 3.51855 1.56903 3.29355 1.82528 3.26855L3.10028 3.14355C6.42528 2.80605 9.79403 2.9373 13.169 3.26855C13.4253 3.29355 13.6128 3.5248 13.5878 3.78105C13.569 4.0248 13.3628 4.20605 13.1253 4.20605Z" fill="#9DA8B5"/>
<path d="M5.31296 3.575C5.28796 3.575 5.26296 3.575 5.23171 3.56875C4.98171 3.525 4.80671 3.28125 4.85046 3.03125L4.98796 2.2125C5.08796 1.6125 5.22546 0.78125 6.68171 0.78125H8.31921C9.78171 0.78125 9.91921 1.64375 10.013 2.21875L10.1505 3.03125C10.1942 3.2875 10.0192 3.53125 9.76921 3.56875C9.51296 3.6125 9.26921 3.4375 9.23171 3.1875L9.09421 2.375C9.00671 1.83125 8.98796 1.725 8.32546 1.725H6.68796C6.02546 1.725 6.01296 1.8125 5.91921 2.36875L5.77546 3.18125C5.73796 3.4125 5.53796 3.575 5.31296 3.575Z" fill="#9DA8B5"/>
<path d="M9.50552 14.2187H5.49302C3.31177 14.2187 3.22427 13.0125 3.15552 12.0375L2.74927 5.74374C2.73052 5.48749 2.93052 5.26249 3.18677 5.24374C3.44927 5.23124 3.66802 5.42499 3.68677 5.68124L4.09302 11.975C4.16177 12.925 4.18677 13.2812 5.49302 13.2812H9.50552C10.818 13.2812 10.843 12.925 10.9055 11.975L11.3118 5.68124C11.3305 5.42499 11.5555 5.23124 11.8118 5.24374C12.068 5.26249 12.268 5.48124 12.2493 5.74374L11.843 12.0375C11.7743 13.0125 11.6868 14.2187 9.50552 14.2187Z" fill="#9DA8B5"/>
<path d="M8.53828 10.7812H6.45703C6.20078 10.7812 5.98828 10.5688 5.98828 10.3125C5.98828 10.0563 6.20078 9.84375 6.45703 9.84375H8.53828C8.79453 9.84375 9.00703 10.0563 9.00703 10.3125C9.00703 10.5688 8.79453 10.7812 8.53828 10.7812Z" fill="#9DA8B5"/>
<path d="M9.0625 8.28125H5.9375C5.68125 8.28125 5.46875 8.06875 5.46875 7.8125C5.46875 7.55625 5.68125 7.34375 5.9375 7.34375H9.0625C9.31875 7.34375 9.53125 7.55625 9.53125 7.8125C9.53125 8.06875 9.31875 8.28125 9.0625 8.28125Z" fill="#9DA8B5"/>
</svg>
