<svg width="30" height="30" viewBox="0 0 30 30" fill="none" xmlns="http://www.w3.org/2000/svg">
<g clip-path="url(#clip0_622_7144)">
<path d="M28.3864 6.9398V5.10915L28.1212 5.00473C28.0316 4.96869 25.8793 4.1333 23.0081 4.1333C19.9327 4.1333 17.2852 5.07034 15.1292 6.91947C12.9742 5.07034 10.3248 4.1333 7.2494 4.1333C4.37821 4.1333 2.22598 4.96869 2.13634 5.00381L1.87112 5.10915V6.80488C1.00154 6.96753 0.460938 7.25862 0.460938 7.73361C0.460938 10.2065 0.460938 25.2158 0.460938 25.2158H13.3356C13.781 25.615 14.4325 25.8654 15.1607 25.8654C15.8888 25.8654 16.5403 25.615 16.9858 25.2158H29.5379C29.5379 25.2158 29.5379 8.60134 29.5379 7.73361C29.5369 7.34733 29.0989 7.09505 28.3864 6.9398ZM14.9897 23.837C13.9205 23.3962 10.2389 21.9972 6.55263 21.9972C5.09624 21.9972 3.80527 22.2199 2.70559 22.6616V5.68672C3.34691 5.47325 5.09624 4.96684 7.2494 4.96684C10.0809 4.96684 12.5131 5.82349 14.4999 7.49334V17.6252L14.9906 17.0855L14.9897 23.837ZM27.552 22.6653C26.371 22.1903 25.0162 21.9519 23.5127 21.9519C19.8283 21.9519 16.3204 23.3639 15.266 23.8278V17.0846L15.7558 17.6243V7.49242C17.7426 5.82164 20.1758 4.96592 23.0072 4.96592C25.153 4.96592 26.9079 5.47325 27.5501 5.68579V22.6653H27.552Z" fill="#008081"/>
<path d="M4.35547 7.91923L4.5292 8.57257C8.87711 7.42021 12.7888 9.55397 12.8277 9.57614L13.1566 8.98472C12.9884 8.89138 8.97229 6.69571 4.35547 7.91923Z" fill="#008081"/>
<path d="M4.35547 9.83154L4.5292 10.484C8.87711 9.33068 12.7888 11.4654 12.8277 11.4857L13.1566 10.897C12.9884 10.8018 8.97229 8.60803 4.35547 9.83154Z" fill="#008081"/>
<path d="M4.35547 11.627L4.5292 12.2803C8.87711 11.1289 12.7888 13.2627 12.8277 13.2839L13.1566 12.6925C12.9884 12.6001 8.97229 10.4063 4.35547 11.627Z" fill="#008081"/>
<path d="M4.35547 13.5994L4.5292 14.2518C8.87711 13.0985 12.7888 15.2332 12.8277 15.2554L13.1566 14.6649C12.9884 14.5706 8.97229 12.3749 4.35547 13.5994Z" fill="#008081"/>
<path d="M4.35547 15.4242L4.5292 16.0776C8.87711 14.9243 12.7888 17.059 12.8277 17.0812L13.1566 16.4897C12.9884 16.3973 8.97229 14.2026 4.35547 15.4242Z" fill="#008081"/>
<path d="M4.35547 17.3007L4.5292 17.9522C8.87711 16.7998 12.7888 18.9345 12.8277 18.9557L13.1566 18.3662C12.9884 18.271 8.97229 16.0762 4.35547 17.3007Z" fill="#008081"/>
<path d="M4.35547 19.1786L4.5292 19.832C8.87711 18.6787 12.7888 20.8134 12.8277 20.8346L13.1566 20.245C12.9884 20.1508 8.97229 17.956 4.35547 19.1786Z" fill="#008081"/>
<path d="M21.6634 10.5816V9.84229H21.182V10.5816C20.8927 10.5816 20.5989 10.6241 20.3041 10.7072C20.0065 10.7904 19.7413 10.9189 19.5029 11.0954C19.2663 11.2719 19.0713 11.4964 18.9198 11.7709C18.7701 12.0444 18.6943 12.3706 18.6943 12.7458C18.6943 13.012 18.734 13.2347 18.8135 13.4176C18.893 13.5997 19.0085 13.7568 19.1563 13.8889C19.3042 14.0229 19.4835 14.1366 19.6923 14.2318C19.903 14.3279 20.135 14.4175 20.3873 14.5044C20.5277 14.5534 20.6654 14.5959 20.7985 14.6291C20.9325 14.6633 21.0582 14.6984 21.182 14.7354V16.0402C21.0046 16.0264 20.8641 15.9885 20.7661 15.9247C20.6682 15.86 20.5924 15.7824 20.5388 15.6919C20.4861 15.6031 20.4529 15.5098 20.4381 15.4091C20.4214 15.313 20.415 15.2224 20.415 15.142H18.4355C18.4485 15.4442 18.5067 15.739 18.6111 16.0208C18.7146 16.3045 18.8782 16.554 19.0954 16.774C19.3144 16.993 19.5953 17.1695 19.9372 17.3007C20.2801 17.4329 20.695 17.4994 21.182 17.4994V18.4143H21.6634V17.4994C22.1504 17.4994 22.5663 17.4347 22.9082 17.3063C23.2501 17.176 23.5292 17.0106 23.7445 16.8054C23.9608 16.6021 24.116 16.3738 24.2121 16.1225C24.3082 15.8702 24.3544 15.6161 24.3544 15.3647C24.3544 15.1051 24.3276 14.8639 24.2713 14.6421C24.2149 14.4212 24.0957 14.2151 23.9053 14.0285C23.7168 13.84 23.4451 13.6662 23.0903 13.5082C22.7363 13.352 22.2604 13.2088 21.6625 13.0785V12.0435C21.778 12.0675 21.8769 12.098 21.9582 12.1276C22.0377 12.1581 22.1033 12.1978 22.1569 12.2477C22.2087 12.2976 22.2493 12.3623 22.2761 12.4409C22.3048 12.5222 22.3242 12.6201 22.3362 12.7384H24.1022C24.1022 12.3623 24.0375 12.037 23.9035 11.7653C23.7695 11.4946 23.592 11.2719 23.3666 11.0944C23.142 10.9198 22.8823 10.7895 22.5838 10.7063C22.2937 10.6232 21.985 10.5816 21.6634 10.5816ZM21.1829 12.9685C20.7449 12.8817 20.5259 12.7153 20.5259 12.4704C20.5259 12.2847 20.5943 12.1673 20.7292 12.1174C20.865 12.0675 21.0175 12.0435 21.1829 12.0435V12.9685ZM22.229 15.1097C22.3639 15.1938 22.4314 15.3167 22.4314 15.4756C22.4314 15.6549 22.3574 15.7898 22.2105 15.8795C22.0627 15.9691 21.8806 16.0227 21.6644 16.0421V14.8676C21.9046 14.9452 22.0922 15.0265 22.229 15.1097Z" fill="#008081"/>
</g>
<defs>
<clipPath id="clip0_622_7144">
<rect width="29.0769" height="29.0769" fill="white" transform="translate(0.460938 0.461426)"/>
</clipPath>
</defs>
</svg>
