<svg width="16" height="16" viewBox="0 0 16 16" fill="none" xmlns="http://www.w3.org/2000/svg">
<path d="M1.91992 11.04V13.44H4.31992L11.3983 6.36162L8.99832 3.96162L1.91992 11.04ZM13.2543 4.50562C13.3137 4.44641 13.3607 4.37608 13.3928 4.29866C13.425 4.22124 13.4415 4.13824 13.4415 4.05442C13.4415 3.9706 13.425 3.8876 13.3928 3.81018C13.3607 3.73276 13.3137 3.66243 13.2543 3.60322L11.7567 2.10562C11.6975 2.04629 11.6272 1.99922 11.5498 1.9671C11.4723 1.93499 11.3893 1.91846 11.3055 1.91846C11.2217 1.91846 11.1387 1.93499 11.0613 1.9671C10.9839 1.99922 10.9135 2.04629 10.8543 2.10562L9.68312 3.27682L12.0831 5.67682L13.2543 4.50562Z" fill="#9DA8B5"/>
</svg>
