<svg width="30" height="30" viewBox="0 0 30 30" fill="none" xmlns="http://www.w3.org/2000/svg">
<path d="M8.33594 19.241V10.7603H13.1821" stroke="#F5772D" stroke-linecap="round" stroke-linejoin="round"/>
<path d="M8.33594 15.0005H12.8792" stroke="#F5772D" stroke-linecap="round" stroke-linejoin="round"/>
<path d="M8.33594 19.2407H12.8792" stroke="#F5772D" stroke-linecap="round" stroke-linejoin="round"/>
<path d="M16.2109 19.2404V11.9712" stroke="#F5772D" stroke-linecap="round" stroke-linejoin="round"/>
<path d="M16.2109 19.2401V15.3026C16.2109 13.7971 17.4314 12.5767 18.9369 12.5767C20.4424 12.5767 21.6629 13.7971 21.6629 15.3026V19.2401" stroke="#F5772D" stroke-linecap="round" stroke-linejoin="round"/>
<path d="M24.0861 4.09619H5.91301C4.90934 4.09619 4.0957 4.90983 4.0957 5.9135V24.0866C4.0957 25.0902 4.90934 25.9039 5.91301 25.9039H24.0861C25.0898 25.9039 25.9034 25.0902 25.9034 24.0866V5.9135C25.9034 4.90983 25.0898 4.09619 24.0861 4.09619Z" stroke="#F5772D" stroke-linecap="round" stroke-linejoin="round"/>
</svg>
