<svg width="30" height="30" viewBox="0 0 30 30" fill="none" xmlns="http://www.w3.org/2000/svg">
<g clip-path="url(#clip0_622_7122)">
<path d="M26.5075 22.2681H3.48828V24.6911H26.5075V22.2681Z" fill="#F5772D"/>
<path d="M27.1142 25.9028H2.88341C2.56209 25.9028 2.25393 26.0305 2.02673 26.2577C1.79952 26.4849 1.67188 26.7931 1.67188 27.1144V28.3259H28.3257V27.1144C28.3257 26.7931 28.1981 26.4849 27.9709 26.2577C27.7437 26.0305 27.4355 25.9028 27.1142 25.9028Z" fill="#F5772D"/>
<path d="M8.94065 11.3638H6.51758V21.0561H8.94065V11.3638Z" fill="#F5772D"/>
<path d="M16.2102 11.3638H13.7871V21.0561H16.2102V11.3638Z" fill="#F5772D"/>
<path d="M23.4797 11.3638H21.0566V21.0561H23.4797V11.3638Z" fill="#F5772D"/>
<path d="M27.6594 7.36659L14.9988 1.67236L2.33822 7.36659C2.14084 7.47341 1.97523 7.63054 1.8582 7.82205C1.74117 8.01355 1.67689 8.2326 1.67188 8.45698V8.94159C1.67188 9.26291 1.79952 9.57107 2.02673 9.79828C2.25393 10.0255 2.56209 10.1531 2.88341 10.1531H27.1142C27.4355 10.1531 27.7437 10.0255 27.9709 9.79828C28.1981 9.57107 28.3257 9.26291 28.3257 8.94159V8.45698C28.3207 8.2326 28.2564 8.01355 28.1394 7.82205C28.0224 7.63054 27.8568 7.47341 27.6594 7.36659Z" fill="#F5772D"/>
</g>
<defs>
<clipPath id="clip0_622_7122">
<rect width="29.0769" height="29.0769" fill="white" transform="translate(0.460938 0.461426)"/>
</clipPath>
</defs>
</svg>
