<svg width="30" height="30" viewBox="0 0 30 30" fill="none" xmlns="http://www.w3.org/2000/svg">
<g clip-path="url(#clip0_622_7138)">
<mask id="path-1-inside-1_622_7138" fill="white">
<path d="M17.2602 15.2573C17.1296 16.4084 16.1586 17.2763 15.0018 17.2763C14.9158 17.2763 14.8289 17.2714 14.743 17.2616C13.4964 17.1202 12.5974 15.9909 12.7388 14.7444C12.8693 13.5933 13.8403 12.7254 14.9972 12.7254C15.0831 12.7254 15.1701 12.7303 15.2559 12.7401C16.5025 12.8815 17.4016 14.0107 17.2602 15.2573ZM22.04 19.1026C23.5985 23.1131 24.0548 26.5447 22.3624 27.5386C22.0748 27.7076 21.7455 27.7931 21.3839 27.7931C19.705 27.793 17.4445 25.8798 15.2635 23.2682C13.1945 26.0938 10.9992 28.1767 9.29926 28.1767C8.99182 28.1767 8.70486 28.1105 8.44651 27.9802C6.61588 27.0559 6.95755 23.3264 8.41495 18.9839C7.16387 18.7827 6.00451 18.5296 4.97643 18.2284C1.95868 17.3442 0.439565 16.1832 0.461165 14.7778C0.491881 12.7725 3.78145 11.507 7.95884 10.8989C6.40045 6.88852 5.9442 3.45687 7.63653 2.46301C7.92419 2.294 8.25351 2.20845 8.61524 2.20845C10.2941 2.20845 12.5545 4.12168 14.7356 6.73325C16.8047 3.90765 18.9999 1.82471 20.6998 1.82471C21.0073 1.82471 21.2941 1.89091 21.5525 2.02121C23.3831 2.94549 23.0414 6.67505 21.584 11.0175C22.8351 11.2188 23.9945 11.4718 25.0225 11.7731C28.0403 12.6573 29.5594 13.8183 29.5378 15.2237C29.5069 17.2289 26.2174 18.4944 22.04 19.1026ZM15.6409 7.86259C16.3084 8.72797 16.9592 9.64427 17.5737 10.5756C18.4656 10.6336 19.3345 10.7148 20.1718 10.8182C20.5952 9.58452 20.9231 8.4131 21.1367 7.34701C21.7065 4.50528 21.2687 3.44943 20.9203 3.27355C20.859 3.24256 20.7868 3.22755 20.6998 3.22755C19.6785 3.22741 17.7532 4.91399 15.6409 7.86259ZM19.0405 17.041C18.8706 17.3773 18.695 17.7152 18.5142 18.0532C19.043 18.0232 19.5499 17.9847 20.0352 17.9393C19.8162 17.4497 19.5821 16.9527 19.3336 16.4506C19.2371 16.648 19.1395 16.8449 19.0405 17.041ZM18.5228 14.889C18.2576 14.4002 17.9818 13.9096 17.6935 13.4187C17.3925 12.9061 17.0897 12.4124 16.7868 11.9349C16.2145 11.9062 15.6345 11.886 15.0474 11.877C14.7899 11.8731 14.5336 11.8711 14.2795 11.8711C13.8806 11.8711 13.4943 11.8767 13.1145 11.8853C12.8106 12.433 12.5086 13.0024 12.2106 13.5928C11.954 14.1009 11.7098 14.6081 11.4762 15.1126C11.7414 15.6014 12.0171 16.092 12.3055 16.5829C12.6065 17.0955 12.9093 17.5892 13.2121 18.0666C13.7845 18.0954 14.3645 18.1156 14.9516 18.1246C15.2091 18.1285 15.4655 18.1305 15.7195 18.1305C16.1184 18.1305 16.5046 18.1249 16.8845 18.1163C17.1884 17.5686 17.4904 16.9992 17.7884 16.4088C18.0449 15.9007 18.2891 15.3935 18.5228 14.889ZM15.7198 19.5332C15.4586 19.5332 15.1949 19.5312 14.9301 19.5271C14.6737 19.5232 14.4186 19.517 14.1645 19.5093C14.5071 20.0079 14.8481 20.4823 15.1854 20.9317C15.4777 20.4871 15.7717 20.0201 16.0656 19.5318C15.9502 19.5326 15.8349 19.5332 15.7198 19.5332ZM10.7659 16.7226C10.61 17.0955 10.4607 17.4655 10.3196 17.8313C10.7025 17.8753 11.0929 17.9143 11.4884 17.949C11.355 17.73 11.2239 17.5112 11.0958 17.2931C10.9847 17.1037 10.8748 16.9135 10.7659 16.7226ZM10.9585 12.9606C11.1283 12.6243 11.3039 12.2864 11.4847 11.9484C10.956 11.9784 10.4491 12.0168 9.9638 12.0623C10.1827 12.5519 10.4168 13.0488 10.6654 13.5508C10.7617 13.3536 10.8595 13.1568 10.9585 12.9606ZM14.2795 10.4686C14.5406 10.4686 14.804 10.4705 15.0688 10.4746C15.3252 10.4785 15.5804 10.4847 15.8345 10.4924C15.4919 9.99379 15.1509 9.51944 14.8136 9.06992C14.5213 9.51453 14.2273 9.98144 13.9332 10.4698C14.0488 10.4691 14.1642 10.4686 14.2795 10.4686ZM19.2329 13.2791C19.3889 12.9062 19.5381 12.5362 19.6792 12.1704C19.2963 12.1264 18.906 12.0874 18.5104 12.0527C18.6438 12.2717 18.775 12.4905 18.9029 12.7086C19.0142 12.8979 19.1242 13.0883 19.2329 13.2791ZM9.39436 10.7191C10.3372 10.6189 11.3093 10.5493 12.2864 10.5094C12.8022 9.61902 13.3472 8.74368 13.9084 7.9114C11.6596 5.15439 9.67277 3.61101 8.61524 3.61101C8.50499 3.61101 8.41719 3.63121 8.34679 3.67244C8.01031 3.87006 7.64046 4.95172 8.38914 7.75151C8.63599 8.67468 8.97583 9.6733 9.39436 10.7191ZM8.89434 17.6399C9.20221 16.8226 9.54387 15.9923 9.91331 15.1624C9.39899 14.1797 8.92548 13.194 8.5064 12.2288C4.10081 12.8247 1.87537 14.032 1.86359 14.7994C1.85755 15.1897 2.58955 16.0676 5.37083 16.8826C6.41462 17.1884 7.60469 17.4419 8.89434 17.6399ZM14.358 22.1391C13.6905 21.2737 13.0398 20.3575 12.4253 19.4262C11.5334 19.3681 10.6645 19.2869 9.82719 19.1835C9.40376 20.4172 9.07584 21.5886 8.86223 22.6547C8.29251 25.4964 8.73025 26.5523 9.07864 26.7282C9.13993 26.7592 9.21217 26.7742 9.29912 26.7742C10.3205 26.7745 12.2458 25.0879 14.358 22.1391ZM20.6046 19.2825C19.6618 19.3827 18.6897 19.4522 17.7125 19.4922C17.1968 20.3824 16.6518 21.2579 16.0906 22.0902C18.3393 24.8472 20.3262 26.3906 21.3837 26.3907C21.4938 26.3907 21.5816 26.3705 21.652 26.3293C21.9885 26.1317 22.3584 25.05 21.6097 22.2502C21.363 21.327 21.023 20.3283 20.6046 19.2825ZM28.1352 15.2022C28.1413 14.8119 27.4093 13.934 24.628 13.119C23.5844 12.8132 22.3943 12.5595 21.1046 12.3617C20.7968 13.179 20.4551 14.0093 20.0857 14.8392C20.6 15.8218 21.0735 16.8076 21.4926 17.7728C25.898 17.177 28.1235 15.9697 28.1352 15.2022Z"/>
</mask>
<path d="M17.2602 15.2573L17.757 15.3137L17.757 15.3137L17.2602 15.2573ZM14.743 17.2616L14.7998 16.7648L14.7994 16.7648L14.743 17.2616ZM12.7388 14.7444L12.242 14.688V14.6881L12.7388 14.7444ZM15.2559 12.7401L15.1991 13.2369L15.1996 13.237L15.2559 12.7401ZM22.04 19.1026L21.968 18.6078L21.3464 18.6983L21.5739 19.2837L22.04 19.1026ZM22.3624 27.5386L22.1092 27.1074L22.1092 27.1075L22.3624 27.5386ZM21.3839 27.7931L21.3838 28.2931H21.3839V27.7931ZM15.2635 23.2682L15.6473 22.9477L15.2377 22.4572L14.8601 22.9728L15.2635 23.2682ZM8.44651 27.9802L8.22115 28.4266L8.22135 28.4267L8.44651 27.9802ZM8.41495 18.9839L8.88897 19.143L9.0766 18.5839L8.49437 18.4903L8.41495 18.9839ZM4.97643 18.2284L5.11704 17.7485L5.11702 17.7485L4.97643 18.2284ZM0.461165 14.7778L0.961106 14.7855L0.961106 14.7854L0.461165 14.7778ZM7.95884 10.8989L8.03087 11.3936L8.65237 11.3032L8.42489 10.7178L7.95884 10.8989ZM7.63653 2.46301L7.88973 2.89416L7.88981 2.89411L7.63653 2.46301ZM14.7356 6.73325L14.3518 7.05376L14.7615 7.54423L15.139 7.02865L14.7356 6.73325ZM21.5525 2.02121L21.7778 1.57487L21.7776 1.57477L21.5525 2.02121ZM21.584 11.0175L21.11 10.8584L20.9224 11.4175L21.5046 11.5112L21.584 11.0175ZM25.0225 11.7731L24.8819 12.2529L24.882 12.2529L25.0225 11.7731ZM29.5378 15.2237L30.0377 15.2314V15.2313L29.5378 15.2237ZM15.6409 7.86259L15.2345 7.57142L15.018 7.87362L15.245 8.16797L15.6409 7.86259ZM17.5737 10.5756L17.1563 10.8509L17.2932 11.0584L17.5412 11.0745L17.5737 10.5756ZM20.1718 10.8182L20.1105 11.3144L20.513 11.3641L20.6447 10.9805L20.1718 10.8182ZM21.1367 7.34701L20.6465 7.24873L20.6465 7.24878L21.1367 7.34701ZM20.9203 3.27355L20.6947 3.71974L20.695 3.7199L20.9203 3.27355ZM20.6998 3.22755L20.6998 3.72755H20.6998V3.22755ZM19.0405 17.041L18.5942 16.8156V16.8156L19.0405 17.041ZM18.5142 18.0532L18.0733 17.8174L17.6532 18.6029L18.5426 18.5524L18.5142 18.0532ZM20.0352 17.9393L20.0818 18.4371L20.7764 18.3721L20.4916 17.7352L20.0352 17.9393ZM19.3336 16.4506L19.7817 16.2288L19.3309 15.318L18.8844 16.231L19.3336 16.4506ZM18.5228 14.889L18.9765 15.0991L19.082 14.8713L18.9623 14.6505L18.5228 14.889ZM17.6935 13.4187L17.2623 13.6719L17.2623 13.672L17.6935 13.4187ZM16.7868 11.9349L17.2091 11.6671L17.0704 11.4485L16.8119 11.4356L16.7868 11.9349ZM15.0474 11.877L15.055 11.3771H15.055L15.0474 11.877ZM13.1145 11.8853L13.1033 11.3854L12.8165 11.3919L12.6773 11.6427L13.1145 11.8853ZM12.2106 13.5928L11.7642 13.3674L11.7642 13.3674L12.2106 13.5928ZM11.4762 15.1126L11.0225 14.9024L10.9169 15.1303L11.0367 15.351L11.4762 15.1126ZM12.3055 16.5829L12.7367 16.3297L12.7366 16.3296L12.3055 16.5829ZM13.2121 18.0666L12.7899 18.3345L12.9285 18.553L13.187 18.566L13.2121 18.0666ZM14.9516 18.1246L14.9439 18.6245H14.944L14.9516 18.1246ZM16.8845 18.1163L16.8957 18.6162L17.1825 18.6097L17.3217 18.3589L16.8845 18.1163ZM17.7884 16.4088L18.2347 16.6342L18.2348 16.6342L17.7884 16.4088ZM14.9301 19.5271L14.9378 19.0272H14.9378L14.9301 19.5271ZM14.1645 19.5093L14.1796 19.0096L13.1938 18.9796L13.7524 19.7925L14.1645 19.5093ZM15.1854 20.9317L14.7855 21.2318L15.2125 21.8006L15.6032 21.2063L15.1854 20.9317ZM16.0656 19.5318L16.494 19.7896L16.9541 19.0253L16.062 19.0318L16.0656 19.5318ZM10.7659 16.7226L11.2003 16.4749L10.6968 15.5919L10.3046 16.5297L10.7659 16.7226ZM10.3196 17.8313L9.85313 17.6514L9.62059 18.2542L10.2625 18.328L10.3196 17.8313ZM11.4884 17.949L11.4448 18.4471L12.4299 18.5334L11.9154 17.6888L11.4884 17.949ZM11.0958 17.2931L10.6645 17.546L10.6646 17.5463L11.0958 17.2931ZM10.9585 12.9606L10.5122 12.7352L10.5121 12.7354L10.9585 12.9606ZM11.4847 11.9484L11.9256 12.1842L12.3458 11.3987L11.4564 11.4492L11.4847 11.9484ZM9.9638 12.0623L9.91718 11.5645L9.22257 11.6295L9.50735 12.2664L9.9638 12.0623ZM10.6654 13.5508L10.2173 13.7727L10.6683 14.6837L11.1146 13.7703L10.6654 13.5508ZM15.0688 10.4746L15.0612 10.9745L15.0612 10.9745L15.0688 10.4746ZM15.8345 10.4924L15.8193 10.9922L16.8052 11.0221L16.2466 10.2092L15.8345 10.4924ZM14.8136 9.06992L15.2135 8.76982L14.7865 8.20084L14.3958 8.79525L14.8136 9.06992ZM13.9332 10.4698L13.5049 10.2119L13.0451 10.9752L13.9362 10.9698L13.9332 10.4698ZM19.2329 13.2791L18.7984 13.5266L19.3017 14.4105L19.6942 13.4721L19.2329 13.2791ZM19.6792 12.1704L20.1457 12.3504L20.3782 11.7475L19.7363 11.6737L19.6792 12.1704ZM18.5104 12.0527L18.5541 11.5547L17.5689 11.4684L18.0834 12.3129L18.5104 12.0527ZM18.9029 12.7086L18.4716 12.9615L18.4719 12.9621L18.9029 12.7086ZM9.39436 10.7191L8.93015 10.9048L9.07079 11.2562L9.44717 11.2163L9.39436 10.7191ZM12.2864 10.5094L12.3069 11.009L12.5814 10.9977L12.7191 10.76L12.2864 10.5094ZM13.9084 7.9114L14.3229 8.19093L14.5305 7.88309L14.2958 7.59538L13.9084 7.9114ZM8.34679 3.67244L8.0941 3.24099L8.09357 3.2413L8.34679 3.67244ZM8.38914 7.75151L8.87217 7.62235L8.87217 7.62235L8.38914 7.75151ZM8.89434 17.6399L8.81851 18.1341L9.21931 18.1956L9.36225 17.8161L8.89434 17.6399ZM9.91331 15.1624L10.3701 15.3657L10.4684 15.1448L10.3563 14.9305L9.91331 15.1624ZM8.5064 12.2288L8.96503 12.0296L8.81434 11.6826L8.43937 11.7333L8.5064 12.2288ZM1.86359 14.7994L2.36353 14.8071L2.36353 14.8071L1.86359 14.7994ZM5.37083 16.8826L5.23022 17.3624L5.23027 17.3624L5.37083 16.8826ZM14.358 22.1391L14.7645 22.4303L14.981 22.1281L14.7539 21.8338L14.358 22.1391ZM12.4253 19.4262L12.8426 19.1508L12.7058 18.9434L12.4578 18.9272L12.4253 19.4262ZM9.82719 19.1835L9.88845 18.6873L9.48593 18.6376L9.35427 19.0212L9.82719 19.1835ZM8.86223 22.6547L9.35247 22.753L9.35248 22.7529L8.86223 22.6547ZM9.07864 26.7282L9.30429 26.282L9.30397 26.2818L9.07864 26.7282ZM9.29912 26.7742L9.29926 26.2742H9.29912V26.7742ZM20.6046 19.2825L21.0688 19.0968L20.9282 18.7453L20.5518 18.7853L20.6046 19.2825ZM17.7125 19.4922L17.6921 18.9926L17.4176 19.0039L17.2799 19.2416L17.7125 19.4922ZM16.0906 22.0902L15.676 21.8107L15.4685 22.1185L15.7031 22.4062L16.0906 22.0902ZM21.3837 26.3907L21.3837 26.8907H21.3837V26.3907ZM21.652 26.3293L21.9047 26.7607L21.9053 26.7604L21.652 26.3293ZM21.6097 22.2502L21.1266 22.3793L21.1267 22.3794L21.6097 22.2502ZM28.1352 15.2022L27.6353 15.1945V15.1945L28.1352 15.2022ZM24.628 13.119L24.7686 12.6392L24.7686 12.6391L24.628 13.119ZM21.1046 12.3617L21.1804 11.8675L20.7796 11.8061L20.6367 12.1855L21.1046 12.3617ZM20.0857 14.8392L19.6289 14.6359L19.5305 14.8568L19.6427 15.0711L20.0857 14.8392ZM21.4926 17.7728L21.0339 17.9719L21.1846 18.319L21.5596 18.2683L21.4926 17.7728ZM16.7634 15.201C16.6614 16.0998 15.9038 16.7763 15.0018 16.7763V17.7763C16.4134 17.7763 17.5978 16.717 17.757 15.3137L16.7634 15.201ZM15.0018 16.7763C14.9347 16.7763 14.8667 16.7725 14.7998 16.7648L14.6862 17.7583C14.791 17.7703 14.897 17.7763 15.0018 17.7763V16.7763ZM14.7994 16.7648C13.8272 16.6545 13.1253 15.7729 13.2356 14.8008L12.242 14.6881C12.0695 16.2088 13.1657 17.5859 14.6867 17.7584L14.7994 16.7648ZM13.2356 14.8008C13.3375 13.9019 14.0952 13.2254 14.9972 13.2254V12.2254C13.5855 12.2254 12.4011 13.2847 12.242 14.688L13.2356 14.8008ZM14.9972 13.2254C15.0643 13.2254 15.1323 13.2293 15.1991 13.2369L15.3128 12.2434C15.2079 12.2314 15.102 12.2254 14.9972 12.2254V13.2254ZM15.1996 13.237C16.1718 13.3472 16.8737 14.2287 16.7634 15.201L17.757 15.3137C17.9295 13.7927 16.8333 12.4158 15.3123 12.2433L15.1996 13.237ZM21.5739 19.2837C22.345 21.2679 22.8288 23.0741 22.9214 24.4845C23.0163 25.9318 22.6929 26.7646 22.1092 27.1074L22.6156 27.9697C23.7243 27.3186 24.0189 25.9387 23.9192 24.4191C23.8171 22.8626 23.2935 20.9478 22.506 18.9215L21.5739 19.2837ZM22.1092 27.1075C21.9048 27.2275 21.6643 27.2931 21.3839 27.2931V28.2931C21.8266 28.2931 22.2448 28.1876 22.6157 27.9697L22.1092 27.1075ZM21.3839 27.2931C20.715 27.2931 19.8414 26.9007 18.8166 26.1134C17.8086 25.3391 16.7247 24.2378 15.6473 22.9477L14.8797 23.5887C15.9834 24.9102 17.1202 26.0712 18.2074 26.9065C19.2778 27.7287 20.3739 28.293 21.3838 28.2931L21.3839 27.2931ZM14.8601 22.9728C13.8379 24.3688 12.7975 25.5628 11.8176 26.4024C10.8197 27.2575 9.96307 27.6767 9.29926 27.6767V28.6767C10.3354 28.6767 11.4264 28.0545 12.4683 27.1617C13.5283 26.2535 14.6201 24.9932 15.6669 23.5636L14.8601 22.9728ZM9.29926 27.6767C9.06515 27.6767 8.85595 27.6267 8.67166 27.5338L8.22135 28.4267C8.55377 28.5943 8.9185 28.6767 9.29926 28.6767V27.6767ZM8.67186 27.5339C8.03939 27.2146 7.65946 26.3401 7.69757 24.7761C7.73459 23.257 8.16739 21.293 8.88897 19.143L7.94093 18.8248C7.2051 21.0173 6.73838 23.0894 6.69787 24.7517C6.65845 26.3692 7.023 27.8216 8.22115 28.4266L8.67186 27.5339ZM8.49437 18.4903C7.25955 18.2916 6.12116 18.0428 5.11704 17.7485L4.83582 18.7082C5.88785 19.0165 7.06818 19.2737 8.33553 19.4776L8.49437 18.4903ZM5.11702 17.7485C3.63381 17.314 2.5666 16.8239 1.88265 16.3013C1.2059 15.7841 0.953546 15.2773 0.961106 14.7855L-0.0387763 14.7701C-0.0528163 15.6836 0.44359 16.4601 1.27544 17.0958C2.10008 17.726 3.3013 18.2586 4.83584 18.7082L5.11702 17.7485ZM0.961106 14.7854C0.971766 14.0895 1.55341 13.3937 2.87023 12.7657C4.1532 12.1539 5.96341 11.6946 8.03087 11.3936L7.88681 10.4041C5.77688 10.7112 3.85361 11.1888 2.43977 11.8631C1.05978 12.5212 -0.0187204 13.4608 -0.0387767 14.7701L0.961106 14.7854ZM8.42489 10.7178C7.65387 8.73363 7.17012 6.92745 7.07759 5.51702C6.98264 4.06974 7.30603 3.23695 7.88973 2.89416L7.38333 2.03186C6.27469 2.68293 5.98004 4.06289 6.07974 5.58248C6.18185 7.13893 6.70542 9.05375 7.49279 11.08L8.42489 10.7178ZM7.88981 2.89411C8.09415 2.77406 8.33467 2.70845 8.61524 2.70845V1.70845C8.17236 1.70845 7.75423 1.81395 7.38325 2.03191L7.88981 2.89411ZM8.61524 2.70845C9.28413 2.70845 10.1576 3.10075 11.1825 3.88802C12.1904 4.66233 13.2744 5.76369 14.3518 7.05376L15.1194 6.41274C14.0157 5.09125 12.8789 3.9302 11.7917 3.095C10.7213 2.27276 9.62521 1.70845 8.61524 1.70845V2.70845ZM15.139 7.02865C16.1612 5.63263 17.2016 4.43867 18.1815 3.59906C19.1795 2.74395 20.036 2.32471 20.6998 2.32471V1.32471C19.6637 1.32471 18.5727 1.94693 17.5308 2.8397C16.4708 3.74796 15.379 5.00827 14.3322 6.43785L15.139 7.02865ZM20.6998 2.32471C20.9339 2.32471 21.143 2.37468 21.3273 2.46764L21.7776 1.57477C21.4452 1.40714 21.0807 1.32471 20.6998 1.32471V2.32471ZM21.3271 2.46754C21.9596 2.78688 22.3395 3.66137 22.3014 5.22536C22.2644 6.74448 21.8316 8.70843 21.11 10.8584L22.058 11.1766C22.7939 8.98413 23.2606 6.91207 23.3011 5.24972C23.3405 3.63225 22.976 2.17982 21.7778 1.57487L21.3271 2.46754ZM21.5046 11.5112C22.7394 11.7098 23.8778 11.9586 24.8819 12.2529L25.1631 11.2933C24.1111 10.985 22.9308 10.7277 21.6634 10.5239L21.5046 11.5112ZM24.882 12.2529C26.3652 12.6875 27.4324 13.1775 28.1163 13.7002C28.7931 14.2174 29.0454 14.7241 29.0379 15.216L30.0377 15.2313C30.0518 14.3178 29.5554 13.5414 28.7235 12.9056C27.8989 12.2754 26.6977 11.7429 25.1631 11.2932L24.882 12.2529ZM29.0379 15.216C29.0272 15.9119 28.4455 16.6077 27.1286 17.2357C25.8456 17.8476 24.0354 18.3068 21.968 18.6078L22.112 19.5974C24.222 19.2902 26.1452 18.8126 27.5591 18.1383C28.9391 17.4802 30.0176 16.5407 30.0377 15.2314L29.0379 15.216ZM15.245 8.16797C15.9044 9.02285 16.5481 9.92906 17.1563 10.8509L17.991 10.3002C17.3703 9.35948 16.7124 8.4331 16.0369 7.55722L15.245 8.16797ZM17.5412 11.0745C18.424 11.132 19.2833 11.2123 20.1105 11.3144L20.233 10.322C19.3856 10.2174 18.5071 10.1353 17.6062 10.0766L17.5412 11.0745ZM20.6447 10.9805C21.0736 9.73083 21.4081 8.53764 21.627 7.44524L20.6465 7.24878C20.4381 8.28856 20.1168 9.43821 19.6989 10.6559L20.6447 10.9805ZM21.627 7.4453C21.9179 5.99411 21.9599 4.96137 21.8688 4.24734C21.8233 3.89013 21.7425 3.59722 21.6315 3.36731C21.5244 3.14517 21.3677 2.9393 21.1457 2.82721L20.695 3.7199C20.6472 3.69575 20.6759 3.68781 20.7309 3.80192C20.7822 3.90824 20.8406 4.08989 20.8768 4.37384C20.9493 4.94214 20.9253 5.85819 20.6465 7.24873L21.627 7.4453ZM21.146 2.82736C20.9983 2.75267 20.8444 2.72755 20.6998 2.72755V3.72755C20.7148 3.72755 20.7199 3.72886 20.7177 3.72841C20.7149 3.72783 20.7063 3.72561 20.6947 3.71974L21.146 2.82736ZM20.6999 2.72755C20.3186 2.7275 19.917 2.88024 19.5274 3.103C19.1291 3.33072 18.6972 3.65832 18.244 4.06859C17.3367 4.88982 16.3041 6.07828 15.2345 7.57142L16.0474 8.15377C17.09 6.6983 18.0763 5.56917 18.915 4.80999C19.3348 4.43006 19.7078 4.15176 20.0237 3.97114C20.3483 3.78556 20.5704 3.72753 20.6998 3.72755L20.6999 2.72755ZM18.5942 16.8156C18.4261 17.1484 18.2523 17.4828 18.0733 17.8174L18.9551 18.289C19.1378 17.9475 19.3152 17.6062 19.4868 17.2663L18.5942 16.8156ZM18.5426 18.5524C19.0774 18.522 19.5904 18.4831 20.0818 18.4371L19.9886 17.4415C19.5094 17.4863 19.0086 17.5243 18.4859 17.554L18.5426 18.5524ZM20.4916 17.7352C20.2699 17.2394 20.0331 16.7366 19.7817 16.2288L18.8855 16.6724C19.1312 17.1689 19.3625 17.6599 19.5787 18.1434L20.4916 17.7352ZM18.8844 16.231C18.7887 16.4267 18.6921 16.6217 18.5942 16.8156L19.4868 17.2663C19.5869 17.0681 19.6855 16.8692 19.7828 16.6703L18.8844 16.231ZM18.9623 14.6505C18.6946 14.1573 18.4161 13.6618 18.1246 13.1654L17.2623 13.672C17.5475 14.1574 17.8205 14.6431 18.0833 15.1275L18.9623 14.6505ZM18.1246 13.1655C17.8205 12.6475 17.5146 12.1489 17.2091 11.6671L16.3646 12.2027C16.6647 12.6758 16.9645 13.1646 17.2623 13.6719L18.1246 13.1655ZM16.8119 11.4356C16.2344 11.4065 15.6486 11.3861 15.055 11.3771L15.0397 12.3769C15.6204 12.3858 16.1945 12.4058 16.7618 12.4343L16.8119 11.4356ZM15.055 11.3771C14.795 11.3731 14.5362 11.3711 14.2795 11.3711V12.3711C14.5311 12.3711 14.7848 12.3731 15.0398 12.3769L15.055 11.3771ZM14.2795 11.3711C13.8759 11.3711 13.4858 11.3768 13.1033 11.3854L13.1258 12.3852C13.5029 12.3767 13.8853 12.3711 14.2795 12.3711V11.3711ZM12.6773 11.6427C12.3702 12.1961 12.0652 12.7713 11.7642 13.3674L12.6569 13.8181C12.952 13.2336 13.2509 12.6699 13.5517 12.1279L12.6773 11.6427ZM11.7642 13.3674C11.5049 13.8811 11.2583 14.3934 11.0225 14.9024L11.9299 15.3227C12.1614 14.8228 12.4032 14.3207 12.6569 13.8181L11.7642 13.3674ZM11.0367 15.351C11.3043 15.8442 11.5828 16.3398 11.8744 16.8361L12.7366 16.3296C12.4514 15.8441 12.1785 15.3585 11.9157 14.8741L11.0367 15.351ZM11.8743 16.836C12.1785 17.3541 12.4843 17.8527 12.7899 18.3345L13.6344 17.7988C13.3343 17.3258 13.0345 16.837 12.7367 16.3297L11.8743 16.836ZM13.187 18.566C13.7646 18.595 14.3504 18.6154 14.9439 18.6245L14.9592 17.6246C14.3785 17.6158 13.8044 17.5958 13.2372 17.5673L13.187 18.566ZM14.944 18.6245C15.204 18.6285 15.4629 18.6305 15.7195 18.6305V17.6305C15.4681 17.6305 15.2142 17.6285 14.9592 17.6246L14.944 18.6245ZM15.7195 18.6305C16.1231 18.6305 16.5132 18.6248 16.8957 18.6162L16.8732 17.6164C16.4961 17.6249 16.1137 17.6305 15.7195 17.6305V18.6305ZM17.3217 18.3589C17.6287 17.8055 17.9338 17.2303 18.2347 16.6342L17.3421 16.1835C17.047 16.768 16.748 17.3317 16.4473 17.8737L17.3217 18.3589ZM18.2348 16.6342C18.4941 16.1205 18.7407 15.6082 18.9765 15.0991L18.0691 14.6789C17.8375 15.1788 17.5958 15.6809 17.3421 16.1835L18.2348 16.6342ZM15.7198 19.0332C15.4611 19.0332 15.2 19.0312 14.9378 19.0272L14.9224 20.0271C15.1899 20.0312 15.4561 20.0332 15.7198 20.0332V19.0332ZM14.9378 19.0272C14.6843 19.0233 14.4317 19.0172 14.1796 19.0096L14.1493 20.0091C14.4055 20.0169 14.6632 20.0231 14.9225 20.0271L14.9378 19.0272ZM13.7524 19.7925C14.0989 20.2967 14.4439 20.7767 14.7855 21.2318L15.5853 20.6315C15.2522 20.1878 14.9153 19.7192 14.5765 19.2261L13.7524 19.7925ZM15.6032 21.2063C15.8992 20.7561 16.1967 20.2835 16.494 19.7896L15.6373 19.2739C15.3466 19.7567 15.0562 20.218 14.7676 20.657L15.6032 21.2063ZM16.062 19.0318C15.9473 19.0326 15.8333 19.0332 15.7198 19.0332V20.0332C15.8365 20.0332 15.9531 20.0326 16.0693 20.0318L16.062 19.0318ZM10.3046 16.5297C10.1471 16.9064 9.99608 17.2808 9.85313 17.6514L10.7861 18.0112C10.9254 17.6502 11.0728 17.2846 11.2272 16.9155L10.3046 16.5297ZM10.2625 18.328C10.6504 18.3726 11.0453 18.4121 11.4448 18.4471L11.532 17.4509C11.1405 17.4166 10.7547 17.378 10.3768 17.3346L10.2625 18.328ZM11.9154 17.6888C11.7832 17.4719 11.6535 17.2555 11.527 17.04L10.6646 17.5463C10.7942 17.767 10.9268 17.9881 11.0614 18.2091L11.9154 17.6888ZM11.5271 17.0403C11.4171 16.8525 11.3081 16.6641 11.2003 16.4749L10.3316 16.9702C10.4414 17.1629 10.5524 17.3548 10.6645 17.546L11.5271 17.0403ZM11.4048 13.186C11.5729 12.8532 11.7467 12.5188 11.9256 12.1842L11.0438 11.7126C10.8612 12.054 10.6838 12.3954 10.5122 12.7352L11.4048 13.186ZM11.4564 11.4492C10.9216 11.4796 10.4086 11.5184 9.91718 11.5645L10.0104 12.5601C10.4896 12.5152 10.9904 12.4773 11.5131 12.4476L11.4564 11.4492ZM9.50735 12.2664C9.72904 12.7622 9.96592 13.265 10.2173 13.7727L11.1134 13.329C10.8677 12.8327 10.6364 12.3417 10.4202 11.8582L9.50735 12.2664ZM11.1146 13.7703C11.21 13.5751 11.3068 13.3802 11.4049 13.1859L10.5121 12.7354C10.4122 12.9334 10.3134 13.1321 10.2161 13.3313L11.1146 13.7703ZM14.2795 10.9686C14.5381 10.9686 14.799 10.9705 15.0612 10.9745L15.0765 9.97464C14.8091 9.97054 14.5431 9.96855 14.2795 9.96855V10.9686ZM15.0612 10.9745C15.3146 10.9784 15.5672 10.9845 15.8193 10.9922L15.8497 9.99263C15.5935 9.98485 15.3358 9.97861 15.0765 9.97464L15.0612 10.9745ZM16.2466 10.2092C15.9001 9.70501 15.5551 9.22501 15.2135 8.76982L14.4136 9.37002C14.7467 9.81387 15.0836 10.2826 15.4224 10.7756L16.2466 10.2092ZM14.3958 8.79525C14.0998 9.24553 13.8023 9.71802 13.5049 10.2119L14.3615 10.7278C14.6523 10.2449 14.9428 9.78354 15.2314 9.34459L14.3958 8.79525ZM13.9362 10.9698C14.0515 10.9691 14.1657 10.9686 14.2795 10.9686V9.96855C14.1627 9.96855 14.046 9.96912 13.9302 9.96982L13.9362 10.9698ZM19.6942 13.4721C19.8518 13.0953 20.0028 12.7209 20.1457 12.3504L19.2127 11.9905C19.0735 12.3515 18.926 12.7171 18.7716 13.0862L19.6942 13.4721ZM19.7363 11.6737C19.3484 11.6291 18.9536 11.5896 18.5541 11.5547L18.4668 12.5508C18.8584 12.5851 19.2442 12.6237 19.6221 12.6671L19.7363 11.6737ZM18.0834 12.3129C18.2156 12.5298 18.3453 12.7462 18.4716 12.9615L19.3342 12.4556C19.2047 12.2348 19.0721 12.0136 18.9374 11.7926L18.0834 12.3129ZM18.4719 12.9621C18.582 13.1492 18.6907 13.3375 18.7984 13.5266L19.6674 13.0317C19.5577 12.839 19.4465 12.6467 19.3339 12.4551L18.4719 12.9621ZM9.44717 11.2163C10.3784 11.1173 11.3397 11.0485 12.3069 11.009L12.266 10.0098C11.2788 10.0502 10.2959 10.1205 9.34155 10.2218L9.44717 11.2163ZM12.7191 10.76C13.2296 9.8787 13.7686 9.01306 14.3229 8.19093L13.4938 7.63188C12.9258 8.47431 12.3748 9.35935 11.8538 10.2588L12.7191 10.76ZM14.2958 7.59538C13.1569 6.19901 12.0734 5.09626 11.1281 4.33741C10.6556 3.95816 10.2085 3.6574 9.79842 3.44934C9.39526 3.24481 8.99129 3.11101 8.61524 3.11101V4.11101C8.76795 4.11101 9.00891 4.17013 9.34599 4.34114C9.67613 4.50863 10.0646 4.76602 10.5021 5.11724C11.3768 5.81934 12.4111 6.86678 13.5209 8.22743L14.2958 7.59538ZM8.61524 3.11101C8.44556 3.11101 8.26306 3.14204 8.0941 3.24099L8.59947 4.10389C8.59319 4.10757 8.5877 4.11008 8.58356 4.11168C8.57948 4.11326 8.57734 4.11372 8.57775 4.11363C8.57893 4.11336 8.59011 4.11101 8.61524 4.11101V3.11101ZM8.09357 3.2413C7.87908 3.36728 7.73583 3.58271 7.64297 3.81118C7.54685 4.04767 7.48484 4.34511 7.46203 4.7045C7.41644 5.42288 7.52378 6.4509 7.90611 7.88068L8.87217 7.62235C8.50582 6.25233 8.42374 5.33962 8.46002 4.76783C8.47816 4.48212 8.52491 4.29711 8.56937 4.18771C8.61709 4.0703 8.64625 4.07642 8.6 4.10358L8.09357 3.2413ZM7.90611 7.88067C8.15909 8.82673 8.50579 9.84449 8.93015 10.9048L9.85856 10.5333C9.44588 9.50211 9.1129 8.52262 8.87217 7.62235L7.90611 7.88067ZM9.36225 17.8161C9.66651 17.0084 10.0044 16.1871 10.3701 15.3657L9.45652 14.959C9.08331 15.7974 8.73791 16.6368 8.42644 17.4636L9.36225 17.8161ZM10.3563 14.9305C9.84713 13.9577 9.37893 12.9829 8.96503 12.0296L8.04776 12.4279C8.47204 13.4051 8.95084 14.4017 9.47032 15.3942L10.3563 14.9305ZM8.43937 11.7333C6.20765 12.0352 4.5033 12.4948 3.34135 12.9898C2.76252 13.2364 2.29823 13.5002 1.96867 13.7722C1.66208 14.0253 1.37011 14.3703 1.36364 14.7917L2.36353 14.8071C2.36295 14.8448 2.35358 14.7512 2.60525 14.5434C2.83395 14.3546 3.20358 14.1355 3.73328 13.9098C4.78839 13.4603 6.39956 13.0183 8.57342 12.7243L8.43937 11.7333ZM1.36365 14.7917C1.3598 15.0404 1.4694 15.2748 1.61638 15.4729C1.7685 15.6779 1.99043 15.8854 2.28565 16.0916C2.87577 16.5038 3.80991 16.9462 5.23022 17.3624L5.51144 16.4028C4.15047 16.004 3.32797 15.5999 2.85828 15.2718C2.6236 15.1079 2.48983 14.9718 2.41948 14.877C2.34399 14.7753 2.36435 14.7535 2.36353 14.8071L1.36365 14.7917ZM5.23027 17.3624C6.29975 17.6757 7.51211 17.9336 8.81851 18.1341L8.97018 17.1456C7.69726 16.9503 6.52949 16.701 5.51139 16.4028L5.23027 17.3624ZM14.7539 21.8338C14.0946 20.9789 13.4509 20.0727 12.8426 19.1508L12.0079 19.7015C12.6286 20.6422 13.2865 21.5686 13.9621 22.4445L14.7539 21.8338ZM12.4578 18.9272C11.575 18.8697 10.7157 18.7894 9.88845 18.6873L9.76593 19.6797C10.6133 19.7844 11.4918 19.8664 12.3928 19.9251L12.4578 18.9272ZM9.35427 19.0212C8.92534 20.2709 8.59085 21.4641 8.37197 22.5565L9.35248 22.7529C9.56082 21.7132 9.88217 20.5635 10.3001 19.3458L9.35427 19.0212ZM8.37198 22.5564C8.08104 24.0076 8.0391 25.0404 8.13016 25.7544C8.17571 26.1116 8.25647 26.4045 8.36742 26.6344C8.47462 26.8565 8.63127 27.0624 8.85331 27.1745L9.30397 26.2818C9.35182 26.306 9.3231 26.3139 9.26804 26.1998C9.21673 26.0935 9.15834 25.9118 9.12212 25.6279C9.04965 25.0596 9.07369 24.1435 9.35247 22.753L8.37198 22.5564ZM8.853 27.1744C9.00069 27.2491 9.15456 27.2742 9.29912 27.2742V26.2742C9.28416 26.2742 9.27911 26.2729 9.28128 26.2733C9.28405 26.2739 9.29268 26.2761 9.30429 26.282L8.853 27.1744ZM9.29899 27.2742C9.68034 27.2743 10.0819 27.1216 10.4716 26.8988C10.8699 26.6711 11.3017 26.3435 11.755 25.9332C12.6623 25.112 13.6949 23.9235 14.7645 22.4303L13.9515 21.848C12.9089 23.3035 11.9227 24.4327 11.0839 25.1918C10.6642 25.5718 10.2912 25.8501 9.97528 26.0307C9.65067 26.2162 9.42858 26.2742 9.29926 26.2742L9.29899 27.2742ZM20.5518 18.7853C19.6206 18.8842 18.6593 18.9531 17.6921 18.9926L17.733 19.9918C18.7201 19.9514 19.7031 19.8811 20.6574 19.7797L20.5518 18.7853ZM17.2799 19.2416C16.7694 20.1228 16.2303 20.9885 15.676 21.8107L16.5052 22.3697C17.0732 21.5273 17.6242 20.6421 18.1452 19.7429L17.2799 19.2416ZM15.7031 22.4062C16.8421 23.8026 17.9255 24.9053 18.8709 25.6642C19.3433 26.0434 19.7904 26.3442 20.2005 26.5523C20.6037 26.7568 21.0076 26.8907 21.3837 26.8907L21.3838 25.8907C21.2311 25.8907 20.9901 25.8315 20.653 25.6605C20.3229 25.493 19.9344 25.2356 19.4969 24.8844C18.6222 24.1822 17.5879 23.1348 16.4781 21.7742L15.7031 22.4062ZM21.3837 26.8907C21.5533 26.8907 21.7358 26.8597 21.9047 26.7607L21.3994 25.8978C21.4056 25.8941 21.4111 25.8916 21.4153 25.89C21.4193 25.8885 21.4215 25.888 21.4211 25.8881C21.4199 25.8884 21.4087 25.8907 21.3837 25.8907V26.8907ZM21.9053 26.7604C22.1197 26.6344 22.263 26.419 22.3559 26.1905C22.452 25.9541 22.514 25.6566 22.5368 25.2972C22.5824 24.5788 22.475 23.5508 22.0927 22.121L21.1267 22.3794C21.493 23.7494 21.5751 24.6621 21.5388 25.2339C21.5207 25.5196 21.4739 25.7046 21.4295 25.814C21.3817 25.9314 21.3526 25.9253 21.3988 25.8981L21.9053 26.7604ZM22.0927 22.1211C21.8399 21.175 21.493 20.1571 21.0688 19.0968L20.1404 19.4683C20.553 20.4995 20.8861 21.4791 21.1266 22.3793L22.0927 22.1211ZM28.6352 15.2099C28.639 14.9612 28.5294 14.7268 28.3824 14.5287C28.2303 14.3237 28.0084 14.1161 27.7132 13.9099C27.1231 13.4977 26.1889 13.0554 24.7686 12.6392L24.4874 13.5988C25.8484 13.9976 26.6709 14.4017 27.1405 14.7298C27.3752 14.8937 27.509 15.0297 27.5793 15.1246C27.6548 15.2263 27.6345 15.248 27.6353 15.1945L28.6352 15.2099ZM24.7686 12.6391C23.6993 12.3259 22.4869 12.0678 21.1804 11.8675L21.0288 12.856C22.3017 13.0511 23.4695 13.3006 24.4874 13.5988L24.7686 12.6391ZM20.6367 12.1855C20.3325 12.9932 19.9945 13.8145 19.6289 14.6359L20.5424 15.0426C20.9157 14.2042 21.2611 13.3648 21.5725 12.538L20.6367 12.1855ZM19.6427 15.0711C20.1518 16.0439 20.62 17.0187 21.0339 17.9719L21.9512 17.5737C21.5269 16.5965 21.0481 15.5998 20.5287 14.6074L19.6427 15.0711ZM21.5596 18.2683C23.7912 17.9665 25.4956 17.5069 26.6575 17.0119C27.2363 16.7653 27.7006 16.5015 28.0302 16.2294C28.3368 15.9763 28.6287 15.6313 28.6352 15.2099L27.6353 15.1945C27.6359 15.1569 27.6452 15.2505 27.3936 15.4583C27.1649 15.647 26.7953 15.8662 26.2656 16.0919C25.2105 16.5414 23.5993 16.9833 21.4256 17.2773L21.5596 18.2683Z" fill="#203864" mask="url(#path-1-inside-1_622_7138)"/>
</g>
<defs>
<clipPath id="clip0_622_7138">
<rect width="29.0769" height="29.0769" fill="white" transform="translate(0.460938 0.461426)"/>
</clipPath>
</defs>
</svg>
