<svg width="18" height="18" viewBox="0 0 18 18" fill="none" xmlns="http://www.w3.org/2000/svg">
<path d="M11.4444 16.6877H6.55438C2.87188 16.6877 1.29688 15.1127 1.29688 11.4302V11.3327C1.29688 8.0027 2.60938 6.3977 5.54938 6.1202C5.84938 6.0977 6.13438 6.3227 6.16438 6.6302C6.19438 6.9377 5.96938 7.2152 5.65438 7.2452C3.29938 7.4627 2.42188 8.5727 2.42188 11.3402V11.4377C2.42188 14.4902 3.50187 15.5702 6.55438 15.5702H11.4444C14.4969 15.5702 15.5769 14.4902 15.5769 11.4377V11.3402C15.5769 8.5577 14.6844 7.4477 12.2844 7.2452C11.9769 7.2152 11.7444 6.9452 11.7744 6.6377C11.8044 6.3302 12.0669 6.0977 12.3819 6.1277C15.3669 6.3827 16.7019 7.9952 16.7019 11.3477V11.4452C16.7019 15.1127 15.1269 16.6877 11.4444 16.6877Z" fill="#A0A3BD"/>
<path d="M9 11.8123C8.6925 11.8123 8.4375 11.5573 8.4375 11.2498V2.71484C8.4375 2.40734 8.6925 2.15234 9 2.15234C9.3075 2.15234 9.5625 2.40734 9.5625 2.71484V11.2498C9.5625 11.5573 9.3075 11.8123 9 11.8123Z" fill="#A0A3BD"/>
<path d="M11.5114 4.95008C11.3689 4.95008 11.2264 4.89758 11.1139 4.78508L8.99891 2.67008L6.88391 4.78508C6.66641 5.00258 6.30641 5.00258 6.08891 4.78508C5.87141 4.56758 5.87141 4.20758 6.08891 3.99008L8.60141 1.47758C8.81891 1.26008 9.17891 1.26008 9.39641 1.47758L11.9089 3.99008C12.1264 4.20758 12.1264 4.56758 11.9089 4.78508C11.8039 4.89758 11.6539 4.95008 11.5114 4.95008Z" fill="#A0A3BD"/>
</svg>
