<svg width="42" height="42" viewBox="0 0 42 42" fill="none" xmlns="http://www.w3.org/2000/svg">
<circle cx="21" cy="21" r="20.5" fill="white" stroke="#36A3A4"/>
<path d="M12 26.25V30H15.75L26.81 18.94L23.06 15.19L12 26.25ZM29.71 16.04C29.8027 15.9475 29.8762 15.8376 29.9264 15.7166C29.9766 15.5957 30.0024 15.466 30.0024 15.335C30.0024 15.204 29.9766 15.0744 29.9264 14.9534C29.8762 14.8324 29.8027 14.7225 29.71 14.63L27.37 12.29C27.2775 12.1973 27.1676 12.1238 27.0466 12.0736C26.9257 12.0234 26.796 11.9976 26.665 11.9976C26.534 11.9976 26.4043 12.0234 26.2834 12.0736C26.1624 12.1238 26.0525 12.1973 25.96 12.29L24.13 14.12L27.88 17.87L29.71 16.04Z" fill="#9DA8B5"/>
</svg>
