<svg width="42" height="42" viewBox="0 0 42 42" fill="none" xmlns="http://www.w3.org/2000/svg">
<circle cx="21" cy="21" r="20.5" fill="white" stroke="#FF9D93"/>
<path d="M21.8986 20.9966L28.6522 14.2364C28.7713 14.1167 28.8382 13.9546 28.838 13.7857C28.8379 13.6168 28.7709 13.4548 28.6516 13.3352C28.4128 13.0976 27.9922 13.0964 27.751 13.3364L20.9992 20.0966L14.245 13.3346C14.005 13.0976 13.5844 13.0988 13.3456 13.3358C13.2863 13.3949 13.2394 13.4651 13.2075 13.5425C13.1757 13.6199 13.1596 13.7028 13.1602 13.7864C13.1602 13.9568 13.2262 14.1164 13.3456 14.2346L20.0992 20.996L13.3462 27.758C13.227 27.878 13.1603 28.0403 13.1606 28.2093C13.1609 28.3784 13.2283 28.5404 13.348 28.6598C13.4638 28.7744 13.6276 28.8404 13.7968 28.8404H13.8004C13.9702 28.8398 14.134 28.7732 14.2474 28.6574L20.9992 21.8972L27.7534 28.6592C27.8728 28.778 28.0324 28.844 28.2016 28.844C28.2852 28.8443 28.3681 28.828 28.4455 28.7961C28.5228 28.7642 28.5931 28.7173 28.6522 28.6581C28.7114 28.599 28.7583 28.5287 28.7902 28.4513C28.8221 28.374 28.8384 28.2911 28.8382 28.2074C28.8382 28.0376 28.7722 27.8774 28.6522 27.7592L21.8986 20.9966Z" fill="#9DA8B5"/>
</svg>
