<svg width="52" height="52" viewBox="0 0 52 52" fill="none" xmlns="http://www.w3.org/2000/svg">
<circle cx="26" cy="26" r="26" fill="#D5FFFF"/>
<path d="M34.5312 29.325L34.5313 29.325L34.5366 29.3177C35.8989 27.4314 38.106 26.375 40.4312 26.375C40.665 26.375 40.8455 26.473 40.988 26.6591C41.0121 26.7544 41.0225 26.8575 41.0155 26.9476C41.0075 27.0519 40.9812 27.091 40.9778 27.0961C40.9773 27.0968 40.9773 27.0969 40.9777 27.0964L40.9291 27.145L40.8955 27.2049L37.858 32.6049L37.8579 32.6049L37.856 32.6085C36.1423 35.7145 32.9332 37.6375 29.4062 37.6375C24.2568 37.6375 19.2206 39.1225 14.8691 41.9783C14.6332 42.0954 14.5248 42.1375 14.4438 42.1375H14.4431H14.4424H14.4418H14.4411H14.4405H14.4398H14.4392H14.4386H14.4379H14.4373H14.4367H14.436H14.4354H14.4348H14.4341H14.4335H14.4329H14.4323H14.4317H14.4311H14.4305H14.4299H14.4292H14.4286H14.428H14.4275H14.4269H14.4263H14.4257H14.4251H14.4245H14.4239H14.4233H14.4228H14.4222H14.4216H14.421H14.4205H14.4199H14.4193H14.4188H14.4182H14.4177H14.4171H14.4165H14.416H14.4154H14.4149H14.4143H14.4138H14.4133H14.4127H14.4122H14.4116H14.4111H14.4106H14.41H14.4095H14.409H14.4085H14.408H14.4074H14.4069H14.4064H14.4059H14.4054H14.4049H14.4044H14.4038H14.4033H14.4028H14.4023H14.4018H14.4013H14.4008H14.4004H14.3999H14.3994H14.3989H14.3984H14.3979H14.3974H14.3969H14.3965H14.396H14.3955H14.395H14.3946H14.3941H14.3936H14.3932H14.3927H14.3922H14.3918H14.3913H14.3909H14.3904H14.3899H14.3895H14.389H14.3886H14.3881H14.3877H14.3872H14.3868H14.3863H14.3859H14.3855H14.385H14.3846H14.3842H14.3837H14.3833H14.3829H14.3824H14.382H14.3816H14.3811H14.3807H14.3803H14.3799H14.3794H14.379H14.3786H14.3782H14.3778H14.3774H14.377H14.3765H14.3761H14.3757H14.3753H14.3749H14.3745H14.3741H14.3737H14.3733H14.3729H14.3725H14.3721H14.3717H14.3713H14.3709H14.3705H14.3701H14.3697H14.3693H14.369H14.3686H14.3682H14.3678H14.3674H14.367H14.3666H14.3663H14.3659H14.3655H14.3651H14.3648H14.3644H14.364H14.3636H14.3633H14.3629H14.3625H14.3621H14.3618H14.3614H14.361H14.3607H14.3603H14.3599H14.3596H14.3592H14.3588H14.3585H14.3581H14.3578H14.3574H14.357H14.3567H14.3563H14.356H14.3556H14.3553H14.3549H14.3545H14.3542H14.3538H14.3535H14.3531H14.3528H14.3524H14.3521H14.3517H14.3514H14.351H14.3507H14.3503H14.35H14.3497H14.3493H14.349H14.3486H14.3483H14.3479H14.3476H14.3473H14.3469H14.3466H14.3462H14.3459H14.3456H14.3452C14.28 42.0994 14.2099 42.0534 14.146 42.0038C14.0979 41.9663 14.0589 41.9311 14.0302 41.9004C14.001 41.8692 13.9915 41.8523 13.991 41.8514L13.991 41.8514L13.9824 41.8342L13.9725 41.8178L10.5975 36.1928L10.5914 36.1825L10.5848 36.1726C10.4717 36.0031 10.4717 35.7719 10.5848 35.6023L10.5848 35.6024L10.5893 35.5954L13.6268 30.8704L13.6269 30.8704L13.6321 30.862C15.3316 28.1004 18.4234 26.375 22.3187 26.375H26.9312H27.4312V25.875V23.5125V23.0725L26.9948 23.0166C22.8461 22.4847 19.5563 18.9752 19.5563 14.625C19.5563 14.4011 19.6287 14.2534 19.7192 14.1629C19.8097 14.0724 19.9574 14 20.1813 14C22.7221 14 24.9582 15.1639 26.5665 16.8795L27.4312 17.8019V16.5375V10.125C27.4312 9.90112 27.5037 9.75341 27.5942 9.66293C27.6847 9.57244 27.8324 9.5 28.0562 9.5C28.2801 9.5 28.4278 9.57244 28.5183 9.66293C28.6088 9.75341 28.6812 9.90112 28.6812 10.125V13.1625V14.4269L29.546 13.5045C31.1543 11.7889 33.3904 10.625 35.9312 10.625C36.1551 10.625 36.3028 10.6974 36.3933 10.7879C36.4838 10.8784 36.5562 11.0261 36.5562 11.25C36.5562 15.4916 33.2625 19.1102 29.1177 19.6416L28.6812 19.6975V20.1375V25.875V26.375H29.1812C29.2999 26.375 29.4604 26.4394 29.6011 26.5801C29.7419 26.7209 29.8062 26.8814 29.8062 27V27.1125C29.8062 28.5945 28.3864 29.875 26.8188 29.875H24.6813C24.2301 29.875 23.8153 30.0276 23.5121 30.3308C23.2088 30.6341 23.0563 31.0489 23.0563 31.5C23.0563 31.9511 23.2088 32.3659 23.5121 32.6692C23.8153 32.9724 24.2301 33.125 24.6813 33.125H28.0562C30.0981 33.125 32.157 32.2856 33.5004 30.698L33.5099 30.6868L33.5187 30.675L34.5312 29.325Z" stroke="#008081"/>
</svg>
