<svg width="52" height="52" viewBox="0 0 52 52" fill="none" xmlns="http://www.w3.org/2000/svg">
<circle cx="26" cy="26" r="26" fill="#FFCDC8"/>
<path d="M21.2431 30.1783L19.6049 27.341L17.9668 24.5037C17.7174 24.0717 17.0939 24.0717 16.8445 24.5037L15.2064 27.341L13.5682 30.1783C13.3188 30.6103 13.6306 31.1503 14.1295 31.1503H17.4057H20.6819C21.1807 31.1503 21.4925 30.6103 21.2431 30.1783Z" fill="#FF5443"/>
<path d="M23.8956 24.9712L22.3645 22.3191C22.115 21.8871 21.4915 21.8871 21.242 22.3191L19.7109 24.9712H23.8956Z" fill="#FF5443"/>
<path d="M24.6337 26.2487L24.4155 25.8711H19.7949L22.0219 29.7281C22.2782 30.1713 22.2998 30.6933 22.0874 31.1501H26.3411C26.8401 31.1501 27.1518 30.6101 26.9024 30.1781L24.6337 26.2487Z" fill="#FF5443"/>
<path d="M15.2745 24.3537C16.2654 24.3537 17.0686 23.5505 17.0686 22.5597C17.0686 21.5689 16.2654 20.7656 15.2745 20.7656C14.2837 20.7656 13.4805 21.5689 13.4805 22.5597C13.4805 23.5505 14.2837 24.3537 15.2745 24.3537ZM15.2745 21.6656C15.7675 21.6656 16.1686 22.0667 16.1686 22.5597C16.1686 23.0527 15.7675 23.4537 15.2745 23.4537C14.7815 23.4537 14.3805 23.0527 14.3805 22.5597C14.3805 22.0667 14.7815 21.6656 15.2745 21.6656Z" fill="#FF5443"/>
<path d="M31.6759 24.41C31.9521 24.3652 32.1396 24.105 32.0948 23.8289C32.05 23.5528 31.7898 23.3653 31.5137 23.4101C31.2375 23.4549 31.05 23.7151 31.0948 23.9912C31.1396 24.2673 31.3998 24.4549 31.6759 24.41Z" fill="#FF5443"/>
<path d="M37.4404 20.7656H30.3515C29.755 20.7656 29.2715 21.2492 29.2715 21.8456V30.0701C29.2715 30.6666 29.755 31.1501 30.3515 31.1501H37.4403C38.0368 31.1501 38.5203 30.6666 38.5203 30.0701V21.8456C38.5204 21.2492 38.0368 20.7656 37.4404 20.7656ZM34.5391 24.7043C34.672 24.4739 35.0042 24.4739 35.1374 24.7043L35.9535 26.1184H33.9757L33.849 25.8991L34.5391 24.7043ZM30.1885 23.9095C30.1885 23.134 30.8194 22.503 31.595 22.503C32.3706 22.503 33.0015 23.134 33.0015 23.9095C33.0015 24.6851 32.3706 25.3161 31.595 25.3161C30.8194 25.3161 30.1885 24.6851 30.1885 23.9095ZM34.2397 29.4128H32.493H30.7462C30.4803 29.4128 30.314 29.1249 30.447 28.8945L31.3204 27.3817L32.1938 25.869C32.3268 25.6387 32.6593 25.6387 32.7922 25.869L33.6656 27.3817L34.539 28.8945C34.6719 29.1248 34.5057 29.4128 34.2397 29.4128ZM37.2574 29.4127H35.4362C35.5287 29.0916 35.4894 28.7406 35.3184 28.4443L34.4951 27.0184H35.9535C36.1144 27.0184 36.2689 26.9755 36.4035 26.8978L37.5566 28.8943C37.6894 29.1247 37.5235 29.4127 37.2574 29.4127Z" fill="#FF5443"/>
<path d="M18.0815 18.3702C18.3292 18.3657 18.523 18.1532 18.523 17.9054V14.9783C18.523 14.6303 18.8051 14.3483 19.153 14.3483H31.8586C32.2066 14.3483 32.4886 14.6303 32.4886 14.9783V16.2274C32.4886 16.3869 32.3594 16.5161 32.1999 16.5161C32.0077 16.5161 31.8877 16.7241 31.9837 16.8905L32.3531 17.5303L32.7225 18.1701C32.8186 18.3365 33.0587 18.3365 33.1548 18.1701L33.5242 17.5303L33.8936 16.8905C33.9897 16.7241 33.8696 16.5161 33.6774 16.5161C33.5179 16.5161 33.3887 16.3868 33.3887 16.2273V14.9782C33.3887 14.1333 32.7037 13.4482 31.8587 13.4482H19.153C18.3081 13.4482 17.623 14.1333 17.623 14.9782V17.9203C17.623 18.1717 17.8291 18.3749 18.0815 18.3702Z" fill="#FF5443"/>
<path d="M33.9181 32.4122C33.6704 32.4167 33.4766 32.6293 33.4766 32.8771V37.0222C33.4766 37.3702 33.1945 37.6522 32.8466 37.6522H20.1411C19.7931 37.6522 19.5111 37.3702 19.5111 37.0222V34.5324C19.5111 34.373 19.6403 34.2437 19.7998 34.2437C19.9919 34.2437 20.112 34.0357 20.016 33.8693L19.6466 33.2295L19.2772 32.5897C19.1811 32.4233 18.9409 32.4233 18.8449 32.5897L18.4755 33.2295L18.1061 33.8693C18.01 34.0357 18.1301 34.2437 18.3223 34.2437C18.4817 34.2437 18.6111 34.373 18.6111 34.5325V37.0223C18.6111 37.8673 19.2961 38.5523 20.1411 38.5523H32.8466C33.6916 38.5523 34.3766 37.8673 34.3766 37.0223V32.8621C34.3766 32.6108 34.1705 32.4075 33.9181 32.4122Z" fill="#FF5443"/>
<path d="M21.6707 18.2945H23.0355C23.284 18.2945 23.4855 18.093 23.4855 17.8445C23.4855 17.596 23.284 17.3945 23.0355 17.3945H21.6707C21.4222 17.3945 21.2207 17.596 21.2207 17.8445C21.2207 18.093 21.4222 18.2945 21.6707 18.2945Z" fill="#FF5443"/>
<path d="M30.7801 17.8445C30.7801 17.596 30.5786 17.3945 30.3301 17.3945H25.2137C24.9652 17.3945 24.7637 17.596 24.7637 17.8445C24.7637 18.093 24.9652 18.2945 25.2137 18.2945H30.3301C30.5786 18.2945 30.7801 18.093 30.7801 17.8445Z" fill="#FF5443"/>
<path d="M21.6707 33.0215C21.4222 33.0215 21.2207 33.2229 21.2207 33.4715C21.2207 33.72 21.4222 33.9215 21.6707 33.9215H23.0355C23.284 33.9215 23.4855 33.72 23.4855 33.4715C23.4855 33.2229 23.284 33.0215 23.0355 33.0215H21.6707Z" fill="#FF5443"/>
<path d="M24.7637 33.4715C24.7637 33.72 24.9652 33.9215 25.2137 33.9215H30.3301C30.5786 33.9215 30.7801 33.72 30.7801 33.4715C30.7801 33.223 30.5786 33.0215 30.3301 33.0215H25.2137C24.9651 33.0215 24.7637 33.223 24.7637 33.4715Z" fill="#FF5443"/>
</svg>
