<svg width="23" height="23" viewBox="0 0 23 23" fill="none" xmlns="http://www.w3.org/2000/svg">
<path d="M21.1484 11.5122C21.1503 12.8887 20.867 14.2506 20.3164 15.5122M11.1484 21.5122C12.4619 21.5141 13.7628 21.2562 14.9763 20.7536C16.1898 20.2509 17.292 19.5133 18.2194 18.5832M1.14845 11.5122C1.14661 10.1987 1.40443 8.89783 1.9071 7.68433C2.40976 6.47083 3.14735 5.36867 4.07745 4.44122M11.1484 1.51222C9.77196 1.51034 8.41002 1.79362 7.14845 2.34422M7.14845 20.6802C4.83655 19.6697 2.991 17.8241 1.98045 15.5122M14.9804 2.51222C17.2923 3.52277 19.1379 5.36832 20.1484 7.68022" stroke="#FFC300" stroke-width="2" stroke-linecap="round" stroke-linejoin="round"/>
<path fill-rule="evenodd" clip-rule="evenodd" d="M6.69281 11.6073C6.69248 10.4472 7.13531 9.33072 7.93078 8.48623C8.72624 7.64174 9.81425 7.133 10.9723 7.06404C12.1304 6.99507 13.2711 7.37109 14.1612 8.11521C15.0513 8.85932 15.6235 9.91533 15.7608 11.0673C13.4898 11.1183 11.8188 11.6243 10.6178 12.3513C11.7028 12.7293 12.7878 13.3693 13.6248 14.4103C13.7495 14.5653 13.8074 14.7635 13.786 14.9613C13.7645 15.159 13.6653 15.3402 13.5103 15.4648C13.3553 15.5895 13.1571 15.6474 12.9593 15.626C12.7616 15.6045 12.5805 15.5053 12.4558 15.3503C11.6658 14.3693 10.5488 13.8263 9.40681 13.5613C8.63367 13.3851 7.83919 13.3212 7.04781 13.3713C6.81285 12.8129 6.69214 12.2131 6.69281 11.6073ZM11.2428 5.24731C10.4076 5.24731 9.58058 5.41182 8.80895 5.73144C8.03732 6.05106 7.33619 6.51953 6.74561 7.11012C6.15503 7.7007 5.68656 8.40182 5.36694 9.17345C5.04732 9.94508 4.88281 10.7721 4.88281 11.6073C4.88281 12.4425 5.04732 13.2696 5.36694 14.0412C5.68656 14.8128 6.15503 15.5139 6.74561 16.1045C7.33619 16.6951 8.03732 17.1636 8.80895 17.4832C9.58058 17.8028 10.4076 17.9673 11.2428 17.9673C12.9296 17.9673 14.5473 17.2972 15.74 16.1045C16.9327 14.9118 17.6028 13.2941 17.6028 11.6073C17.6028 9.92054 16.9327 8.30285 15.74 7.11012C14.5473 5.91738 12.9296 5.24731 11.2428 5.24731ZM9.33381 8.33431C9.10981 8.33431 8.78681 8.39731 8.50381 8.60131C8.19381 8.82531 7.96981 9.19331 7.96981 9.69831C7.96981 10.2033 8.19281 10.5713 8.50381 10.7953C8.78681 10.9993 9.10981 11.0623 9.33381 11.0623C9.55781 11.0623 9.88081 10.9993 10.1638 10.7953C10.4748 10.5713 10.6978 10.2033 10.6978 9.69831C10.6978 9.19331 10.4748 8.82531 10.1638 8.60131C9.92083 8.4298 9.63123 8.33663 9.33381 8.33431Z" fill="#FFC300"/>
</svg>
