<svg width="1235" height="245" viewBox="0 0 1235 245" fill="none" xmlns="http://www.w3.org/2000/svg">
<g clip-path="url(#clip0_820_996)">
<rect width="1235" height="245" rx="20" fill="#203864"/>
<path d="M51.5 151C45.1963 151 40 145.889 40 139.5C40 133.196 45.1111 128 51.5 128C57.8037 128 63 133.111 63 139.5C63 145.804 57.8889 151 51.5 151ZM51.5 128.767C45.537 128.767 40.7667 133.622 40.7667 139.5C40.7667 145.463 45.6222 150.233 51.5 150.233C57.463 150.233 62.2333 145.378 62.2333 139.5C62.3185 133.622 57.463 128.767 51.5 128.767Z" fill="#33528B"/>
<path d="M51.5004 145.974C47.9226 145.974 45.0264 143.078 45.0264 139.5C45.0264 135.922 47.9226 133.026 51.5004 133.026C55.0782 133.026 57.9745 135.922 57.9745 139.5C57.9745 143.078 55.0782 145.974 51.5004 145.974ZM51.5004 133.793C48.3486 133.793 45.793 136.348 45.793 139.5C45.793 142.652 48.3486 145.207 51.5004 145.207C54.6523 145.207 57.2079 142.652 57.2079 139.5C57.293 136.348 54.7375 133.793 51.5004 133.793Z" fill="#33528B"/>
<path d="M697.5 130C692.293 130 688 125.778 688 120.5C688 115.293 692.222 111 697.5 111C702.707 111 707 115.222 707 120.5C707 125.707 702.778 130 697.5 130ZM697.5 111.633C692.574 111.633 688.633 115.644 688.633 120.5C688.633 125.426 692.644 129.367 697.5 129.367C702.426 129.367 706.367 125.356 706.367 120.5C706.437 115.644 702.426 111.633 697.5 111.633Z" fill="#33528B"/>
<path d="M697.5 125.848C694.545 125.848 692.152 123.456 692.152 120.5C692.152 117.544 694.545 115.152 697.5 115.152C700.456 115.152 702.849 117.544 702.849 120.5C702.849 123.456 700.456 125.848 697.5 125.848ZM697.5 115.785C694.897 115.785 692.786 117.896 692.786 120.5C692.786 123.104 694.897 125.215 697.5 125.215C700.104 125.215 702.215 123.104 702.215 120.5C702.286 117.896 700.175 115.785 697.5 115.785Z" fill="#33528B"/>
<path d="M848.5 161C841.1 161 835 155 835 147.5C835 140.1 841 134 848.5 134C855.9 134 862 140 862 147.5C862 154.9 856 161 848.5 161ZM848.5 134.9C841.5 134.9 835.9 140.6 835.9 147.5C835.9 154.5 841.6 160.1 848.5 160.1C855.5 160.1 861.1 154.4 861.1 147.5C861.2 140.6 855.5 134.9 848.5 134.9Z" fill="#33528B"/>
<path d="M848.5 155.1C844.3 155.1 840.9 151.7 840.9 147.5C840.9 143.3 844.3 139.9 848.5 139.9C852.7 139.9 856.1 143.3 856.1 147.5C856.1 151.7 852.7 155.1 848.5 155.1ZM848.5 140.8C844.8 140.8 841.8 143.8 841.8 147.5C841.8 151.2 844.8 154.2 848.5 154.2C852.2 154.2 855.2 151.2 855.2 147.5C855.3 143.8 852.3 140.8 848.5 140.8Z" fill="#33528B"/>
<path d="M602.5 52C595.648 52 590 46.4444 590 39.5C590 32.6481 595.556 27 602.5 27C609.352 27 615 32.5556 615 39.5C615 46.3519 609.444 52 602.5 52ZM602.5 27.8333C596.019 27.8333 590.833 33.1111 590.833 39.5C590.833 45.9815 596.111 51.1667 602.5 51.1667C608.981 51.1667 614.167 45.8889 614.167 39.5C614.259 33.1111 608.981 27.8333 602.5 27.8333Z" fill="#33528B"/>
<path d="M602.5 46.537C598.611 46.537 595.463 43.3888 595.463 39.4999C595.463 35.611 598.611 32.4629 602.5 32.4629C606.389 32.4629 609.537 35.611 609.537 39.4999C609.537 43.3888 606.389 46.537 602.5 46.537ZM602.5 33.2962C599.074 33.2962 596.296 36.074 596.296 39.4999C596.296 42.9259 599.074 45.7036 602.5 45.7036C605.926 45.7036 608.704 42.9259 608.704 39.4999C608.796 36.074 606.018 33.2962 602.5 33.2962Z" fill="#33528B"/>
<path d="M418.5 131C412.744 131 408 126.333 408 120.5C408 114.744 412.667 110 418.5 110C424.256 110 429 114.667 429 120.5C429 126.256 424.333 131 418.5 131ZM418.5 110.7C413.056 110.7 408.7 115.133 408.7 120.5C408.7 125.944 413.133 130.3 418.5 130.3C423.944 130.3 428.3 125.867 428.3 120.5C428.378 115.133 423.944 110.7 418.5 110.7Z" fill="#33528B"/>
<path d="M418.5 126.411C415.233 126.411 412.589 123.767 412.589 120.5C412.589 117.233 415.233 114.589 418.5 114.589C421.767 114.589 424.411 117.233 424.411 120.5C424.411 123.767 421.767 126.411 418.5 126.411ZM418.5 115.289C415.622 115.289 413.289 117.622 413.289 120.5C413.289 123.378 415.622 125.711 418.5 125.711C421.378 125.711 423.711 123.378 423.711 120.5C423.789 117.622 421.456 115.289 418.5 115.289Z" fill="#33528B"/>
<path d="M1161.5 106C1156.29 106 1152 101.778 1152 96.5C1152 91.2926 1156.22 87 1161.5 87C1166.71 87 1171 91.2222 1171 96.5C1171 101.707 1166.78 106 1161.5 106ZM1161.5 87.6333C1156.57 87.6333 1152.63 91.6444 1152.63 96.5C1152.63 101.426 1156.64 105.367 1161.5 105.367C1166.43 105.367 1170.37 101.356 1170.37 96.5C1170.44 91.6444 1166.43 87.6333 1161.5 87.6333Z" fill="#33528B"/>
<path d="M1161.5 101.848C1158.54 101.848 1156.15 99.4556 1156.15 96.5C1156.15 93.5445 1158.54 91.1519 1161.5 91.1519C1164.46 91.1519 1166.85 93.5445 1166.85 96.5C1166.85 99.4556 1164.46 101.848 1161.5 101.848ZM1161.5 91.7852C1158.9 91.7852 1156.79 93.8963 1156.79 96.5C1156.79 99.1037 1158.9 101.215 1161.5 101.215C1164.1 101.215 1166.22 99.1037 1166.22 96.5C1166.29 93.8963 1164.17 91.7852 1161.5 91.7852Z" fill="#33528B"/>
<path d="M78.5 50C72.7445 50 68 45.3334 68 39.5C68 33.7445 72.6667 29 78.5 29C84.2556 29 89 33.6667 89 39.5C89 45.2556 84.3334 50 78.5 50ZM78.5 29.7C73.0556 29.7 68.7 34.1333 68.7 39.5C68.7 44.9445 73.1333 49.3 78.5 49.3C83.9445 49.3 88.3 44.8667 88.3 39.5C88.3778 34.1333 83.9445 29.7 78.5 29.7Z" fill="#33528B"/>
<path d="M78.5 45.4111C75.2333 45.4111 72.5889 42.7667 72.5889 39.5C72.5889 36.2333 75.2333 33.5889 78.5 33.5889C81.7666 33.5889 84.4111 36.2333 84.4111 39.5C84.4111 42.7667 81.7666 45.4111 78.5 45.4111ZM78.5 34.2889C75.6222 34.2889 73.2888 36.6222 73.2888 39.5C73.2888 42.3778 75.6222 44.7111 78.5 44.7111C81.3777 44.7111 83.7111 42.3778 83.7111 39.5C83.7889 36.6222 81.4555 34.2889 78.5 34.2889Z" fill="#33528B"/>
<path d="M755.5 77C749.744 77 745 72.3334 745 66.5C745 60.7445 749.667 56 755.5 56C761.256 56 766 60.6667 766 66.5C766 72.2556 761.333 77 755.5 77ZM755.5 56.7C750.056 56.7 745.7 61.1333 745.7 66.5C745.7 71.9445 750.133 76.3 755.5 76.3C760.944 76.3 765.3 71.8667 765.3 66.5C765.378 61.1333 760.944 56.7 755.5 56.7Z" fill="#33528B"/>
<path d="M755.5 72.4111C752.233 72.4111 749.589 69.7667 749.589 66.5C749.589 63.2333 752.233 60.5889 755.5 60.5889C758.767 60.5889 761.411 63.2333 761.411 66.5C761.411 69.7667 758.767 72.4111 755.5 72.4111ZM755.5 61.2889C752.622 61.2889 750.289 63.6222 750.289 66.5C750.289 69.3778 752.622 71.7111 755.5 71.7111C758.378 71.7111 760.711 69.3778 760.711 66.5C760.789 63.6222 758.456 61.2889 755.5 61.2889Z" fill="#33528B"/>
<path d="M835.5 266C828.1 266 822 260 822 252.5C822 245.1 828 239 835.5 239C842.9 239 849 245 849 252.5C849 259.9 843 266 835.5 266ZM835.5 239.9C828.5 239.9 822.9 245.6 822.9 252.5C822.9 259.5 828.6 265.1 835.5 265.1C842.5 265.1 848.1 259.4 848.1 252.5C848.2 245.6 842.5 239.9 835.5 239.9Z" fill="#33528B"/>
<path d="M835.5 260.1C831.3 260.1 827.9 256.7 827.9 252.5C827.9 248.3 831.3 244.9 835.5 244.9C839.7 244.9 843.1 248.3 843.1 252.5C843.1 256.7 839.7 260.1 835.5 260.1ZM835.5 245.8C831.8 245.8 828.8 248.8 828.8 252.5C828.8 256.2 831.8 259.2 835.5 259.2C839.2 259.2 842.2 256.2 842.2 252.5C842.3 248.8 839.3 245.8 835.5 245.8Z" fill="#33528B"/>
<path d="M423.5 58L410 44.5L423.5 31L437 44.5L423.5 58ZM413.121 44.5L423.5 54.879L433.879 44.5L423.5 34.121L413.121 44.5Z" fill="#33528B"/>
<path d="M1073.5 58L1060 44.5L1073.5 31L1087 44.5L1073.5 58ZM1063.12 44.5L1073.5 54.879L1083.88 44.5L1073.5 34.121L1063.12 44.5Z" fill="#33528B"/>
<path d="M224.5 70L212 57.5L224.5 45L237 57.5L224.5 70ZM214.89 57.5L224.5 67.1102L234.11 57.5L224.5 47.8898L214.89 57.5Z" fill="#33528B"/>
<path d="M874.5 70L862 57.5L874.5 45L887 57.5L874.5 70ZM864.89 57.5L874.5 67.1102L884.11 57.5L874.5 47.8898L864.89 57.5Z" fill="#33528B"/>
<path d="M386.5 255L372 240.5L386.5 226L401 240.5L386.5 255ZM375.352 240.5L386.5 251.648L397.648 240.5L386.5 229.352L375.352 240.5Z" fill="#33528B"/>
<path d="M1174.6 239.2L1162 226.6L1174.6 214L1187.2 226.6L1174.6 239.2ZM1164.91 226.6L1174.6 236.287L1184.29 226.6L1174.6 216.913L1164.91 226.6Z" fill="#33528B"/>
<path d="M701.5 252L690 240.5L701.5 229L713 240.5L701.5 252ZM692.659 240.5L701.5 249.341L710.341 240.5L701.5 231.659L692.659 240.5Z" fill="#33528B"/>
<path d="M172 225C173.813 223.187 173.813 220.248 172 218.436C170.187 216.623 167.248 216.623 165.436 218.436C163.623 220.248 163.623 223.187 165.436 225C167.248 226.813 170.187 226.813 172 225Z" fill="#33528B" stroke="#143165" stroke-width="1.7071" stroke-miterlimit="10"/>
<path d="M535 213C537.365 210.635 537.365 206.801 535 204.436C532.635 202.071 528.801 202.071 526.436 204.436C524.071 206.801 524.071 210.635 526.436 213C528.801 215.365 532.635 215.365 535 213Z" fill="#33528B" stroke="#143165" stroke-width="1.7071" stroke-miterlimit="10"/>
<path d="M790.847 188.847C793.212 186.482 793.212 182.647 790.847 180.282C788.482 177.917 784.647 177.917 782.282 180.282C779.917 182.647 779.917 186.482 782.282 188.847C784.647 191.212 788.482 191.212 790.847 188.847Z" fill="#33528B" stroke="#143165" stroke-width="1.7071" stroke-miterlimit="10"/>
<path d="M1165.85 48.8467C1168.21 46.4817 1168.21 42.6472 1165.85 40.2822C1163.48 37.9172 1159.65 37.9172 1157.28 40.2822C1154.92 42.6472 1154.92 46.4817 1157.28 48.8467C1159.65 51.2117 1163.48 51.2117 1165.85 48.8467Z" fill="#33528B" stroke="#143165" stroke-width="1.7071" stroke-miterlimit="10"/>
<path d="M336.5 117.5C339.141 114.859 339.141 110.577 336.5 107.936C333.859 105.294 329.577 105.294 326.936 107.936C324.294 110.577 324.294 114.859 326.936 117.5C329.577 120.141 333.859 120.141 336.5 117.5Z" fill="#33528B" stroke="#143165" stroke-width="1.7071" stroke-miterlimit="10"/>
</g>
<defs>
<clipPath id="clip0_820_996">
<rect width="1235" height="245" rx="20" fill="white"/>
</clipPath>
</defs>
</svg>
