<svg width="32" height="32" viewBox="0 0 32 32" fill="none" xmlns="http://www.w3.org/2000/svg">
<path d="M25.965 10.6691L15.6062 17.1434L5.24745 10.6691V8.07944L15.6062 14.5537L25.965 8.07944M25.965 5.48975H5.24745C3.81017 5.48975 2.65776 6.64216 2.65776 8.07944V23.6176C2.65776 24.3044 2.9306 24.9631 3.41626 25.4488C3.90192 25.9344 4.56062 26.2073 5.24745 26.2073H25.965C26.6518 26.2073 27.3105 25.9344 27.7962 25.4488C28.2818 24.9631 28.5547 24.3044 28.5547 23.6176V8.07944C28.5547 7.39261 28.2818 6.73391 27.7962 6.24825C27.3105 5.76259 26.6518 5.48975 25.965 5.48975Z" fill="#FFC300"/>
</svg>
