<svg width="52" height="52" viewBox="0 0 52 52" fill="none" xmlns="http://www.w3.org/2000/svg">
<circle cx="26" cy="26" r="26" fill="#C2D7FE"/>
<g clip-path="url(#clip0_475_6186)">
<path d="M41.8979 37.7787L39.9574 35.1915V21.4043C39.9574 19.9964 38.8121 18.8511 37.4042 18.8511H33.1571C33.2632 18.3536 33.3192 17.8408 33.3192 17.3191C33.3191 13.2834 30.0358 10 26 10C21.9642 10 18.6809 13.2834 18.6809 17.3191C18.6809 17.8408 18.7368 18.3536 18.8429 18.8511H14.5957C13.1879 18.8511 12.0426 19.9964 12.0426 21.4043V33.3191C12.0426 33.6012 12.2712 33.8298 12.5532 33.8298C12.8352 33.8298 13.0638 33.6012 13.0638 33.3191V21.4043C13.0638 20.5596 13.751 19.8723 14.5957 19.8723H19.1396C19.7268 21.452 20.8511 22.8039 22.3589 23.6693L22.7847 25.3395C22.5716 25.4009 22.4154 25.5969 22.4154 25.8299C22.4154 26.1119 22.6441 26.3405 22.9261 26.3405H23.0399L23.2103 27.0089C23.4068 27.7794 24.1834 28.3831 24.9787 28.3831H27.0212C27.8165 28.3831 28.5932 27.7795 28.7896 27.0089L28.9601 26.3405H29.0739C29.3559 26.3405 29.5845 26.1119 29.5845 25.8299C29.5845 25.5969 29.4284 25.4009 29.2152 25.3395L29.641 23.6693C31.1488 22.804 32.2732 21.4521 32.8603 19.8723H37.4042C38.2489 19.8723 38.9361 20.5596 38.9361 21.4043V34.8511H12.5532C12.3924 34.8511 12.2411 34.9267 12.1447 35.0553L10.1021 37.7787C10.0358 37.8671 10 37.9746 10 38.0851V39.4468C10 40.8547 11.1453 42 12.5532 42H39.4468C40.8547 42 42 40.8547 42 39.4468V38.0851C42 37.9746 41.9642 37.8671 41.8979 37.7787ZM27.8001 26.7566C27.7193 27.0733 27.3481 27.3617 27.0213 27.3617H24.9788C24.6519 27.3617 24.2808 27.0733 24.2 26.7566L24.0939 26.3405H27.9062L27.8001 26.7566ZM28.9603 22.8789C28.8337 22.9466 28.7413 23.0642 28.7059 23.2034L28.1664 25.3193H23.8335L23.2941 23.2034C23.2586 23.0642 23.1662 22.9466 23.0397 22.8789C20.981 21.7803 19.7021 19.6499 19.7021 17.3192C19.7021 13.8465 22.5273 11.0213 26 11.0213C29.4727 11.0213 32.2979 13.8464 32.2979 17.3191C32.2979 19.6499 31.0189 21.7803 28.9603 22.8789ZM12.8085 35.8723H39.1915L40.4681 37.5744H11.5319L12.8085 35.8723ZM40.9788 39.4468C40.9788 40.2915 40.2916 40.9788 39.4468 40.9788H12.5532C11.7084 40.9788 11.0213 40.2915 11.0213 39.4468V38.5958H25.4894V39.4468C25.4894 39.7289 25.718 39.9574 26 39.9574C26.282 39.9574 26.5106 39.7289 26.5106 39.4468V38.5958H40.9788V39.4468Z" fill="#203864"/>
<path d="M28.0419 30.4255C28.3239 30.4255 28.5525 30.1969 28.5525 29.9149C28.5525 29.6329 28.3239 29.4043 28.0419 29.4043C27.7599 29.4043 27.5312 29.6329 27.5312 29.9149C27.5312 30.1969 27.7599 30.4255 28.0419 30.4255Z" fill="#203864"/>
<path d="M23.9579 30.4255C24.2399 30.4255 24.4685 30.1969 24.4685 29.9149C24.4685 29.6329 24.2399 29.4043 23.9579 29.4043C23.6759 29.4043 23.4473 29.6329 23.4473 29.9149C23.4473 30.1969 23.6759 30.4255 23.9579 30.4255Z" fill="#203864"/>
<path d="M26.0009 30.4255C26.2829 30.4255 26.5115 30.1969 26.5115 29.9149C26.5115 29.6329 26.2829 29.4043 26.0009 29.4043C25.7188 29.4043 25.4902 29.6329 25.4902 29.9149C25.4902 30.1969 25.7188 30.4255 26.0009 30.4255Z" fill="#203864"/>
<path d="M28.6631 17.9144C28.4729 17.7889 28.2227 17.8048 28.0499 17.9531L27.1905 18.6895L26.3312 17.9531C26.14 17.7891 25.8579 17.7891 25.6666 17.9531L24.8075 18.6894L23.9485 17.9531C23.7755 17.8049 23.5255 17.789 23.3352 17.9144C23.145 18.0396 23.0609 18.2757 23.1287 18.4931L24.8309 23.9399C24.8975 24.1531 25.0949 24.2983 25.3183 24.2983H26.68C26.9033 24.2983 27.1007 24.1531 27.1674 23.9399L28.8695 18.4931C28.9375 18.2758 28.8533 18.0397 28.6631 17.9144ZM26.3047 23.277H25.6938L24.6187 19.8366C24.7908 19.9052 24.9925 19.8763 25.1399 19.7498L25.9991 19.0134L26.8584 19.7498C27.0059 19.8763 27.2075 19.9052 27.3799 19.8364L26.3047 23.277Z" fill="#203864"/>
</g>
<defs>
<clipPath id="clip0_475_6186">
<rect width="32" height="32" fill="white" transform="translate(10 10)"/>
</clipPath>
</defs>
</svg>
