<svg width="52" height="52" viewBox="0 0 52 52" fill="none" xmlns="http://www.w3.org/2000/svg">
<circle cx="26" cy="26" r="26" fill="#FFE2D1"/>
<g clip-path="url(#clip0_475_6095)">
<path d="M40.25 35H11.75V38H40.25V35Z" fill="#F5772D"/>
<path d="M41 39.5H11C10.6022 39.5 10.2206 39.658 9.93934 39.9393C9.65804 40.2206 9.5 40.6022 9.5 41V42.5H42.5V41C42.5 40.6022 42.342 40.2206 42.0607 39.9393C41.7794 39.658 41.3978 39.5 41 39.5Z" fill="#F5772D"/>
<path d="M18.5 21.5H15.5V33.5H18.5V21.5Z" fill="#F5772D"/>
<path d="M27.5 21.5H24.5V33.5H27.5V21.5Z" fill="#F5772D"/>
<path d="M36.5 21.5H33.5V33.5H36.5V21.5Z" fill="#F5772D"/>
<path d="M41.675 16.55L26 9.5L10.325 16.55C10.0806 16.6822 9.87558 16.8768 9.73069 17.1139C9.58579 17.351 9.50621 17.6222 9.5 17.9V18.5C9.5 18.8978 9.65804 19.2794 9.93934 19.5607C10.2206 19.842 10.6022 20 11 20H41C41.3978 20 41.7794 19.842 42.0607 19.5607C42.342 19.2794 42.5 18.8978 42.5 18.5V17.9C42.4938 17.6222 42.4142 17.351 42.2693 17.1139C42.1244 16.8768 41.9194 16.6822 41.675 16.55Z" fill="#F5772D"/>
</g>
<defs>
<clipPath id="clip0_475_6095">
<rect width="36" height="36" fill="white" transform="translate(8 8)"/>
</clipPath>
</defs>
</svg>
