<svg width="32" height="32" viewBox="0 0 32 32" fill="none" xmlns="http://www.w3.org/2000/svg">
<path d="M15.6063 15.4944C14.7478 15.4944 13.9244 15.1533 13.3173 14.5463C12.7102 13.9392 12.3692 13.1158 12.3692 12.2573C12.3692 11.3987 12.7102 10.5754 13.3173 9.96829C13.9244 9.36121 14.7478 9.02016 15.6063 9.02016C16.4648 9.02016 17.2882 9.36121 17.8953 9.96829C18.5024 10.5754 18.8434 11.3987 18.8434 12.2573C18.8434 12.6824 18.7597 13.1033 18.597 13.4961C18.4343 13.8888 18.1959 14.2457 17.8953 14.5463C17.5947 14.8469 17.2378 15.0853 16.8451 15.248C16.4524 15.4107 16.0314 15.4944 15.6063 15.4944ZM15.6063 3.19336C13.2024 3.19336 10.897 4.1483 9.19715 5.84812C7.49733 7.54793 6.54239 9.85338 6.54239 12.2573C6.54239 19.0552 15.6063 29.0903 15.6063 29.0903C15.6063 29.0903 24.6702 19.0552 24.6702 12.2573C24.6702 9.85338 23.7153 7.54793 22.0155 5.84812C20.3156 4.1483 18.0102 3.19336 15.6063 3.19336Z" fill="#FFC300"/>
</svg>
