<svg width="52" height="52" viewBox="0 0 52 52" fill="none" xmlns="http://www.w3.org/2000/svg">
<circle cx="26" cy="26" r="26" fill="#FFF3CA"/>
<path d="M12.0024 41.8642L12.0015 41.8637C11.7727 41.7307 11.6059 41.5125 11.5377 41.2569C11.4696 41.0015 11.5053 40.7296 11.637 40.5006C11.6372 40.5003 11.6373 40.5 11.6375 40.4997L17.2703 30.8358L17.5072 30.4294L17.116 30.1682C15.6368 29.1804 14.3151 27.9752 13.1953 26.5933C13.0398 26.3822 12.9733 26.1184 13.0104 25.8586C13.0479 25.596 13.1881 25.3591 13.4003 25.2C13.6125 25.0409 13.8792 24.9725 14.1417 25.01C14.4043 25.0476 14.6412 25.1878 14.8003 25.4L14.8079 25.4101L14.8159 25.4198C15.7608 26.5556 16.8589 27.5547 18.0787 28.3883L18.5221 28.6913L18.7927 28.2274L21.9892 22.7479L22.1745 22.4302L21.9264 22.1587C21.2903 21.4626 20.8457 20.6132 20.6361 19.6938C20.4266 18.7744 20.4592 17.8163 20.7309 16.9132C21.0026 16.0102 21.5039 15.1931 22.186 14.5419C22.868 13.8906 23.7074 13.4276 24.6221 13.198L25.0003 13.103V12.713V11C25.0003 10.7348 25.1057 10.4804 25.2932 10.2929L24.9397 9.93934L25.2932 10.2929C25.4807 10.1054 25.7351 10 26.0003 10C26.2655 10 26.5199 10.1054 26.7074 10.2929L27.061 9.93934L26.7074 10.2929C26.895 10.4804 27.0003 10.7348 27.0003 11V12.713V13.103L27.3786 13.198C28.2932 13.4276 29.1326 13.8906 29.8147 14.5419C30.4967 15.1931 30.9981 16.0102 31.2697 16.9132C31.5414 17.8163 31.5741 18.7744 31.3645 19.6938C31.1549 20.6132 30.7104 21.4626 30.0742 22.1587L29.8262 22.4301L30.0113 22.7477L33.2063 28.2317L33.4768 28.696L33.9205 28.3928C35.1416 27.5582 36.2403 26.5574 37.185 25.4194L37.1929 25.4099L37.2003 25.4C37.3594 25.1878 37.5963 25.0476 37.8589 25.01C38.1214 24.9725 38.3881 25.0409 38.6003 25.2C38.8125 25.3591 38.9528 25.596 38.9903 25.8586C39.0274 26.1184 38.9608 26.3823 38.8052 26.5934C37.6859 27.9775 36.364 29.1848 34.8844 30.1744L34.4935 30.4358L34.7304 30.8419L40.3644 40.5019L40.3714 40.514L40.3791 40.5256C40.4543 40.6393 40.5054 40.7672 40.5293 40.9014C40.5532 41.0356 40.5494 41.1733 40.5182 41.306C40.487 41.4386 40.4289 41.5635 40.3477 41.673C40.2664 41.7824 40.1636 41.8741 40.0457 41.9424C39.9277 42.0106 39.797 42.0541 39.6616 42.07C39.5263 42.0859 39.3891 42.074 39.2585 42.035C39.1279 41.9959 39.0066 41.9306 38.9022 41.843C38.7977 41.7554 38.7123 41.6474 38.6511 41.5256L38.6441 41.5115L38.6361 41.4979L32.9796 31.8079L32.7512 31.4165L32.3393 31.6056C30.7943 32.3146 29.1424 32.7623 27.4508 32.9305L27.0003 32.9752V33.428V38C27.0003 38.2652 26.895 38.5196 26.7074 38.7071C26.5199 38.8946 26.2655 39 26.0003 39C25.7351 39 25.4807 38.8946 25.2932 38.7071C25.1057 38.5196 25.0003 38.2652 25.0003 38V33.428V32.9752L24.5498 32.9305C22.8582 32.7623 21.2063 32.3146 19.6614 31.6056L19.2492 31.4164L19.0208 31.8082L13.3704 41.5042C13.3704 41.5042 13.3703 41.5042 13.3703 41.5042C13.3042 41.6177 13.2163 41.717 13.1118 41.7965C13.0072 41.876 12.888 41.9342 12.7609 41.9676C12.6339 42.001 12.5015 42.0091 12.3714 41.9914C12.2412 41.9736 12.1158 41.9304 12.0024 41.8642ZM24.2396 23.6834L23.8453 23.5367L23.6334 23.9001L20.5524 29.1831L20.2687 29.6696L20.7854 29.8937C21.9493 30.3985 23.1791 30.7354 24.4378 30.8941L25.0003 30.965V30.398V29C25.0003 28.7348 25.1057 28.4804 25.2932 28.2929C25.4807 28.1054 25.7351 28 26.0003 28C26.2655 28 26.5199 28.1054 26.7074 28.2929C26.895 28.4804 27.0003 28.7348 27.0003 29V30.398V30.965L27.5629 30.8941C28.8216 30.7354 30.0514 30.3985 31.2153 29.8937L31.732 29.6696L31.4482 29.1831L28.3672 23.9001L28.1553 23.5367L27.761 23.6834C26.6252 24.1059 25.3754 24.1059 24.2396 23.6834ZM27.9448 15.5899C27.3692 15.2053 26.6926 15 26.0003 15C25.0721 15 24.1818 15.3687 23.5254 16.0251C22.8691 16.6815 22.5003 17.5717 22.5003 18.5C22.5003 19.1922 22.7056 19.8689 23.0902 20.4445C23.4748 21.0201 24.0214 21.4687 24.6609 21.7336C25.3005 21.9985 26.0042 22.0678 26.6831 21.9327C27.3621 21.7977 27.9857 21.4644 28.4752 20.9749C28.9647 20.4854 29.298 19.8618 29.4331 19.1828C29.5681 18.5039 29.4988 17.8001 29.2339 17.1606C28.969 16.5211 28.5204 15.9744 27.9448 15.5899Z" stroke="#FFC300"/>
</svg>
