<svg width="19" height="19" viewBox="0 0 19 19" fill="none" xmlns="http://www.w3.org/2000/svg">
<path d="M2.49925 0.180177C1.61331 0.377051 0.80706 1.03799 0.417997 1.88643C0.136747 2.4958 0.141435 2.4208 0.155497 7.24893C0.174247 12.1427 0.15081 11.7911 0.478935 12.4567C0.839872 13.188 1.57581 13.7833 2.39612 14.0177C2.68206 14.0974 2.97737 14.1021 7.15393 14.1021H11.6071L11.9586 13.9942C12.4742 13.8349 12.8774 13.5911 13.2524 13.2161C13.6274 12.8411 13.8711 12.438 14.0305 11.9224L14.1383 11.5708V7.11768C14.1383 2.14424 14.1571 2.41611 13.8055 1.7458C13.4211 1.01455 12.8024 0.503614 11.9586 0.222364C11.7149 0.137989 11.4383 0.133302 7.24768 0.123926C3.61487 0.119239 2.73831 0.128614 2.49925 0.180177ZM7.40237 4.15049C7.70237 4.22549 8.0305 4.55361 8.1055 4.85361C8.13831 4.97549 8.16175 5.3083 8.16175 5.58955V6.10986H8.76175C9.44143 6.10986 9.63362 6.1708 9.88206 6.45205C10.3039 6.93018 10.1727 7.6708 9.61487 7.98486C9.42737 8.08799 9.343 8.10205 8.78518 8.11611L8.17112 8.13486L8.15237 8.74893C8.13831 9.30674 8.12425 9.39111 8.02112 9.57861C7.843 9.89268 7.57112 10.0614 7.2055 10.0849C6.87268 10.1083 6.643 10.0192 6.418 9.78018C6.193 9.5458 6.14612 9.3583 6.14612 8.71143V8.12549H5.62581C4.92737 8.12549 4.72581 8.06924 4.45394 7.79736C3.96175 7.30518 4.07893 6.54111 4.69768 6.23174C4.92737 6.11924 4.993 6.10986 5.54612 6.10986H6.14612V5.50986C6.14612 4.95674 6.1555 4.89111 6.268 4.66143C6.39925 4.39893 6.63831 4.20205 6.9055 4.14111C7.12581 4.08955 7.15862 4.08955 7.40237 4.15049Z" fill="#FFC300"/>
<path d="M16.6883 3.24106C16.5055 3.33481 16.3977 3.43325 16.2946 3.602L16.1539 3.827L16.1305 8.777L16.1071 13.727L16.0039 14.0317C15.6946 14.927 14.9633 15.6583 14.068 15.9676L13.7633 16.0708L8.818 16.0942L3.87268 16.1176L3.65237 16.2489C3.25862 16.4786 3.07112 16.952 3.193 17.3973C3.26331 17.6739 3.57268 17.9786 3.84925 18.0583C4.01331 18.1004 5.17581 18.1098 8.98206 18.1004L13.9039 18.0864L14.3633 17.9598C16.1727 17.4629 17.4992 16.1411 17.9961 14.327L18.1227 13.8676L18.1367 8.94575C18.1461 5.1395 18.1367 3.977 18.0946 3.81294C18.0196 3.55044 17.7242 3.24575 17.4617 3.16606C17.1617 3.077 16.9602 3.09575 16.6883 3.24106Z" fill="#FFC300"/>
</svg>
