<svg width="25" height="25" viewBox="0 0 25 25" fill="none" xmlns="http://www.w3.org/2000/svg">
<path d="M10.8135 2.56648C9.19656 2.85785 7.90798 3.96997 7.3909 5.5212C7.25547 5.92748 7.13646 6.65385 7.03797 7.72494C7.00104 8.11069 6.96 8.47183 6.95179 8.52107C6.93538 8.61136 6.91896 8.61546 6.43882 8.61546C6.16797 8.61546 5.7699 8.63598 5.5524 8.6606C3.73853 8.86169 2.26527 10.138 1.77281 11.9313L1.66201 12.3294L1.6497 16.306C1.64149 19.8024 1.6456 20.3236 1.70305 20.6272C1.83847 21.3372 2.11753 21.8912 2.61819 22.4124C3.14348 22.9623 3.72211 23.2824 4.44848 23.4342C4.80551 23.5081 5.13792 23.5122 11.5111 23.5122C17.2236 23.5122 18.2536 23.504 18.5737 23.4507C20.2645 23.1757 21.6228 21.9733 22.0989 20.3236C22.2548 19.7901 22.4518 17.9926 22.579 15.9202C22.6447 14.8163 22.6447 11.1967 22.579 10.0928C22.46 8.16815 22.2589 6.26399 22.1194 5.72229C22.0742 5.54172 21.9347 5.1888 21.8116 4.94257C21.2371 3.77709 20.2645 2.98917 18.9677 2.63214L18.5696 2.52134L14.8557 2.51313C11.7696 2.50902 11.0843 2.51723 10.8135 2.56648ZM18.7132 4.37625C19.4971 4.6471 20.1414 5.29139 20.3917 6.0629C20.5107 6.43635 20.6708 7.88498 20.8144 9.90815C20.8841 10.9054 20.8841 15.0625 20.8144 16.0844C20.6872 17.9393 20.523 19.4946 20.4122 19.8598C20.1496 20.7504 19.3863 21.4767 18.4998 21.686C18.2782 21.7394 17.5478 21.7476 13.4481 21.7476H8.65486L8.77387 21.5711C9.26222 20.8447 9.4551 20.2087 9.4551 19.3263C9.4551 18.8298 9.43869 18.6738 9.26222 17.812C9.05293 16.7656 8.86416 15.5303 8.76567 14.5249C8.51534 12.0052 8.5892 8.71805 8.94623 6.50611C9.11449 5.46375 9.81213 4.66762 10.834 4.35983L11.1418 4.26955L14.7941 4.27776L18.4465 4.28596L18.7132 4.37625ZM6.86561 11.7836C6.91075 14.2089 7.11184 16.0556 7.57967 18.3414C7.80538 19.4454 7.75203 19.9214 7.34165 20.5616C7.01745 21.0622 6.50038 21.4562 5.92995 21.6368C5.70424 21.7065 5.54419 21.7271 5.17075 21.7271C4.72344 21.7271 4.6824 21.7189 4.42386 21.5957C4.0381 21.4152 3.76725 21.1484 3.57848 20.7668L3.42664 20.459L3.41433 16.5686C3.40202 12.235 3.39381 12.4074 3.68518 11.8164C3.90678 11.365 4.37461 10.9013 4.84245 10.6715C5.29797 10.4499 5.60575 10.3883 6.28288 10.3842L6.84099 10.3801L6.86561 11.7836Z" fill="#203864"/>
<path d="M12.7638 6.01372C12.3821 6.07528 12.1687 6.14094 11.861 6.28457C11.3685 6.52259 10.913 6.974 10.6791 7.46646C10.4616 7.92198 10.4082 8.18052 10.4123 8.67708C10.4205 9.64557 10.9499 10.4992 11.8199 10.9547C12.3657 11.2378 12.4027 11.2419 14.7623 11.2419C16.1125 11.2419 16.9414 11.2255 17.081 11.1968C17.4134 11.1311 18.0043 10.8234 18.2711 10.5853C18.5665 10.3227 18.8866 9.84666 18.9974 9.51015C19.2355 8.77557 19.1985 8.1641 18.8702 7.47056C18.6486 7.00273 18.1767 6.52259 17.7294 6.30098C17.1343 6.00961 17.1959 6.01782 14.9183 6.00551C13.7897 6.00141 12.8212 6.00551 12.7638 6.01372ZM16.8019 7.80297C17.0358 7.87273 17.2903 8.13948 17.3559 8.3816C17.4667 8.77146 17.3026 9.18184 16.9579 9.38293L16.765 9.49783H14.7747H12.7843L12.5914 9.38293C12.2467 9.18184 12.0826 8.76736 12.1893 8.3775C12.2467 8.16 12.5299 7.85632 12.731 7.79887C12.9444 7.73731 16.5926 7.74141 16.8019 7.80297Z" fill="#203864"/>
<path d="M10.8784 13.1132C10.5091 13.2979 10.3285 13.6878 10.427 14.09C10.4926 14.3649 10.7758 14.6563 11.0467 14.7219C11.1862 14.7589 12.2039 14.7712 14.7852 14.7712C18.811 14.7712 18.6263 14.7835 18.9095 14.4593C19.3035 14.012 19.1886 13.3759 18.6674 13.1132L18.4499 13.0066H14.7729H11.0959L10.8784 13.1132Z" fill="#203864"/>
<path d="M10.8784 15.7395C10.5091 15.9242 10.3285 16.3141 10.427 16.7162C10.4926 16.9912 10.7758 17.2826 11.0467 17.3482C11.1821 17.3851 11.8961 17.3975 13.472 17.3975C16.0328 17.3975 16.0081 17.4016 16.2831 17.0856C16.677 16.6383 16.5621 16.0022 16.041 15.7395L15.8235 15.6328H13.4597H11.0959L10.8784 15.7395Z" fill="#203864"/>
</svg>
