<svg width="24" height="18" viewBox="0 0 24 18" fill="none" xmlns="http://www.w3.org/2000/svg">
<path d="M23.1844 9.3096C23.1469 9.39398 22.2 11.494 20.0625 13.4159C19.9203 13.5347 19.7416 13.6009 19.5563 13.6034C19.4522 13.6033 19.3493 13.5816 19.2541 13.5397C19.1588 13.4977 19.0734 13.4364 19.0031 13.3596L9.50627 2.91585C9.41796 2.81508 9.35788 2.69274 9.33214 2.56124C9.3064 2.42975 9.31591 2.29378 9.35971 2.16715C9.40351 2.04052 9.48003 1.92773 9.58151 1.84024C9.68299 1.75274 9.80582 1.69366 9.93752 1.66898C10.6191 1.55542 11.309 1.49897 12 1.50023C15.2719 1.50023 18.2438 2.7471 20.5969 5.09085C22.3594 6.86273 23.1563 8.62523 23.1844 8.70023C23.2259 8.79644 23.2474 8.90013 23.2474 9.00492C23.2474 9.10971 23.2259 9.2134 23.1844 9.3096ZM20.0531 16.744C20.1208 16.816 20.1733 16.9009 20.2076 16.9936C20.2419 17.0862 20.2574 17.1848 20.253 17.2835C20.2486 17.3823 20.2246 17.4791 20.1822 17.5684C20.1398 17.6577 20.08 17.7376 20.0063 17.8034C19.8671 17.9284 19.6871 17.9984 19.5 18.0002C19.396 18.0002 19.293 17.9785 19.1978 17.9365C19.1026 17.8946 19.0171 17.8333 18.9469 17.7565L16.8844 15.4877C15.3447 16.162 13.6809 16.5069 12 16.5002C8.72814 16.5002 5.75627 15.2534 3.40314 12.9096C1.64064 11.1377 0.843769 9.37523 0.815644 9.3096C0.77411 9.2134 0.752686 9.10971 0.752686 9.00492C0.752686 8.90013 0.77411 8.79644 0.815644 8.70023C0.881269 8.55023 2.34377 5.32523 5.74689 3.2346L3.94689 1.25648C3.81766 1.10899 3.75133 0.916748 3.76212 0.720944C3.77291 0.525141 3.85996 0.341352 4.00461 0.208953C4.14927 0.0765542 4.34003 0.00607847 4.53602 0.0126256C4.73201 0.0191727 4.91764 0.102222 5.05314 0.243979L20.0531 16.744ZM13.6594 11.9346L9.23439 7.06898C8.79988 7.69627 8.59077 8.45229 8.64118 9.21371C8.69158 9.97512 8.99853 10.697 9.51194 11.2615C10.0254 11.8261 10.7149 12.1999 11.4682 12.3222C12.2214 12.4444 12.9938 12.3078 13.6594 11.9346Z" fill="#A0A3BD"/>
</svg>
