<svg width="32" height="32" viewBox="0 0 32 32" fill="none" xmlns="http://www.w3.org/2000/svg">
<path d="M24.968 19.8633L21.6791 19.4878C21.2924 19.4424 20.9004 19.4852 20.5326 19.613C20.1648 19.7409 19.8307 19.9504 19.5555 20.2259L17.173 22.6084C13.4972 20.7389 10.5095 17.7512 8.63998 14.0754L11.0354 11.6799C11.5922 11.1231 11.8641 10.3462 11.7735 9.55635L11.398 6.29334C11.3246 5.66169 11.0215 5.07908 10.5463 4.65646C10.0711 4.23384 9.45717 4.00071 8.82126 4.00147H6.58118C5.118 4.00147 3.90085 5.21862 3.99149 6.6818C4.67776 17.7398 13.5216 26.5706 24.5666 27.2569C26.0298 27.3475 27.2469 26.1304 27.2469 24.6672V22.4271C27.2599 21.1193 26.2758 20.0187 24.968 19.8633Z" fill="#FFC300"/>
</svg>
