<svg width="24" height="24" viewBox="0 0 24 24" fill="none" xmlns="http://www.w3.org/2000/svg">
<path d="M18.1 17.75H5.89999C3.57999 17.75 2.25 16.42 2.25 14.1V2C2.25 1.59 2.59 1.25 3 1.25H21C21.41 1.25 21.75 1.59 21.75 2V14.1C21.75 16.42 20.42 17.75 18.1 17.75ZM3.75 2.75V14.1C3.75 15.59 4.40999 16.25 5.89999 16.25H18.09C19.58 16.25 20.24 15.59 20.24 14.1V2.75H3.75Z" fill="#fff"/>
<path d="M22 2.75H2C1.59 2.75 1.25 2.41 1.25 2C1.25 1.59 1.59 1.25 2 1.25H22C22.41 1.25 22.75 1.59 22.75 2C22.75 2.41 22.41 2.75 22 2.75Z" fill="#fff"/>
<path d="M8.00027 22.75C7.72027 22.75 7.46025 22.6 7.33025 22.34C7.14025 21.97 7.29028 21.52 7.67028 21.33L11.2503 19.54V17C11.2503 16.59 11.5903 16.25 12.0003 16.25C12.4103 16.25 12.7503 16.59 12.7503 17V20C12.7503 20.28 12.5903 20.54 12.3303 20.67L8.33025 22.67C8.23025 22.72 8.11027 22.75 8.00027 22.75Z" fill="#fff"/>
<path d="M15.9999 22.7502C15.8899 22.7502 15.77 22.7202 15.67 22.6702L11.67 20.6702C11.3 20.4802 11.1499 20.0302 11.3299 19.6602C11.5199 19.2902 11.9699 19.1402 12.3399 19.3202L16.3399 21.3202C16.7099 21.5102 16.8599 21.9602 16.6799 22.3302C16.5399 22.6002 16.2699 22.7502 15.9999 22.7502Z" fill="#fff"/>
<path d="M10.9957 13.9997C10.5914 13.9997 10.216 13.9005 9.87901 13.7022C9.10886 13.246 8.66602 12.3138 8.66602 11.1337V8.19838C8.66602 7.02821 9.10886 6.08612 9.87901 5.62995C10.6492 5.17378 11.6504 5.2432 12.6419 5.8382L15.1161 7.30588C16.098 7.89096 16.666 8.75372 16.666 9.66606C16.666 10.5784 16.098 11.4412 15.1161 12.0262L12.6419 13.4939C12.0836 13.8311 11.5156 13.9997 10.9957 13.9997ZM11.0054 6.81996C10.8513 6.81996 10.7166 6.84971 10.6107 6.91912C10.3026 7.10754 10.1197 7.57363 10.1197 8.19838V11.1337C10.1197 11.7585 10.293 12.2246 10.6107 12.413C10.9187 12.6014 11.4001 12.5221 11.9296 12.2047L14.4037 10.7371C14.9332 10.4197 15.2316 10.033 15.2316 9.66606C15.2316 9.29914 14.9332 8.90247 14.4037 8.59505L11.9296 7.12738C11.583 6.91912 11.2653 6.81996 11.0054 6.81996Z" fill="#fff"/>
</svg>
