<svg width="24" height="24" viewBox="0 0 24 24" fill="none" xmlns="http://www.w3.org/2000/svg">
<path d="M1.5 5.25C1.5 4.65326 1.73705 4.08097 2.15901 3.65901C2.58097 3.23705 3.15326 3 3.75 3H9C10.227 3 11.316 3.5895 12 4.5C12.684 3.5895 13.773 3 15 3H20.25C20.8467 3 21.419 3.23705 21.841 3.65901C22.2629 4.08097 22.5 4.65326 22.5 5.25V10.8C22.0464 10.539 21.5162 10.4435 21 10.53V5.25C21 5.05109 20.921 4.86032 20.7803 4.71967C20.6397 4.57902 20.4489 4.5 20.25 4.5H15C14.4033 4.5 13.831 4.73705 13.409 5.15901C12.9871 5.58097 12.75 6.15326 12.75 6.75V12.5685L11.8185 13.5H11.25V6.75C11.25 6.15326 11.0129 5.58097 10.591 5.15901C10.169 4.73705 9.59674 4.5 9 4.5H3.75C3.55109 4.5 3.36032 4.57902 3.21967 4.71967C3.07902 4.86032 3 5.05109 3 5.25V18.75C3 18.9489 3.07902 19.1397 3.21967 19.2803C3.36032 19.421 3.55109 19.5 3.75 19.5H9C9.042 19.5 9.0855 19.5 9.1275 19.497C9.3255 20.0595 9.741 20.5215 10.2735 20.778C9.86509 20.9253 9.43416 21.0004 9 21H3.75C3.15326 21 2.58097 20.7629 2.15901 20.341C1.73705 19.919 1.5 19.3467 1.5 18.75V5.25ZM16.0365 12.057C16.1737 12.1137 16.2909 12.2098 16.3734 12.3332C16.4559 12.4565 16.5 12.6016 16.5 12.75V21.75C16.5003 21.8985 16.4564 22.0438 16.374 22.1674C16.2916 22.291 16.1744 22.3873 16.0372 22.4442C15.9 22.5011 15.749 22.5159 15.6033 22.4869C15.4577 22.4578 15.3239 22.3862 15.219 22.281L12.4395 19.5H11.25C11.0511 19.5 10.8603 19.421 10.7197 19.2803C10.579 19.1397 10.5 18.9489 10.5 18.75V15.75C10.5 15.5511 10.579 15.3603 10.7197 15.2197C10.8603 15.079 11.0511 15 11.25 15H12.4395L15.219 12.219C15.324 12.1142 15.4577 12.0428 15.6032 12.014C15.7487 11.9852 15.8995 12.0001 16.0365 12.057ZM21.975 12.3C22.1565 12.543 22.4025 12.9795 22.6395 13.611C23.022 14.631 23.25 15.846 23.25 17.25C23.25 18.654 23.022 19.8675 22.6395 20.889C22.4025 21.5205 22.1565 21.957 21.975 22.2C21.8631 22.3508 21.6987 22.4541 21.5143 22.4895C21.3299 22.5249 21.1389 22.4899 20.9791 22.3913C20.8193 22.2927 20.7022 22.1378 20.6511 21.9571C20.6 21.7765 20.6185 21.5832 20.703 21.4155L20.877 21.1425C21.0178 20.8928 21.1377 20.6319 21.2355 20.3625C21.555 19.5075 21.75 18.471 21.75 17.25C21.75 16.029 21.555 14.9925 21.2355 14.139C21.1376 13.8696 21.0177 13.6087 20.877 13.359L20.775 13.2C20.6557 13.0409 20.6044 12.8408 20.6325 12.6439C20.6607 12.447 20.7659 12.2693 20.925 12.15C21.0841 12.0307 21.2842 11.9794 21.4811 12.0075C21.678 12.0357 21.8557 12.1409 21.975 12.3ZM19.4205 13.914C19.53 14.1315 19.683 14.4915 19.836 14.949C20.094 15.7245 20.25 16.503 20.25 17.25C20.25 17.9985 20.094 18.777 19.836 19.5495C19.721 19.9035 19.5822 20.2493 19.4205 20.5845C19.3784 20.6757 19.3184 20.7575 19.244 20.825C19.1697 20.8926 19.0826 20.9445 18.9878 20.9777C18.893 21.011 18.7925 21.0248 18.6922 21.0185C18.592 21.0121 18.4941 20.9857 18.4042 20.9408C18.3144 20.8959 18.2345 20.8334 18.1693 20.757C18.104 20.6806 18.0548 20.5919 18.0245 20.4961C17.9943 20.4004 17.9835 20.2995 17.993 20.1995C18.0024 20.0995 18.0318 20.0024 18.0795 19.914L18.1935 19.662C18.2745 19.4694 18.348 19.2737 18.414 19.0755C18.624 18.4425 18.75 17.8155 18.75 17.25C18.75 16.686 18.624 16.0575 18.414 15.4245C18.321 15.1375 18.2093 14.8569 18.0795 14.5845C18.0318 14.4961 18.0024 14.399 17.993 14.299C17.9835 14.199 17.9943 14.0981 18.0245 14.0024C18.0548 13.9066 18.104 13.8179 18.1693 13.7415C18.2345 13.6651 18.3144 13.6026 18.4042 13.5577C18.4941 13.5128 18.592 13.4864 18.6922 13.48C18.7925 13.4737 18.893 13.4875 18.9878 13.5208C19.0826 13.554 19.1697 13.6059 19.244 13.6735C19.3184 13.741 19.3784 13.8228 19.4205 13.914Z" fill="#8C90B6"/>
</svg>
