<svg width="17" height="17" viewBox="0 0 17 17" fill="none" xmlns="http://www.w3.org/2000/svg">
<g clip-path="url(#clip0_1_5031)">
<g clip-path="url(#clip1_1_5031)">
<path d="M5.89952 13.8668L6.34282 14.3101C6.58752 14.5548 6.9847 14.5548 7.23034 14.3101L12.1103 9.4301C12.227 9.31359 12.3195 9.17523 12.3826 9.02295C12.4457 8.87066 12.4782 8.70742 12.4782 8.54257C12.4782 8.37772 12.4457 8.21449 12.3826 8.0622C12.3195 7.90991 12.227 7.77156 12.1103 7.65504L7.23034 2.77504C7.11263 2.6574 6.95301 2.59131 6.78658 2.59131C6.62015 2.59131 6.46053 2.6574 6.34282 2.77504L5.89952 3.21834C5.78187 3.33606 5.71578 3.49567 5.71578 3.6621C5.71578 3.82853 5.78187 3.98815 5.89952 4.10587L10.3353 8.54257L5.89858 12.9793C5.78093 13.097 5.71484 13.2566 5.71484 13.423C5.71484 13.5895 5.78187 13.7491 5.89952 13.8668Z" fill="#fff"/>
</g>
</g>
<defs>
<clipPath id="clip0_1_5031">
<rect width="16" height="16" fill="white" transform="translate(0.667969 0.787109)"/>
</clipPath>
<clipPath id="clip1_1_5031">
<rect width="16" height="16" fill="white" transform="translate(0.667969 0.787109)"/>
</clipPath>
</defs>
</svg>
