<svg width="24" height="25" viewBox="0 0 24 25" fill="none" xmlns="http://www.w3.org/2000/svg">
<path d="M9.98999 23.4465C9.38999 23.4465 8.81999 23.1465 8.42999 22.6165L7.23001 21.0165C7.23001 21.0265 7.18 20.9965 7.16 20.9965H6.79001C3.37001 20.9965 1.25 20.0665 1.25 15.4565V11.4565C1.25 7.24651 3.82001 6.14651 5.98001 5.95651C6.22001 5.92651 6.50001 5.9165 6.79001 5.9165H13.19C16.81 5.9165 18.73 7.83651 18.73 11.4565V15.4565C18.73 15.7465 18.72 16.0265 18.68 16.2965C18.5 18.4265 17.4 20.9965 13.19 20.9965H12.79L11.55 22.6165C11.16 23.1465 10.59 23.4465 9.98999 23.4465ZM6.79001 7.4165C6.56001 7.4165 6.34 7.4265 6.13 7.4465C3.81 7.6465 2.75 8.91651 2.75 11.4565V15.4565C2.75 18.8865 3.81001 19.4965 6.79001 19.4965H7.19C7.64 19.4965 8.14999 19.7465 8.42999 20.1065L9.63 21.7165C9.85001 22.0165 10.13 22.0165 10.35 21.7165L11.55 20.1165C11.84 19.7265 12.3 19.4965 12.79 19.4965H13.19C15.73 19.4965 17 18.4265 17.19 16.1465C17.22 15.9065 17.23 15.6865 17.23 15.4565V11.4565C17.23 8.66651 15.98 7.4165 13.19 7.4165H6.79001Z" fill="#203864"/>
<path d="M9.99023 14.8564C9.43023 14.8564 8.99023 14.4064 8.99023 13.8564C8.99023 13.3064 9.44023 12.8564 9.99023 12.8564C10.5402 12.8564 10.9902 13.3064 10.9902 13.8564C10.9902 14.4064 10.5502 14.8564 9.99023 14.8564Z" fill="#203864"/>
<path d="M13.1899 14.8564C12.6299 14.8564 12.1899 14.4064 12.1899 13.8564C12.1899 13.3064 12.6399 12.8564 13.1899 12.8564C13.7399 12.8564 14.1899 13.3064 14.1899 13.8564C14.1899 14.4064 13.7399 14.8564 13.1899 14.8564Z" fill="#203864"/>
<path d="M6.7998 14.8564C6.2398 14.8564 5.7998 14.4064 5.7998 13.8564C5.7998 13.3064 6.2498 12.8564 6.7998 12.8564C7.3498 12.8564 7.7998 13.3064 7.7998 13.8564C7.7998 14.4064 7.3498 14.8564 6.7998 14.8564Z" fill="#203864"/>
<path d="M17.9401 16.9565C17.7401 16.9565 17.5401 16.8765 17.4001 16.7265C17.2401 16.5665 17.1701 16.3365 17.2001 16.1165C17.2301 15.9065 17.2401 15.6865 17.2401 15.4565V11.4565C17.2401 8.66651 15.9901 7.4165 13.2001 7.4165H6.80012C6.57012 7.4165 6.35015 7.4265 6.14015 7.4465C5.92015 7.4765 5.69013 7.39649 5.53013 7.24649C5.37013 7.08649 5.28012 6.86651 5.30012 6.64651C5.48012 4.48651 6.59012 1.9165 10.8001 1.9165H17.2001C20.8201 1.9165 22.7401 3.83651 22.7401 7.45651V11.4565C22.7401 15.6665 20.1701 16.7665 18.0101 16.9565C17.9801 16.9565 17.9601 16.9565 17.9401 16.9565ZM6.92015 5.9165H13.1901C16.8101 5.9165 18.7301 7.83651 18.7301 11.4565V15.3265C20.4301 14.9065 21.2301 13.6565 21.2301 11.4565V7.45651C21.2301 4.66651 19.9801 3.4165 17.1901 3.4165H10.7901C8.59014 3.4165 7.35015 4.2165 6.92015 5.9165Z" fill="#203864"/>
</svg>
