<svg width="24" height="25" viewBox="0 0 24 25" fill="none" xmlns="http://www.w3.org/2000/svg">
<path d="M1.5 5.9165C1.5 5.31977 1.73705 4.74747 2.15901 4.32551C2.58097 3.90356 3.15326 3.6665 3.75 3.6665H9C10.227 3.6665 11.316 4.256 12 5.1665C12.684 4.256 13.773 3.6665 15 3.6665H20.25C20.8467 3.6665 21.419 3.90356 21.841 4.32551C22.2629 4.74747 22.5 5.31977 22.5 5.9165V11.4665C22.0464 11.2055 21.5162 11.11 21 11.1965V5.9165C21 5.71759 20.921 5.52683 20.7803 5.38617C20.6397 5.24552 20.4489 5.1665 20.25 5.1665H15C14.4033 5.1665 13.831 5.40356 13.409 5.82551C12.9871 6.24747 12.75 6.81977 12.75 7.4165V13.235L11.8185 14.1665H11.25V7.4165C11.25 6.81977 11.0129 6.24747 10.591 5.82551C10.169 5.40356 9.59674 5.1665 9 5.1665H3.75C3.55109 5.1665 3.36032 5.24552 3.21967 5.38617C3.07902 5.52683 3 5.71759 3 5.9165V19.4165C3 19.6154 3.07902 19.8062 3.21967 19.9468C3.36032 20.0875 3.55109 20.1665 3.75 20.1665H9C9.042 20.1665 9.0855 20.1665 9.1275 20.1635C9.3255 20.726 9.741 21.188 10.2735 21.4445C9.86509 21.5918 9.43416 21.6669 9 21.6665H3.75C3.15326 21.6665 2.58097 21.4295 2.15901 21.0075C1.73705 20.5855 1.5 20.0132 1.5 19.4165V5.9165ZM16.0365 12.7235C16.1737 12.7802 16.2909 12.8763 16.3734 12.9997C16.4559 13.123 16.5 13.2681 16.5 13.4165V22.4165C16.5003 22.565 16.4564 22.7103 16.374 22.8339C16.2916 22.9575 16.1744 23.0538 16.0372 23.1107C15.9 23.1676 15.749 23.1824 15.6033 23.1534C15.4577 23.1243 15.3239 23.0527 15.219 22.9475L12.4395 20.1665H11.25C11.0511 20.1665 10.8603 20.0875 10.7197 19.9468C10.579 19.8062 10.5 19.6154 10.5 19.4165V16.4165C10.5 16.2176 10.579 16.0268 10.7197 15.8862C10.8603 15.7455 11.0511 15.6665 11.25 15.6665H12.4395L15.219 12.8855C15.324 12.7807 15.4577 12.7093 15.6032 12.6805C15.7487 12.6517 15.8995 12.6666 16.0365 12.7235ZM21.975 12.9665C22.1565 13.2095 22.4025 13.646 22.6395 14.2775C23.022 15.2975 23.25 16.5125 23.25 17.9165C23.25 19.3205 23.022 20.534 22.6395 21.5555C22.4025 22.187 22.1565 22.6235 21.975 22.8665C21.8631 23.0173 21.6987 23.1206 21.5143 23.156C21.3299 23.1914 21.1389 23.1564 20.9791 23.0578C20.8193 22.9593 20.7022 22.8043 20.6511 22.6236C20.6 22.443 20.6185 22.2497 20.703 22.082L20.877 21.809C21.0178 21.5593 21.1377 21.2984 21.2355 21.029C21.555 20.174 21.75 19.1375 21.75 17.9165C21.75 16.6955 21.555 15.659 21.2355 14.8055C21.1376 14.5361 21.0177 14.2752 20.877 14.0255L20.775 13.8665C20.6557 13.7074 20.6044 13.5073 20.6325 13.3104C20.6607 13.1135 20.7659 12.9359 20.925 12.8165C21.0841 12.6972 21.2842 12.6459 21.4811 12.674C21.678 12.7022 21.8557 12.8074 21.975 12.9665ZM19.4205 14.5805C19.53 14.798 19.683 15.158 19.836 15.6155C20.094 16.391 20.25 17.1695 20.25 17.9165C20.25 18.665 20.094 19.4435 19.836 20.216C19.721 20.57 19.5822 20.9158 19.4205 21.251C19.3784 21.3422 19.3184 21.424 19.244 21.4915C19.1697 21.5591 19.0826 21.611 18.9878 21.6442C18.893 21.6775 18.7925 21.6913 18.6922 21.685C18.592 21.6786 18.4941 21.6522 18.4042 21.6073C18.3144 21.5624 18.2345 21.4999 18.1693 21.4235C18.104 21.3471 18.0548 21.2584 18.0245 21.1626C17.9943 21.0669 17.9835 20.966 17.993 20.866C18.0024 20.766 18.0318 20.6689 18.0795 20.5805L18.1935 20.3285C18.2745 20.1359 18.348 19.9403 18.414 19.742C18.624 19.109 18.75 18.482 18.75 17.9165C18.75 17.3525 18.624 16.724 18.414 16.091C18.321 15.804 18.2093 15.5234 18.0795 15.251C18.0318 15.1626 18.0024 15.0655 17.993 14.9655C17.9835 14.8655 17.9943 14.7646 18.0245 14.6689C18.0548 14.5731 18.104 14.4844 18.1693 14.408C18.2345 14.3316 18.3144 14.2691 18.4042 14.2242C18.4941 14.1793 18.592 14.1529 18.6922 14.1465C18.7925 14.1402 18.893 14.154 18.9878 14.1873C19.0826 14.2205 19.1697 14.2724 19.244 14.34C19.3184 14.4075 19.3784 14.4893 19.4205 14.5805Z" fill="#8C90B6"/>
</svg>
