<svg width="24" height="25" viewBox="0 0 24 25" fill="none" xmlns="http://www.w3.org/2000/svg">
<path d="M5.10975 2.47119L4.05375 3.52569L5.625 5.09619L6.6795 4.04169L5.109 2.47119H5.10975ZM18.891 2.47119L17.3197 4.04169L18.375 5.09619L19.9455 3.52644L18.891 2.47119ZM12 2.93919C11.7525 2.94219 11.502 2.95644 11.25 2.98719C11.2425 2.98719 11.235 2.98569 11.2275 2.98719C8.1855 3.33594 5.7645 5.79369 5.34375 8.82219C5.00775 11.2597 6.01275 13.4699 7.6875 14.8934C8.37256 15.4781 8.83592 16.2804 9 17.1659V21.6659H10.71C10.971 22.1137 11.4473 22.4159 12 22.4159C12.5527 22.4159 13.029 22.1137 13.29 21.6659H15V18.6659H15.0705V17.7749C15.0705 16.6754 15.642 15.5669 16.5705 14.7052C17.8125 13.4617 18.75 11.6954 18.75 9.66669C18.75 5.96169 15.7005 2.90469 12 2.93919ZM12 4.43919C14.8988 4.39869 17.25 6.77169 17.25 9.66669C17.25 11.2372 16.5225 12.6202 15.5153 13.6267L15.5392 13.6507C14.5383 14.5737 13.891 15.8173 13.7092 17.1667H10.4288C10.2638 15.8812 9.7125 14.6369 8.67075 13.7444C7.3455 12.6194 6.55575 10.9244 6.81975 9.01044C7.1475 6.64794 9.0645 4.74819 11.4135 4.48794C11.6074 4.4609 11.8027 4.44488 11.9985 4.43994L12 4.43919ZM1.5 9.66669V11.1667H3.75V9.66669H1.5ZM20.25 9.66669V11.1667H22.5V9.66669H20.25ZM5.625 15.7372L4.0545 17.3069L5.10975 18.3622L6.67875 16.7917L5.625 15.7372ZM18.375 15.7372L17.3205 16.7917L18.8903 18.3622L19.9455 17.3069L18.375 15.7372ZM10.5 18.6667H13.5V20.1667H10.5V18.6667Z" fill="#203864"/>
</svg>
