<svg width="24" height="25" viewBox="0 0 24 25" fill="none" xmlns="http://www.w3.org/2000/svg">
<path d="M3.5 19.4165C3.09 19.4165 2.75 19.0765 2.75 18.6665V7.6665C2.75 3.2565 4.09 1.9165 8.5 1.9165H15.5C19.91 1.9165 21.25 3.2565 21.25 7.6665V17.6665C21.25 17.8265 21.25 17.9765 21.24 18.1365C21.21 18.5465 20.84 18.8665 20.44 18.8365C20.03 18.8065 19.71 18.4465 19.74 18.0365C19.75 17.9165 19.75 17.7865 19.75 17.6665V7.6665C19.75 4.0965 19.08 3.4165 15.5 3.4165H8.5C4.92 3.4165 4.25 4.0965 4.25 7.6665V18.6665C4.25 19.0765 3.91 19.4165 3.5 19.4165Z" fill="#8C90B6"/>
<path d="M17 23.4165H7C4.66 23.4165 2.75 21.5065 2.75 19.1665V18.5165C2.75 16.5265 4.37 14.9165 6.35 14.9165H20.5C20.91 14.9165 21.25 15.2565 21.25 15.6665V19.1665C21.25 21.5065 19.34 23.4165 17 23.4165ZM6.35 16.4165C5.19 16.4165 4.25 17.3565 4.25 18.5165V19.1665C4.25 20.6865 5.48 21.9165 7 21.9165H17C18.52 21.9165 19.75 20.6865 19.75 19.1665V16.4165H6.35Z" fill="#8C90B6"/>
<path d="M16 8.4165H8C7.59 8.4165 7.25 8.0765 7.25 7.6665C7.25 7.2565 7.59 6.9165 8 6.9165H16C16.41 6.9165 16.75 7.2565 16.75 7.6665C16.75 8.0765 16.41 8.4165 16 8.4165Z" fill="#8C90B6"/>
<path d="M13 11.9165H8C7.59 11.9165 7.25 11.5765 7.25 11.1665C7.25 10.7565 7.59 10.4165 8 10.4165H13C13.41 10.4165 13.75 10.7565 13.75 11.1665C13.75 11.5765 13.41 11.9165 13 11.9165Z" fill="#8C90B6"/>
</svg>
