<svg width="24" height="25" viewBox="0 0 24 25" fill="none" xmlns="http://www.w3.org/2000/svg">
<path d="M18.1 18.4165H5.89999C3.57999 18.4165 2.25 17.0865 2.25 14.7665V2.6665C2.25 2.2565 2.59 1.9165 3 1.9165H21C21.41 1.9165 21.75 2.2565 21.75 2.6665V14.7665C21.75 17.0865 20.42 18.4165 18.1 18.4165ZM3.75 3.4165V14.7665C3.75 16.2565 4.40999 16.9165 5.89999 16.9165H18.09C19.58 16.9165 20.24 16.2565 20.24 14.7665V3.4165H3.75Z" fill="#203864"/>
<path d="M22 3.4165H2C1.59 3.4165 1.25 3.0765 1.25 2.6665C1.25 2.2565 1.59 1.9165 2 1.9165H22C22.41 1.9165 22.75 2.2565 22.75 2.6665C22.75 3.0765 22.41 3.4165 22 3.4165Z" fill="#203864"/>
<path d="M8.00027 23.4165C7.72027 23.4165 7.46025 23.2665 7.33025 23.0065C7.14025 22.6365 7.29028 22.1865 7.67028 21.9965L11.2503 20.2065V17.6665C11.2503 17.2565 11.5903 16.9165 12.0003 16.9165C12.4103 16.9165 12.7503 17.2565 12.7503 17.6665V20.6665C12.7503 20.9465 12.5903 21.2065 12.3303 21.3365L8.33025 23.3365C8.23025 23.3865 8.11027 23.4165 8.00027 23.4165Z" fill="#203864"/>
<path d="M15.9999 23.4167C15.8899 23.4167 15.77 23.3867 15.67 23.3367L11.67 21.3367C11.3 21.1467 11.1499 20.6967 11.3299 20.3267C11.5199 19.9567 11.9699 19.8067 12.3399 19.9867L16.3399 21.9867C16.7099 22.1767 16.8599 22.6267 16.6799 22.9967C16.5399 23.2667 16.2699 23.4167 15.9999 23.4167Z" fill="#203864"/>
<path d="M10.9964 14.6667C10.5921 14.6667 10.2166 14.5675 9.87966 14.3692C9.10951 13.913 8.66667 12.9808 8.66667 11.8007V8.86538C8.66667 7.6952 9.10951 6.75311 9.87966 6.29694C10.6498 5.84077 11.651 5.91019 12.6426 6.50519L15.1167 7.97287C16.0987 8.55796 16.6667 9.42071 16.6667 10.3331C16.6667 11.2454 16.0987 12.1081 15.1167 12.6932L12.6426 14.1609C12.0842 14.4981 11.5162 14.6667 10.9964 14.6667ZM11.006 7.48695C10.852 7.48695 10.7172 7.5167 10.6113 7.58612C10.3032 7.77453 10.1203 8.24062 10.1203 8.86538V11.8007C10.1203 12.4255 10.2936 12.8916 10.6113 13.08C10.9194 13.2684 11.4007 13.1891 11.9302 12.8717L14.4043 11.4041C14.9338 11.0867 15.2323 10.7 15.2323 10.3331C15.2323 9.96613 14.9338 9.56946 14.4043 9.26204L11.9302 7.79437C11.5836 7.58612 11.2659 7.48695 11.006 7.48695Z" fill="#203864"/>
</svg>
