<svg width="24" height="25" viewBox="0 0 24 25" fill="none" xmlns="http://www.w3.org/2000/svg">
<path d="M16 23.4165H8C4.35 23.4165 2.25 21.3165 2.25 17.6665V7.6665C2.25 4.0165 4.35 1.9165 8 1.9165H16C19.65 1.9165 21.75 4.0165 21.75 7.6665V17.6665C21.75 21.3165 19.65 23.4165 16 23.4165ZM8 3.4165C5.14 3.4165 3.75 4.8065 3.75 7.6665V17.6665C3.75 20.5265 5.14 21.9165 8 21.9165H16C18.86 21.9165 20.25 20.5265 20.25 17.6665V7.6665C20.25 4.8065 18.86 3.4165 16 3.4165H8Z" fill="#203864"/>
<path d="M18.5 9.9165H16.5C14.98 9.9165 13.75 8.6865 13.75 7.1665V5.1665C13.75 4.7565 14.09 4.4165 14.5 4.4165C14.91 4.4165 15.25 4.7565 15.25 5.1665V7.1665C15.25 7.8565 15.81 8.4165 16.5 8.4165H18.5C18.91 8.4165 19.25 8.7565 19.25 9.1665C19.25 9.5765 18.91 9.9165 18.5 9.9165Z" fill="#203864"/>
<path d="M12 14.4165H8C7.59 14.4165 7.25 14.0765 7.25 13.6665C7.25 13.2565 7.59 12.9165 8 12.9165H12C12.41 12.9165 12.75 13.2565 12.75 13.6665C12.75 14.0765 12.41 14.4165 12 14.4165Z" fill="#203864"/>
<path d="M16 18.4165H8C7.59 18.4165 7.25 18.0765 7.25 17.6665C7.25 17.2565 7.59 16.9165 8 16.9165H16C16.41 16.9165 16.75 17.2565 16.75 17.6665C16.75 18.0765 16.41 18.4165 16 18.4165Z" fill="#203864"/>
</svg>
