<svg width="52" height="52" viewBox="0 0 52 52" fill="none" xmlns="http://www.w3.org/2000/svg">
<circle cx="26" cy="26" r="26" fill="#C2D7FE"/>
<g clip-path="url(#clip0_475_6111)">
<mask id="path-2-inside-1_475_6111" fill="white">
<path d="M28.7991 26.3174C28.6374 27.7425 27.4352 28.8171 26.003 28.8171C25.8965 28.8171 25.7889 28.811 25.6826 28.7988C24.1392 28.6238 23.0261 27.2256 23.2011 25.6823C23.3628 24.2572 24.565 23.1826 25.9972 23.1826C26.1037 23.1826 26.2114 23.1887 26.3176 23.2009C27.861 23.3759 28.9741 24.774 28.7991 26.3174ZM34.7169 31.0782C36.6465 36.0435 37.2114 40.2922 35.1161 41.5227C34.76 41.732 34.3523 41.8379 33.9046 41.8379C31.826 41.8377 29.0273 39.469 26.327 36.2356C23.7653 39.734 21.0473 42.3128 18.9427 42.3128C18.562 42.3128 18.2068 42.2309 17.8869 42.0696C15.6204 40.9252 16.0434 36.3077 17.8478 30.9313C16.2989 30.6821 14.8635 30.3688 13.5906 29.9958C9.85435 28.9011 7.97354 27.4636 8.00028 25.7237C8.03831 23.241 12.1111 21.6741 17.2831 20.9212C15.3537 15.956 14.7888 11.7073 16.8841 10.4768C17.2402 10.2676 17.648 10.1616 18.0958 10.1616C20.1744 10.1616 22.9729 12.5304 25.6734 15.7638C28.2351 12.2654 30.9531 9.68652 33.0577 9.68652C33.4383 9.68652 33.7935 9.76849 34.1133 9.92981C36.3798 11.0742 35.9568 15.6917 34.1524 21.0681C35.7013 21.3173 37.1367 21.6306 38.4096 22.0036C42.1459 23.0982 44.0267 24.5357 43.9999 26.2757C43.9617 28.7584 39.8889 30.3252 34.7169 31.0782ZM26.7943 17.162C27.6207 18.2334 28.4264 19.3679 29.1872 20.5209C30.2914 20.5928 31.3672 20.6934 32.4039 20.8213C32.9282 19.2939 33.3341 17.8436 33.5986 16.5237C34.304 13.0053 33.762 11.6981 33.3307 11.4803C33.2548 11.442 33.1654 11.4234 33.0577 11.4234C31.7932 11.4232 29.4095 13.5113 26.7943 17.162ZM31.0032 28.5257C30.7929 28.9421 30.5755 29.3604 30.3517 29.7789C31.0064 29.7418 31.6339 29.6942 32.2348 29.6379C31.9637 29.0317 31.6739 28.4165 31.3662 27.7948C31.2467 28.0391 31.1258 28.2829 31.0032 28.5257ZM30.3623 25.8614C30.0339 25.2562 29.6925 24.6488 29.3355 24.041C28.9628 23.4063 28.5879 22.7951 28.213 22.2039C27.5044 22.1683 26.7863 22.1433 26.0594 22.1322C25.7406 22.1274 25.4233 22.1249 25.1087 22.1249C24.6148 22.1249 24.1366 22.1319 23.6663 22.1425C23.29 22.8206 22.9162 23.5256 22.5472 24.2565C22.2295 24.8856 21.9272 25.5135 21.6379 26.1382C21.9663 26.7433 22.3077 27.3508 22.6647 27.9585C23.0374 28.5932 23.4123 29.2045 23.7872 29.7956C24.4959 29.8312 25.2139 29.8562 25.9408 29.8673C26.2596 29.8722 26.5771 29.8746 26.8915 29.8746C27.3854 29.8746 27.8636 29.8677 28.3339 29.8571C28.7102 29.179 29.0841 28.4739 29.4531 27.743C29.7707 27.1139 30.073 26.486 30.3623 25.8614ZM26.8919 31.6113C26.5686 31.6113 26.2421 31.6089 25.9142 31.6038C25.5968 31.599 25.2809 31.5913 24.9663 31.5818C25.3905 32.1991 25.8127 32.7864 26.2303 33.3428C26.5922 32.7923 26.9561 32.2142 27.3201 31.6095C27.1772 31.6106 27.0345 31.6113 26.8919 31.6113ZM20.7586 28.1315C20.5655 28.5932 20.3807 29.0513 20.206 29.5042C20.6801 29.5587 21.1633 29.607 21.653 29.6499C21.4879 29.3788 21.3255 29.1079 21.167 28.8379C21.0294 28.6033 20.8933 28.3678 20.7586 28.1315ZM20.997 23.4739C21.2073 23.0574 21.4247 22.6391 21.6485 22.2206C20.9939 22.2578 20.3663 22.3054 19.7654 22.3616C20.0365 22.9678 20.3263 23.5831 20.634 24.2046C20.7533 23.9604 20.8744 23.7168 20.997 23.4739ZM25.1087 20.3884C25.432 20.3884 25.7581 20.3909 26.086 20.3959C26.4034 20.4008 26.7193 20.4084 27.0339 20.4179C26.6097 19.8006 26.1876 19.2133 25.7699 18.6568C25.408 19.2073 25.0441 19.7853 24.6799 20.39C24.823 20.3891 24.9659 20.3884 25.1087 20.3884ZM31.2415 23.8682C31.4346 23.4065 31.6194 22.9484 31.794 22.4955C31.32 22.441 30.8367 22.3927 30.347 22.3498C30.5122 22.6209 30.6745 22.8918 30.8329 23.1618C30.9708 23.3962 31.1069 23.6319 31.2415 23.8682ZM19.0604 20.6986C20.2277 20.5746 21.4313 20.4885 22.6411 20.439C23.2796 19.3366 23.9544 18.2529 24.6492 17.2224C21.8651 13.809 19.4051 11.8981 18.0958 11.8981C17.9593 11.8981 17.8506 11.9231 17.7634 11.9742C17.3468 12.2189 16.8889 13.5581 17.8159 17.0245C18.1215 18.1674 18.5423 19.4038 19.0604 20.6986ZM18.4414 29.2672C18.8225 28.2553 19.2455 27.2273 19.7029 26.1998C19.0662 24.9832 18.4799 23.7628 17.961 22.5677C12.5065 23.3056 9.7512 24.8004 9.73661 25.7504C9.72915 26.2337 10.6354 27.3206 14.0789 28.3296C15.3712 28.7082 16.8446 29.0222 18.4414 29.2672ZM25.2059 34.8377C24.3795 33.7663 23.5738 32.6318 22.813 31.4788C21.7088 31.4069 20.633 31.3064 19.5963 31.1784C19.0721 32.7058 18.6661 34.1561 18.4016 35.4761C17.6962 38.9944 18.2382 40.3016 18.6695 40.5194C18.7454 40.5578 18.8349 40.5763 18.9425 40.5763C20.207 40.5767 22.5907 38.4885 25.2059 34.8377ZM32.9398 31.301C31.7725 31.425 30.5689 31.5111 29.3591 31.5606C28.7206 32.6627 28.0458 33.7467 27.351 34.7771C30.1352 38.1906 32.5951 40.1014 33.9044 40.1016C34.0407 40.1016 34.1494 40.0766 34.2366 40.0255C34.6532 39.7808 35.1111 38.4417 34.1842 34.9752C33.8787 33.8323 33.4578 32.5957 32.9398 31.301ZM42.2634 26.2491C42.2709 25.7659 41.3646 24.679 37.9211 23.6699C36.629 23.2913 35.1556 22.9772 33.5589 22.7324C33.1777 23.7442 32.7547 24.7722 32.2973 25.7997C32.9341 27.0163 33.5203 28.2367 34.0392 29.4318C39.4935 28.6941 42.2488 27.1993 42.2634 26.2491Z"/>
</mask>
<path d="M28.7991 26.3174L29.2959 26.3737L29.2959 26.3737L28.7991 26.3174ZM25.6826 28.7988L25.7394 28.3021L25.7389 28.302L25.6826 28.7988ZM23.2011 25.6823L22.7043 25.626L22.7043 25.626L23.2011 25.6823ZM26.3176 23.2009L26.2608 23.6976L26.2613 23.6977L26.3176 23.2009ZM34.7169 31.0782L34.6449 30.5834L34.0234 30.6739L34.2509 31.2593L34.7169 31.0782ZM35.1161 41.5227L34.8629 41.0916L34.8629 41.0916L35.1161 41.5227ZM33.9046 41.8379L33.9045 42.3379H33.9046V41.8379ZM26.327 36.2356L26.7108 35.9151L26.3011 35.4246L25.9236 35.9402L26.327 36.2356ZM17.8869 42.0696L17.6615 42.5159L17.6617 42.516L17.8869 42.0696ZM17.8478 30.9313L18.3218 31.0904L18.5095 30.5313L17.9272 30.4376L17.8478 30.9313ZM13.5906 29.9958L13.7312 29.516L13.7312 29.516L13.5906 29.9958ZM8.00028 25.7237L8.50022 25.7313L8.50022 25.7313L8.00028 25.7237ZM17.2831 20.9212L17.3551 21.416L17.9766 21.3255L17.7492 20.7401L17.2831 20.9212ZM16.8841 10.4768L17.1373 10.908L17.1373 10.9079L16.8841 10.4768ZM25.6734 15.7638L25.2896 16.0843L25.6993 16.5748L26.0768 16.0592L25.6734 15.7638ZM34.1133 9.92981L34.3387 9.48347L34.3385 9.48337L34.1133 9.92981ZM34.1524 21.0681L33.6784 20.909L33.4907 21.4681L34.073 21.5617L34.1524 21.0681ZM38.4096 22.0036L38.269 22.4834L38.269 22.4834L38.4096 22.0036ZM43.9999 26.2757L44.4999 26.2834L44.4999 26.2834L43.9999 26.2757ZM26.7943 17.162L26.3878 16.8708L26.1713 17.173L26.3984 17.4674L26.7943 17.162ZM29.1872 20.5209L28.7699 20.7963L28.9067 21.0037L29.1547 21.0199L29.1872 20.5209ZM32.4039 20.8213L32.3426 21.3176L32.7452 21.3673L32.8768 20.9837L32.4039 20.8213ZM33.5986 16.5237L33.1084 16.4254L33.1084 16.4254L33.5986 16.5237ZM33.3307 11.4803L33.105 11.9265L33.1053 11.9267L33.3307 11.4803ZM33.0577 11.4234L33.0576 11.9234H33.0577V11.4234ZM31.0032 28.5257L30.5569 28.3003V28.3003L31.0032 28.5257ZM30.3517 29.7789L29.9108 29.5431L29.4907 30.3286L30.38 30.2781L30.3517 29.7789ZM32.2348 29.6379L32.2814 30.1357L32.976 30.0707L32.6912 29.4338L32.2348 29.6379ZM31.3662 27.7948L31.8143 27.573L31.3634 26.6621L30.917 27.5752L31.3662 27.7948ZM30.3623 25.8614L30.816 26.0715L30.9215 25.8436L30.8018 25.6229L30.3623 25.8614ZM29.3355 24.041L28.9043 24.2942L28.9044 24.2942L29.3355 24.041ZM28.213 22.2039L28.6353 21.9361L28.4966 21.7176L28.2381 21.7046L28.213 22.2039ZM26.0594 22.1322L26.0671 21.6323H26.067L26.0594 22.1322ZM23.6663 22.1425L23.6551 21.6426L23.3683 21.6491L23.2291 21.8999L23.6663 22.1425ZM22.5472 24.2565L22.1008 24.0311L22.1008 24.0312L22.5472 24.2565ZM21.6379 26.1382L21.1842 25.928L21.0787 26.1559L21.1984 26.3766L21.6379 26.1382ZM22.6647 27.9585L23.0959 27.7054L23.0958 27.7053L22.6647 27.9585ZM23.7872 29.7956L23.365 30.0634L23.5036 30.282L23.7621 30.295L23.7872 29.7956ZM25.9408 29.8673L25.9332 30.3673L25.9332 30.3673L25.9408 29.8673ZM28.3339 29.8571L28.3451 30.3569L28.6319 30.3505L28.7711 30.0997L28.3339 29.8571ZM29.4531 27.743L29.8994 27.9684L29.8994 27.9684L29.4531 27.743ZM25.9142 31.6038L25.9219 31.1039H25.9219L25.9142 31.6038ZM24.9663 31.5818L24.9814 31.082L23.9956 31.0521L24.5542 31.8649L24.9663 31.5818ZM26.2303 33.3428L25.8304 33.6429L26.2574 34.2117L26.6481 33.6174L26.2303 33.3428ZM27.3201 31.6095L27.7485 31.8674L28.2086 31.1031L27.3165 31.1096L27.3201 31.6095ZM20.7586 28.1315L21.1929 27.8838L20.6894 27.0008L20.2973 27.9386L20.7586 28.1315ZM20.206 29.5042L19.7395 29.3243L19.507 29.9271L20.1489 30.0009L20.206 29.5042ZM21.653 29.6499L21.6094 30.148L22.5945 30.2343L22.08 29.3898L21.653 29.6499ZM21.167 28.8379L20.7356 29.0908L20.7358 29.0911L21.167 28.8379ZM20.997 23.4739L20.5507 23.2485L20.5506 23.2486L20.997 23.4739ZM21.6485 22.2206L22.0894 22.4564L22.5095 21.6709L21.6202 21.7214L21.6485 22.2206ZM19.7654 22.3616L19.7188 21.8638L19.0242 21.9288L19.309 22.5657L19.7654 22.3616ZM20.634 24.2046L20.186 24.4264L20.637 25.3374L21.0833 24.4241L20.634 24.2046ZM26.086 20.3959L26.0783 20.8958L26.0783 20.8958L26.086 20.3959ZM27.0339 20.4179L27.0188 20.9177L28.0046 20.9476L27.446 20.1348L27.0339 20.4179ZM25.7699 18.6568L26.1699 18.3567L25.7429 17.7877L25.3521 18.3821L25.7699 18.6568ZM24.6799 20.39L24.2516 20.132L23.7919 20.8954L24.683 20.89L24.6799 20.39ZM31.2415 23.8682L30.807 24.1156L31.3103 24.9995L31.7028 24.0611L31.2415 23.8682ZM31.794 22.4955L32.2605 22.6754L32.4931 22.0726L31.8512 21.9988L31.794 22.4955ZM30.347 22.3498L30.3906 21.8517L29.4055 21.7654L29.92 22.61L30.347 22.3498ZM30.8329 23.1618L30.4016 23.4148L30.4019 23.4153L30.8329 23.1618ZM19.0604 20.6986L18.5962 20.8843L18.7369 21.2357L19.1132 21.1958L19.0604 20.6986ZM22.6411 20.439L22.6615 20.9385L22.936 20.9273L23.0738 20.6896L22.6411 20.439ZM24.6492 17.2224L25.0638 17.502L25.2713 17.1941L25.0367 16.9064L24.6492 17.2224ZM17.7634 11.9742L17.5107 11.5427L17.5102 11.5431L17.7634 11.9742ZM17.8159 17.0245L18.2989 16.8953L18.2989 16.8953L17.8159 17.0245ZM18.4414 29.2672L18.3655 29.7614L18.7663 29.8229L18.9093 29.4434L18.4414 29.2672ZM19.7029 26.1998L20.1597 26.4032L20.2581 26.1822L20.1459 25.968L19.7029 26.1998ZM17.961 22.5677L18.4197 22.3686L18.269 22.0215L17.894 22.0723L17.961 22.5677ZM9.73661 25.7504L10.2366 25.7581L10.2366 25.7581L9.73661 25.7504ZM14.0789 28.3296L13.9383 28.8095L13.9384 28.8095L14.0789 28.3296ZM25.2059 34.8377L25.6124 35.1289L25.8289 34.8267L25.6018 34.5323L25.2059 34.8377ZM22.813 31.4788L23.2304 31.2034L23.0935 30.996L22.8455 30.9798L22.813 31.4788ZM19.5963 31.1784L19.6576 30.6821L19.2551 30.6325L19.1234 31.0161L19.5963 31.1784ZM18.4016 35.4761L18.8918 35.5743L18.8919 35.5743L18.4016 35.4761ZM18.6695 40.5194L18.8952 40.0732L18.8949 40.073L18.6695 40.5194ZM18.9425 40.5763L18.9427 40.0763H18.9425V40.5763ZM32.9398 31.301L33.404 31.1152L33.2634 30.7638L32.887 30.8038L32.9398 31.301ZM29.3591 31.5606L29.3387 31.061L29.0642 31.0722L28.9265 31.3099L29.3591 31.5606ZM27.351 34.7771L26.9365 34.4976L26.7289 34.8054L26.9636 35.0931L27.351 34.7771ZM33.9044 40.1016L33.9044 40.6016H33.9044V40.1016ZM34.2366 40.0255L34.4893 40.457L34.4898 40.4567L34.2366 40.0255ZM34.1842 34.9752L33.7011 35.1043L33.7011 35.1044L34.1842 34.9752ZM42.2634 26.2491L41.7635 26.2414L41.7635 26.2415L42.2634 26.2491ZM37.9211 23.6699L38.0617 23.1901L38.0617 23.1901L37.9211 23.6699ZM33.5589 22.7324L33.6346 22.2381L33.2339 22.1767L33.0909 22.5561L33.5589 22.7324ZM32.2973 25.7997L31.8405 25.5964L31.7421 25.8173L31.8543 26.0316L32.2973 25.7997ZM34.0392 29.4318L33.5805 29.6309L33.7312 29.978L34.1062 29.9273L34.0392 29.4318ZM28.3023 26.261C28.1692 27.4339 27.1804 28.3171 26.003 28.3171V29.3171C27.6901 29.3171 29.1056 28.0511 29.2959 26.3737L28.3023 26.261ZM26.003 28.3171C25.9154 28.3171 25.8267 28.3121 25.7394 28.3021L25.6258 29.2956C25.751 29.3099 25.8777 29.3171 26.003 29.3171V28.3171ZM25.7389 28.302C24.47 28.1581 23.554 27.0076 23.6979 25.7387L22.7043 25.626C22.4982 27.4436 23.8084 29.0895 25.6262 29.2957L25.7389 28.302ZM23.6979 25.7387C23.831 24.5658 24.8198 23.6826 25.9972 23.6826V22.6826C24.3102 22.6826 22.8946 23.9486 22.7043 25.626L23.6979 25.7387ZM25.9972 23.6826C26.0848 23.6826 26.1735 23.6877 26.2608 23.6976L26.3744 22.7041C26.2492 22.6898 26.1225 22.6826 25.9972 22.6826V23.6826ZM26.2613 23.6977C27.5303 23.8416 28.4462 24.992 28.3023 26.261L29.2959 26.3737C29.5021 24.556 28.1918 22.9102 26.374 22.7041L26.2613 23.6977ZM34.2509 31.2593C35.2075 33.7209 35.8112 35.9701 35.9269 37.7338C36.0451 39.5343 35.6481 40.6305 34.8629 41.0916L35.3693 41.9539C36.6795 41.1845 37.0477 39.5411 36.9248 37.6683C36.7995 35.7586 36.156 33.4008 35.183 30.8971L34.2509 31.2593ZM34.8629 41.0916C34.59 41.2519 34.2711 41.3379 33.9046 41.3379V42.3379C34.4334 42.3379 34.93 42.212 35.3694 41.9538L34.8629 41.0916ZM33.9046 41.3379C33.0359 41.3378 31.9278 40.8316 30.6535 39.8527C29.3961 38.8868 28.0478 37.5161 26.7108 35.9151L25.9432 36.5561C27.3065 38.1885 28.7077 39.6189 30.0443 40.6457C31.3641 41.6596 32.6947 42.3378 33.9045 42.3379L33.9046 41.3379ZM25.9236 35.9402C24.655 37.6726 23.3608 39.1587 22.1381 40.2064C20.8973 41.2696 19.8089 41.8128 18.9427 41.8128V42.8128C20.1812 42.8128 21.504 42.0666 22.7888 40.9658C24.0916 39.8494 25.4373 38.297 26.7304 36.531L25.9236 35.9402ZM18.9427 41.8128C18.6354 41.8128 18.3579 41.7471 18.1121 41.6231L17.6617 42.516C18.0557 42.7147 18.4887 42.8128 18.9427 42.8128V41.8128ZM18.1123 41.6232C17.2619 41.1939 16.7933 40.0423 16.8406 38.0996C16.8869 36.2017 17.4268 33.7573 18.3218 31.0904L17.3738 30.7722C16.4645 33.4816 15.8907 36.0342 15.8409 38.0752C15.7923 40.0715 16.2455 41.8009 17.6615 42.5159L18.1123 41.6232ZM17.9272 30.4376C16.3945 30.191 14.9801 29.882 13.7312 29.516L13.45 30.4756C14.7468 30.8557 16.2032 31.1731 17.7684 31.4249L17.9272 30.4376ZM13.7312 29.516C11.8887 28.9762 10.5515 28.3644 9.68792 27.7045C8.83158 27.05 8.49009 26.3905 8.50022 25.7313L7.50034 25.716C7.48373 26.7968 8.06927 27.726 9.08071 28.499C10.0849 29.2665 11.5562 29.9208 13.45 30.4756L13.7312 29.516ZM8.50022 25.7313C8.51454 24.7967 9.29382 23.9062 10.9317 23.1251C12.5357 22.3601 14.7904 21.7894 17.3551 21.416L17.2111 20.4264C14.6038 20.806 12.2361 21.3951 10.5012 22.2225C8.80019 23.0337 7.52405 24.168 7.50034 25.716L8.50022 25.7313ZM17.7492 20.7401C16.7926 18.2785 16.189 16.0294 16.0733 14.2658C15.9551 12.4653 16.3521 11.3691 17.1373 10.908L16.6309 10.0457C15.3208 10.815 14.9525 12.4584 15.0754 14.3312C15.2007 16.2409 15.8442 18.5987 16.8171 21.1023L17.7492 20.7401ZM17.1373 10.9079C17.4102 10.7476 17.7291 10.6616 18.0958 10.6616V9.66163C17.5668 9.66163 17.0703 9.7875 16.6308 10.0457L17.1373 10.9079ZM18.0958 10.6616C18.9646 10.6616 20.0725 11.1678 21.3468 12.1467C22.6042 13.1126 23.9525 14.4833 25.2896 16.0843L26.0571 15.4433C24.6938 13.8109 23.2926 12.3805 21.956 11.3537C20.6362 10.3398 19.3056 9.66163 18.0958 9.66163V10.6616ZM26.0768 16.0592C27.3454 14.3268 28.6395 12.8406 29.8623 11.7929C31.1031 10.7298 32.1915 10.1865 33.0577 10.1865V9.18652C31.8192 9.18652 30.4964 9.93274 29.2116 11.0336C27.9088 12.1499 26.5631 13.7024 25.27 15.4684L26.0768 16.0592ZM33.0577 10.1865C33.365 10.1865 33.6423 10.2523 33.8882 10.3762L34.3385 9.48337C33.9446 9.28471 33.5117 9.18652 33.0577 9.18652V10.1865ZM33.888 10.3761C34.7384 10.8055 35.2069 11.957 35.1596 13.8998C35.1133 15.7976 34.5734 18.2421 33.6784 20.909L34.6264 21.2272C35.5357 18.5177 36.1095 15.9652 36.1593 13.9241C36.2079 11.9279 35.7548 10.1985 34.3387 9.48347L33.888 10.3761ZM34.073 21.5617C35.6057 21.8083 37.0201 22.1174 38.269 22.4834L38.5502 21.5237C37.2534 21.1437 35.797 20.8262 34.2318 20.5744L34.073 21.5617ZM38.269 22.4834C40.1115 23.0232 41.4487 23.635 42.3123 24.2949C43.1686 24.9494 43.5101 25.6089 43.5 26.268L44.4999 26.2834C44.5165 25.2026 43.9309 24.2733 42.9195 23.5004C41.9153 22.7329 40.444 22.0786 38.5502 21.5237L38.269 22.4834ZM43.5 26.268C43.4856 27.2027 42.7063 28.0932 41.0684 28.8743C39.4643 29.6392 37.2097 30.21 34.6449 30.5834L34.789 31.573C37.3962 31.1934 39.7639 30.6043 41.4988 29.7769C43.1999 28.9657 44.4761 27.8314 44.4999 26.2834L43.5 26.268ZM26.3984 17.4674C27.2167 18.5283 28.0153 19.6527 28.7699 20.7963L29.6045 20.2456C28.8376 19.0831 28.0247 17.9386 27.1902 16.8566L26.3984 17.4674ZM29.1547 21.0199C30.2499 21.0912 31.316 21.1908 32.3426 21.3176L32.4652 20.3251C31.4184 20.1959 30.333 20.0945 29.2197 20.022L29.1547 21.0199ZM32.8768 20.9837C33.4066 19.4402 33.8191 17.9681 34.0889 16.6219L33.1084 16.4254C32.8492 17.719 32.4497 19.1476 31.931 20.659L32.8768 20.9837ZM34.0889 16.6219C34.4476 14.8325 34.4974 13.5677 34.3869 12.701C34.3316 12.2675 34.2343 11.9181 34.104 11.6482C33.9775 11.386 33.7988 11.1565 33.556 11.034L33.1053 11.9267C33.0782 11.913 33.129 11.9286 33.2034 12.0828C33.274 12.2291 33.349 12.4673 33.3949 12.8275C33.4869 13.5485 33.455 14.6965 33.1084 16.4254L34.0889 16.6219ZM33.5563 11.0341C33.394 10.9521 33.223 10.9234 33.0577 10.9234V11.9234C33.083 11.9234 33.0975 11.9256 33.1041 11.9269C33.11 11.9282 33.1093 11.9287 33.105 11.9265L33.5563 11.0341ZM33.0578 10.9234C32.6156 10.9233 32.1398 11.1012 31.6652 11.3725C31.1818 11.6488 30.6542 12.0486 30.097 12.5529C28.9818 13.5623 27.7089 15.0267 26.3878 16.8708L27.2008 17.4532C28.4949 15.6467 29.7214 14.2417 30.768 13.2943C31.2917 12.8203 31.7605 12.4699 32.1615 12.2407C32.5711 12.0065 32.8675 11.9233 33.0576 11.9234L33.0578 10.9234ZM30.5569 28.3003C30.3484 28.7132 30.1328 29.1281 29.9108 29.5431L30.7926 30.0147C31.0183 29.5928 31.2375 29.171 31.4496 28.7511L30.5569 28.3003ZM30.38 30.2781C31.0408 30.2406 31.6744 30.1926 32.2814 30.1357L32.1881 29.1401C31.5934 29.1958 30.972 29.2429 30.3234 29.2797L30.38 30.2781ZM32.6912 29.4338C32.4174 28.8215 32.1248 28.2003 31.8143 27.573L30.9181 28.0166C31.223 28.6326 31.51 29.2419 31.7783 29.842L32.6912 29.4338ZM30.917 27.5752C30.7983 27.8179 30.6784 28.0597 30.5569 28.3003L31.4496 28.7511C31.5733 28.5061 31.6951 28.2604 31.8153 28.0144L30.917 27.5752ZM30.8018 25.6229C30.471 25.0133 30.1268 24.4009 29.7666 23.7877L28.9044 24.2942C29.2582 24.8966 29.5968 25.4991 29.9228 26.0998L30.8018 25.6229ZM29.7667 23.7878C29.3908 23.1477 29.0129 22.5316 28.6353 21.9361L27.7908 22.4717C28.1629 23.0585 28.5348 23.6649 28.9043 24.2942L29.7667 23.7878ZM28.2381 21.7046C27.5243 21.6687 26.8004 21.6435 26.0671 21.6323L26.0518 22.6322C26.7722 22.6432 27.4844 22.668 28.1879 22.7033L28.2381 21.7046ZM26.067 21.6323C25.7457 21.6274 25.4259 21.6249 25.1087 21.6249V22.6249C25.4208 22.6249 25.7355 22.6273 26.0518 22.6322L26.067 21.6323ZM25.1087 21.6249C24.6101 21.6249 24.128 21.6319 23.6551 21.6426L23.6776 22.6423C24.1451 22.6318 24.6195 22.6249 25.1087 22.6249V21.6249ZM23.2291 21.8999C22.8497 22.5837 22.4728 23.2944 22.1008 24.0311L22.9935 24.4818C23.3596 23.7568 23.7304 23.0575 24.1035 22.3851L23.2291 21.8999ZM22.1008 24.0312C21.7804 24.6658 21.4756 25.2988 21.1842 25.928L22.0916 26.3483C22.3788 25.7283 22.6787 25.1054 22.9935 24.4818L22.1008 24.0312ZM21.1984 26.3766C21.5292 26.9862 21.8734 27.5986 22.2336 28.2118L23.0958 27.7053C22.742 27.1029 22.4034 26.5005 22.0774 25.8997L21.1984 26.3766ZM22.2335 28.2117C22.6094 28.8518 22.9873 29.4679 23.365 30.0634L24.2094 29.5278C23.8373 28.941 23.4654 28.3347 23.0959 27.7054L22.2335 28.2117ZM23.7621 30.295C24.4759 30.3308 25.1998 30.356 25.9332 30.3673L25.9484 29.3674C25.228 29.3564 24.5158 29.3316 23.8123 29.2962L23.7621 30.295ZM25.9332 30.3673C26.2545 30.3722 26.5745 30.3746 26.8915 30.3746V29.3746C26.5796 29.3746 26.2647 29.3722 25.9484 29.3674L25.9332 30.3673ZM26.8915 30.3746C27.3901 30.3746 27.8722 30.3676 28.3451 30.3569L28.3226 29.3572C27.8551 29.3677 27.3807 29.3746 26.8915 29.3746V30.3746ZM28.7711 30.0997C29.1505 29.4159 29.5275 28.7051 29.8994 27.9684L29.0067 27.5177C28.6406 28.2428 28.2698 28.9421 27.8967 29.6145L28.7711 30.0997ZM29.8994 27.9684C30.2198 27.3337 30.5246 26.7007 30.816 26.0715L29.9086 25.6512C29.6214 26.2713 29.3215 26.8941 29.0067 27.5177L29.8994 27.9684ZM26.8919 31.1113C26.5711 31.1113 26.2471 31.1089 25.9219 31.1039L25.9066 32.1038C26.237 32.1088 26.5661 32.1113 26.8919 32.1113V31.1113ZM25.9219 31.1039C25.6074 31.0991 25.2941 31.0915 24.9814 31.082L24.9511 32.0815C25.2678 32.0911 25.5862 32.0989 25.9066 32.1038L25.9219 31.1039ZM24.5542 31.8649C24.9823 32.4879 25.4085 33.0808 25.8304 33.6429L26.6302 33.0426C26.2168 32.4919 25.7987 31.9103 25.3784 31.2986L24.5542 31.8649ZM26.6481 33.6174C27.0137 33.0613 27.3812 32.4776 27.7485 31.8674L26.8917 31.3517C26.5311 31.9508 26.1706 32.5233 25.8125 33.0681L26.6481 33.6174ZM27.3165 31.1096C27.1743 31.1106 27.0329 31.1113 26.8919 31.1113V32.1113C27.036 32.1113 27.1801 32.1106 27.3238 32.1095L27.3165 31.1096ZM20.2973 27.9386C20.1026 28.4042 19.916 28.8666 19.7395 29.3243L20.6725 29.6842C20.8453 29.2361 21.0283 28.7823 21.2198 28.3244L20.2973 27.9386ZM20.1489 30.0009C20.6279 30.056 21.1157 30.1048 21.6094 30.148L21.6967 29.1518C21.2109 29.1093 20.7322 29.0614 20.2631 29.0075L20.1489 30.0009ZM22.08 29.3898C21.9161 29.1207 21.7552 28.8522 21.5982 28.5848L20.7358 29.0911C20.8959 29.3637 21.0596 29.6369 21.226 29.91L22.08 29.3898ZM21.5983 28.585C21.4618 28.3522 21.3267 28.1184 21.1929 27.8838L20.3242 28.3792C20.4599 28.6172 20.5971 28.8544 20.7356 29.0908L21.5983 28.585ZM21.4433 23.6992C21.6518 23.2863 21.8674 22.8715 22.0894 22.4564L21.2076 21.9848C20.9819 22.4067 20.7627 22.8285 20.5507 23.2485L21.4433 23.6992ZM21.6202 21.7214C20.9595 21.7589 20.3258 21.807 19.7188 21.8638L19.8121 22.8594C20.4068 22.8038 21.0282 22.7566 21.6768 22.7198L21.6202 21.7214ZM19.309 22.5657C19.5828 23.1781 19.8754 23.7992 20.186 24.4264L21.0821 23.9827C20.7772 23.3669 20.4902 22.7576 20.2219 22.1575L19.309 22.5657ZM21.0833 24.4241C21.2016 24.1819 21.3217 23.9402 21.4434 23.6991L20.5506 23.2486C20.4271 23.4934 20.3051 23.7389 20.1848 23.9851L21.0833 24.4241ZM25.1087 20.8884C25.4295 20.8884 25.7531 20.8908 26.0783 20.8958L26.0937 19.896C25.7632 19.8909 25.4345 19.8884 25.1087 19.8884V20.8884ZM26.0783 20.8958C26.3928 20.9007 26.7062 20.9082 27.0188 20.9177L27.0491 19.9182C26.7324 19.9086 26.414 19.9009 26.0936 19.896L26.0783 20.8958ZM27.446 20.1348C27.0179 19.5118 26.5917 18.9189 26.1699 18.3567L25.37 18.9569C25.7834 19.5078 26.2015 20.0894 26.6219 20.7011L27.446 20.1348ZM25.3521 18.3821C24.9865 18.9383 24.619 19.5219 24.2516 20.132L25.1082 20.6479C25.4691 20.0488 25.8296 19.4763 26.1877 18.9315L25.3521 18.3821ZM24.683 20.89C24.8257 20.8891 24.9675 20.8884 25.1087 20.8884V19.8884C24.9644 19.8884 24.8203 19.8891 24.6769 19.89L24.683 20.89ZM31.7028 24.0611C31.8975 23.5956 32.084 23.1331 32.2605 22.6754L31.3275 22.3156C31.1547 22.7636 30.9717 23.2174 30.7802 23.6753L31.7028 24.0611ZM31.8512 21.9988C31.3721 21.9437 30.8843 21.895 30.3906 21.8517L30.3034 22.8479C30.7891 22.8904 31.2678 22.9383 31.7369 22.9922L31.8512 21.9988ZM29.92 22.61C30.0839 22.879 30.2448 23.1475 30.4016 23.4148L31.2642 22.9088C31.1042 22.6361 30.9404 22.3628 30.774 22.0897L29.92 22.61ZM30.4019 23.4153C30.5385 23.6475 30.6734 23.8811 30.807 24.1156L31.676 23.6208C31.5404 23.3826 31.4031 23.145 31.2639 22.9083L30.4019 23.4153ZM19.1132 21.1958C20.269 21.073 21.4617 20.9876 22.6615 20.9385L22.6207 19.9394C21.4008 19.9893 20.1864 20.0762 19.0076 20.2014L19.1132 21.1958ZM23.0738 20.6896C23.707 19.5963 24.3758 18.5223 25.0638 17.502L24.2346 16.9429C23.533 17.9835 22.8522 19.077 22.2084 20.1883L23.0738 20.6896ZM25.0367 16.9064C23.63 15.1818 22.2945 13.8231 21.1324 12.8903C20.5516 12.4241 20.0051 12.0569 19.5068 11.8041C19.0155 11.5549 18.5348 11.3981 18.0958 11.3981V12.3981C18.3115 12.3981 18.6292 12.4802 19.0544 12.6959C19.4727 12.9081 19.9606 13.232 20.5064 13.6702C21.5978 14.5462 22.8842 15.8496 24.2617 17.5385L25.0367 16.9064ZM18.0958 11.3981C17.8999 11.3981 17.6965 11.434 17.5107 11.5427L18.0161 12.4056C18.0047 12.4123 18.0187 12.3981 18.0958 12.3981V11.3981ZM17.5102 11.5431C17.2757 11.6808 17.1119 11.9211 17.0023 12.1908C16.8895 12.4685 16.8145 12.8233 16.7868 13.2595C16.7315 14.1315 16.8614 15.3905 17.3328 17.1536L18.2989 16.8953C17.8434 15.192 17.7388 14.0482 17.7848 13.3228C17.8078 12.9603 17.8675 12.7179 17.9287 12.5673C17.9932 12.4087 18.0429 12.3899 18.0167 12.4053L17.5102 11.5431ZM17.3328 17.1536C17.6446 18.3195 18.0722 19.575 18.5962 20.8843L19.5246 20.5128C19.0123 19.2326 18.5984 18.0154 18.2989 16.8953L17.3328 17.1536ZM18.9093 29.4434C19.2868 28.4411 19.7061 27.4222 20.1597 26.4032L19.2461 25.9965C18.785 27.0324 18.3582 28.0695 17.9735 29.0909L18.9093 29.4434ZM20.1459 25.968C19.5143 24.7612 18.9334 23.5517 18.4197 22.3686L17.5024 22.7669C18.0265 23.9739 18.618 25.2052 19.2599 26.4317L20.1459 25.968ZM17.894 22.0723C15.1378 22.4451 13.0388 23.0121 11.6129 23.6195C10.9021 23.9223 10.3385 24.2436 9.9425 24.5705C9.56945 24.8784 9.24384 25.2757 9.23667 25.7427L10.2366 25.7581C10.2365 25.7605 10.2365 25.7247 10.2886 25.6454C10.3405 25.5662 10.4319 25.4632 10.5791 25.3417C10.8742 25.098 11.3431 24.8214 12.0048 24.5395C13.3239 23.9776 15.3297 23.4282 18.0281 23.0632L17.894 22.0723ZM9.23667 25.7427C9.23247 26.0147 9.3527 26.2795 9.52616 26.5133C9.70476 26.754 9.96904 27.0025 10.3273 27.2527C11.0436 27.7531 12.1869 28.2962 13.9383 28.8095L14.2195 27.8498C12.5274 27.354 11.4958 26.8491 10.9 26.4329C10.6022 26.2249 10.4261 26.048 10.3293 25.9175C10.2273 25.78 10.237 25.7278 10.2366 25.7581L9.23667 25.7427ZM13.9384 28.8095C15.2564 29.1956 16.7521 29.5138 18.3655 29.7614L18.5172 28.773C16.9372 28.5305 15.4861 28.2208 14.2195 27.8498L13.9384 28.8095ZM25.6018 34.5323C24.7835 33.4714 23.9849 32.347 23.2304 31.2034L22.3957 31.7541C23.1627 32.9166 23.9755 34.0612 24.81 35.1431L25.6018 34.5323ZM22.8455 30.9798C21.7503 30.9085 20.6842 30.8089 19.6576 30.6821L19.5351 31.6746C20.5818 31.8038 21.6672 31.9052 22.7805 31.9777L22.8455 30.9798ZM19.1234 31.0161C18.5936 32.5595 18.1811 34.0316 17.9113 35.3778L18.8919 35.5743C19.1511 34.2807 19.5505 32.8521 20.0692 31.3407L19.1234 31.0161ZM17.9114 35.3778C17.5526 37.1673 17.5028 38.432 17.6133 39.2987C17.6686 39.7322 17.7659 40.0816 17.8962 40.3516C18.0227 40.6137 18.2014 40.8432 18.4442 40.9657L18.8949 40.073C18.922 40.0867 18.8712 40.0711 18.7968 39.917C18.7262 39.7706 18.6512 39.5325 18.6053 39.1722C18.5133 38.4512 18.5452 37.3032 18.8918 35.5743L17.9114 35.3778ZM18.4439 40.9656C18.6062 41.0476 18.7772 41.0763 18.9425 41.0763V40.0763C18.9172 40.0763 18.9027 40.0741 18.8961 40.0728C18.8902 40.0715 18.8909 40.071 18.8952 40.0732L18.4439 40.9656ZM18.9424 41.0763C19.3845 41.0765 19.8604 40.8987 20.335 40.6273C20.8184 40.351 21.3461 39.9513 21.9033 39.4469C23.0184 38.4375 24.2913 36.9731 25.6124 35.1289L24.7994 34.5465C23.5053 36.3531 22.2788 37.7582 21.2322 38.7055C20.7085 39.1795 20.2397 39.5299 19.8387 39.7591C19.4291 39.9933 19.1328 40.0764 18.9427 40.0763L18.9424 41.0763ZM32.887 30.8038C31.7312 30.9265 30.5385 31.0119 29.3387 31.061L29.3796 32.0602C30.5994 32.0103 31.8138 31.9234 32.9926 31.7982L32.887 30.8038ZM28.9265 31.3099C28.2932 32.4031 27.6244 33.4773 26.9365 34.4976L27.7656 35.0566C28.4672 34.016 29.148 32.9224 29.7918 31.8112L28.9265 31.3099ZM26.9636 35.0931C28.3702 36.8177 29.7058 38.1764 30.8678 39.1092C31.4486 39.5755 31.9951 39.9427 32.4934 40.1955C32.9846 40.4447 33.4654 40.6015 33.9044 40.6016L33.9045 39.6016C33.6888 39.6015 33.371 39.5194 32.9458 39.3037C32.5276 39.0915 32.0396 38.7676 31.4938 38.3294C30.4025 37.4534 29.116 36.1499 27.7385 34.4611L26.9636 35.0931ZM33.9044 40.6016C34.1002 40.6016 34.3036 40.5657 34.4893 40.457L33.9839 39.5941C33.9953 39.5874 33.9812 39.6016 33.9044 39.6016V40.6016ZM34.4898 40.4567C34.7243 40.3189 34.8881 40.0786 34.9977 39.8089C35.1106 39.5313 35.1855 39.1764 35.2132 38.7402C35.2685 37.8682 35.1387 36.6092 34.6672 34.8461L33.7011 35.1044C34.1566 36.8077 34.2612 37.9515 34.2152 38.6769C34.1922 39.0394 34.1325 39.2818 34.0713 39.4324C34.0069 39.591 33.9572 39.6098 33.9834 39.5944L34.4898 40.4567ZM34.6672 34.8462C34.3556 33.6802 33.9278 32.4245 33.404 31.1152L32.4756 31.4867C32.9877 32.7669 33.4018 33.9843 33.7011 35.1043L34.6672 34.8462ZM42.7634 26.2569C42.7676 25.9849 42.6473 25.72 42.4739 25.4862C42.2953 25.2455 42.031 24.9971 41.6727 24.7468C40.9564 24.2465 39.8131 23.7033 38.0617 23.1901L37.7805 24.1497C39.4726 24.6456 40.5042 25.1504 41.1001 25.5666C41.3978 25.7746 41.574 25.9516 41.6708 26.0821C41.7728 26.2195 41.763 26.2717 41.7635 26.2414L42.7634 26.2569ZM38.0617 23.1901C36.7439 22.804 35.2482 22.4856 33.6346 22.2381L33.4831 23.2266C35.063 23.4689 36.5141 23.7787 37.7805 24.1497L38.0617 23.1901ZM33.0909 22.5561C32.7134 23.5584 32.2941 24.5774 31.8405 25.5964L32.7541 26.0031C33.2152 24.9671 33.642 23.93 34.0268 22.9086L33.0909 22.5561ZM31.8543 26.0316C32.4859 27.2383 33.0669 28.4478 33.5805 29.6309L34.4978 29.2327C33.9737 28.0256 33.3822 26.7943 32.7403 25.5679L31.8543 26.0316ZM34.1062 29.9273C36.8623 29.5545 38.9613 28.9876 40.3872 28.3802C41.098 28.0774 41.6615 27.7561 42.0576 27.4292C42.4306 27.1212 42.7562 26.7239 42.7634 26.2568L41.7635 26.2415C41.7635 26.2391 41.7635 26.2749 41.7115 26.3542C41.6595 26.4334 41.5681 26.5365 41.4209 26.658C41.1258 26.9016 40.6569 27.1783 39.9952 27.4602C38.6762 28.0221 36.6704 28.5714 33.9722 28.9363L34.1062 29.9273Z" fill="#203864" mask="url(#path-2-inside-1_475_6111)"/>
</g>
<defs>
<clipPath id="clip0_475_6111">
<rect width="36" height="36" fill="white" transform="translate(8 8)"/>
</clipPath>
</defs>
</svg>
