<svg width="24" height="24" viewBox="0 0 24 24" fill="none" xmlns="http://www.w3.org/2000/svg">
<path d="M10.9541 13.6301C10.8126 13.4902 10.6214 13.4122 10.4224 13.4134C10.2234 13.4145 10.033 13.4946 9.89313 13.6361C9.75323 13.7776 9.67527 13.9689 9.67639 14.1678C9.67752 14.3668 9.75764 14.5572 9.89913 14.6971L10.9541 13.6301ZM15.5201 8.4821C15.435 8.39695 15.3674 8.29585 15.3213 8.18458C15.2752 8.07331 15.2515 7.95404 15.2515 7.8336C15.2515 7.71316 15.2752 7.5939 15.3213 7.48263C15.3674 7.37136 15.435 7.27026 15.5201 7.1851L14.4591 6.1251C14.0062 6.57833 13.7518 7.19286 13.7518 7.8336C13.7518 8.47435 14.0062 9.08887 14.4591 9.5421L15.5191 8.4821H15.5201ZM16.8161 8.4821C16.731 8.56728 16.6299 8.63485 16.5186 8.68094C16.4073 8.72704 16.2881 8.75077 16.1676 8.75077C16.0472 8.75077 15.9279 8.72704 15.8167 8.68094C15.7054 8.63485 15.6043 8.56728 15.5191 8.4821L14.4591 9.5421C14.9124 9.99503 15.5269 10.2494 16.1676 10.2494C16.8084 10.2494 17.4229 9.99503 17.8761 9.5421L16.8161 8.4821ZM16.8161 7.1851C16.9013 7.27026 16.9689 7.37136 17.015 7.48263C17.0611 7.5939 17.0848 7.71316 17.0848 7.8336C17.0848 7.95404 17.0611 8.07331 17.015 8.18458C16.9689 8.29585 16.9013 8.39695 16.8161 8.4821L17.8761 9.5421C18.3294 9.08883 18.584 8.47409 18.584 7.8331C18.584 7.19211 18.3294 6.57737 17.8761 6.1241L16.8161 7.1851ZM17.8761 6.1241C17.4229 5.67118 16.8084 5.41776 16.1676 5.41776C15.5269 5.41776 14.9124 5.67218 14.4591 6.1251L15.5191 7.1851C15.6043 7.09993 15.7054 7.03236 15.8167 6.98626C15.9279 6.94016 16.0472 6.91644 16.1676 6.91644C16.2881 6.91644 16.4073 6.94016 16.5186 6.98626C16.6299 7.03236 16.731 7.09993 16.8161 7.1851L17.8761 6.1241ZM19.7851 4.2161C20.7238 5.15489 21.2511 6.42806 21.2511 7.7556C21.2511 9.08314 20.7238 10.3563 19.7851 11.2951L20.8451 12.3551C22.065 11.135 22.7503 9.48039 22.7503 7.7551C22.7503 6.02982 22.065 4.37518 20.8451 3.1551L19.7851 4.2161ZM20.8451 3.1551C19.6251 1.93526 17.9704 1.25098 16.2451 1.25098C14.5198 1.25098 12.8652 1.93626 11.6451 3.1561L12.7061 4.2161C13.6449 3.27747 14.9181 2.75016 16.2456 2.75016C17.5732 2.75016 18.8463 3.27747 19.7851 4.2161L20.8451 3.1551ZM9.92513 9.5261L6.83113 12.6201L7.89113 13.6801L10.9851 10.5871L9.92513 9.5271V9.5261ZM11.3811 17.1691L12.4151 16.1351L11.3541 15.0751L10.3201 16.1081L11.3811 17.1691ZM12.4151 16.1351L14.4751 14.0751L13.4141 13.0151L11.3541 15.0751L12.4141 16.1351H12.4151ZM6.26313 14.2411L6.45713 15.9821L7.94713 15.8161L7.75413 14.0761L6.26313 14.2411ZM8.01913 17.5441L9.75913 17.7381L9.92513 16.2471L8.18513 16.0541L8.01913 17.5441ZM6.90713 16.9201L7.08113 17.0931L8.14113 16.0331L7.96813 15.8601L6.90713 16.9201ZM8.18513 16.0541C8.16882 16.0522 8.15365 16.0448 8.14213 16.0331L7.08113 17.0931C7.33313 17.3461 7.66413 17.5051 8.01913 17.5441L8.18513 16.0541ZM6.45713 15.9821C6.49613 16.3371 6.65513 16.6681 6.90713 16.9201L7.96813 15.8601C7.95659 15.8482 7.94853 15.8326 7.94713 15.8161L6.45713 15.9821ZM10.3201 16.1081C10.2689 16.1594 10.2069 16.1986 10.1385 16.2226C10.0701 16.2467 9.99718 16.2551 9.92513 16.2471L9.76013 17.7371C10.0556 17.7699 10.3547 17.7359 10.6353 17.6376C10.9159 17.5393 11.1708 17.3792 11.3811 17.1691L10.3211 16.1091L10.3201 16.1081ZM6.83113 12.6201C6.62073 12.8305 6.46035 13.0855 6.36185 13.3663C6.26336 13.6471 6.22928 13.9464 6.26213 14.2421L7.75313 14.0761C7.74517 14.0041 7.75354 13.9311 7.7776 13.8628C7.80166 13.7944 7.84081 13.7313 7.89213 13.6801L6.83113 12.6201ZM11.3971 9.0061C11.1794 8.1629 11.1856 7.27748 11.415 6.43738C11.6444 5.59729 12.0891 4.83162 12.7051 4.2161L11.6451 3.1561C10.8448 3.95578 10.2669 4.95043 9.96855 6.0418C9.67023 7.13317 9.66282 8.28349 9.94513 9.3791L11.3971 9.0061ZM19.7851 11.2951C19.1696 11.9112 18.4029 12.3559 17.5629 12.5853C16.7228 12.8147 15.8373 12.8208 14.9941 12.6031L14.6221 14.0561C15.7178 14.3387 16.8673 14.3306 17.9588 14.0324C19.0504 13.7343 20.0443 13.1565 20.8441 12.3561L19.7851 11.2951ZM14.4741 14.0751C14.4865 14.0638 14.5017 14.0562 14.5181 14.0531C14.5522 14.0459 14.5885 14.0469 14.6221 14.0561L14.9941 12.6031C14.4671 12.4681 13.8521 12.5771 13.4141 13.0151L14.4731 14.0751H14.4741ZM10.9851 10.5871C11.4231 10.1491 11.5321 9.5331 11.3971 9.0071L9.94513 9.3791C9.95513 9.4191 9.95313 9.4551 9.94713 9.4821C9.94392 9.49899 9.93594 9.51461 9.92413 9.5271L10.9851 10.5871ZM12.4111 15.0721L10.9531 13.6301L9.89813 14.6971L11.3561 16.1381L12.4111 15.0721Z" fill="#fff"/>
<path d="M2 11.99C2 16.709 2 19.068 3.466 20.534C4.932 22 7.29 22 12.01 22C16.73 22 19.088 22 20.554 20.534C21.669 19.419 21.936 17.787 22 14.993M9.007 2C6.213 2.064 4.581 2.33 3.466 3.446C2.489 4.423 2.163 5.796 2.054 8" stroke="#fff" stroke-width="1.5" stroke-linecap="round"/>
</svg>
