<svg width="38" height="40" viewBox="0 0 38 40" fill="none" xmlns="http://www.w3.org/2000/svg">
<g clip-path="url(#clip0_133_2447)">
<path fill-rule="evenodd" clip-rule="evenodd" d="M21.3194 18.7793C21.2934 18.8444 21.2803 18.916 21.2803 18.9876C21.2803 19.3132 21.5443 19.5768 21.8701 19.5768C22.1959 19.5768 22.4599 19.3132 22.4599 18.9876C22.4599 18.8932 22.437 18.8053 22.3979 18.7272C22.6554 18.7565 22.916 18.8118 23.1767 18.8965C23.2875 18.9323 23.4048 18.8574 23.4374 18.7337C23.4699 18.6068 23.4048 18.4766 23.294 18.4375C22.8671 18.2975 22.4436 18.2292 22.02 18.2292C21.5964 18.2292 21.1793 18.3008 20.7623 18.4375C20.6515 18.4733 20.5863 18.6068 20.6189 18.7337C20.6515 18.8607 20.7688 18.9323 20.8796 18.8965C21.0262 18.8477 21.1728 18.8086 21.3194 18.7793ZM24.1575 29.4271C23.7176 28.9128 23.2549 28.2422 22.8476 27.6432C20.6156 29.4694 17.6375 29.9512 14.7734 27.4772C14.7538 27.5033 14.7343 27.5293 14.718 27.5586C14.3563 28.0859 13.9523 28.6849 13.5515 29.1829C15.3729 38.7858 23.0138 38.9941 24.1575 29.4271ZM23.4243 27.1289C23.6883 27.5163 23.9783 27.9395 24.265 28.3268C26.2591 30.0423 31.9547 30.4004 34.0824 31.5853C34.7602 31.9629 35.376 32.4447 35.868 33.0957C37.0997 34.7168 37.2039 36.0872 37.6503 38.0762C37.5428 39.235 36.8846 39.9023 35.5878 40H2.06254C0.768972 39.9023 0.110784 39.235 0 38.0762C0.446395 36.0872 0.550662 34.7201 1.78232 33.0957C2.27433 32.4447 2.89016 31.9629 3.5679 31.5853C5.59134 30.459 10.8275 30.0814 13.0562 28.5775C13.4049 28.1283 13.7666 27.5977 14.0859 27.1257L14.1836 26.9824L14.2651 27.0052C13.3234 26.0677 12.398 24.7949 11.5248 23.1315C11.5183 23.099 11.515 23.0664 11.515 23.0339V22.1289C11.4662 22.1354 11.4173 22.1387 11.3684 22.1289C10.4658 21.9954 9.98035 20.8919 9.86305 19.8372C9.83046 19.5475 9.82395 19.2578 9.84676 19.0007C9.86956 18.724 9.9217 18.4668 10.0032 18.2617C10.1824 17.8092 10.4919 17.5586 10.9416 17.6432C11.1566 17.6823 11.3521 17.793 11.5183 17.9818V17.6107C11.01 17.3275 10.808 16.3704 10.7461 15.472H10.7298V15.1107C10.7233 14.8893 10.7233 14.681 10.7298 14.4922V9.12435L19.3058 12.4121L27.67 9.12435V14.4466H27.6993C27.6863 14.528 27.6765 14.6126 27.67 14.7005V15.472L27.6146 15.4688C27.5559 16.3216 27.4451 17.2363 26.8195 17.6237C27.2138 17.5944 27.4908 17.8385 27.6569 18.2552C27.7384 18.4635 27.7905 18.7174 27.8133 18.9941C27.8329 19.2546 27.8264 19.541 27.797 19.8307C27.6797 20.8887 27.1942 21.9922 26.2917 22.1224C26.1516 22.1419 26.1744 22.0833 26.1744 22.2591C25.7182 24.0918 24.7342 25.8464 23.4243 27.1289ZM19.1396 0L33.6849 5.49805L32.5477 5.95052V9.88932C32.8573 10.0846 33.0625 10.4427 33.0625 10.8529C33.0625 11.4714 32.5901 11.9759 32.0101 11.9759C31.4269 11.9759 30.9544 11.4746 30.9544 10.8529C30.9544 10.4427 31.1629 10.0846 31.4725 9.88932V6.37695L29.6152 7.11589V9.88932C29.9248 10.0846 30.13 10.4427 30.13 10.8529C30.13 11.4714 29.6576 11.9759 29.0743 11.9759C28.4911 11.9759 28.0219 11.4746 28.0219 10.8529C28.0219 10.4427 28.2271 10.0846 28.5367 9.88932V7.54232L19.1396 11.276L4.80934 5.66732L19.1396 0ZM16.9663 25.6901C16.8131 25.5957 16.7642 25.3939 16.8587 25.2409C16.9532 25.0879 17.1552 25.0391 17.3084 25.1335C17.8428 25.459 18.3608 25.6152 18.8626 25.6087C19.3612 25.6055 19.8532 25.4427 20.3419 25.1335C20.4951 25.0358 20.6971 25.0814 20.7948 25.2344C20.8926 25.3874 20.847 25.5892 20.6938 25.6869C20.1008 26.0612 19.4915 26.2565 18.8659 26.2598C18.237 26.263 17.6049 26.0775 16.9663 25.6901ZM22.6782 15.293C19.0777 15.1921 15.5717 15.179 12.17 15.3743C12.1048 15.3906 12.0396 15.4069 11.9745 15.4232V23.0306C16.5459 31.8132 23.6622 29.1178 25.6693 22.2656V15.3971C24.5517 15.4134 23.571 15.3678 22.6782 15.293ZM26.2167 21.6536V18.9095C26.334 18.4115 26.5524 18.1543 26.8 18.1087C27.6569 17.9492 27.5201 21.4648 26.2167 21.6536ZM18.0937 22.8646C17.9764 22.7669 17.9633 22.5944 18.0611 22.4805C18.1588 22.3633 18.3315 22.3503 18.4456 22.4447C18.5824 22.5586 18.7127 22.6204 18.8398 22.6204C18.9669 22.6204 19.1037 22.5651 19.2504 22.4414C19.3677 22.347 19.5371 22.3633 19.6349 22.4805C19.7294 22.5977 19.7131 22.7669 19.599 22.8646C19.3481 23.0729 19.0907 23.1706 18.8333 23.1673C18.5726 23.1641 18.3283 23.0599 18.0937 22.8646ZM11.4336 21.6536V18.9095C11.3163 18.4115 11.098 18.1543 10.8503 18.1087C9.99338 17.9492 10.1302 21.4648 11.4336 21.6536ZM14.4834 18.9551C14.3726 18.9974 14.2553 18.9323 14.2162 18.8053C14.1771 18.6816 14.2358 18.5449 14.3465 18.5026C14.7701 18.3366 15.197 18.2617 15.6238 18.265C16.0474 18.2682 16.471 18.3496 16.8946 18.5026C17.0054 18.5417 17.0673 18.6751 17.0314 18.8021C16.9956 18.9258 16.8783 18.9974 16.7675 18.9583C16.6274 18.9063 16.4873 18.8672 16.3472 18.8314C16.3602 18.8835 16.37 18.9355 16.37 18.9909C16.37 19.3164 16.1061 19.5801 15.7802 19.5801C15.4544 19.5801 15.1905 19.3164 15.1905 18.9909C15.1905 18.9095 15.2068 18.8346 15.2361 18.7663C14.9852 18.7956 14.7343 18.8574 14.4834 18.9551Z" fill="#FFC300"/>
</g>
<defs>
<clipPath id="clip0_133_2447">
<rect width="37.6471" height="40" fill="white"/>
</clipPath>
</defs>
</svg>
