<svg width="51" height="51" viewBox="0 0 51 51" fill="none" xmlns="http://www.w3.org/2000/svg">
<path fill-rule="evenodd" clip-rule="evenodd" d="M47.8125 2.78906H3.1875C2.74763 2.78906 2.39062 3.14606 2.39062 3.58594C2.39062 4.02581 2.74763 4.38281 3.1875 4.38281H4.91752C4.82906 4.63223 4.78125 4.89998 4.78125 5.17969V13.2887C4.78125 13.7286 5.13825 14.0856 5.57812 14.0856C6.018 14.0856 6.375 13.7286 6.375 13.2887V7.96875H41.4375C41.8774 7.96875 42.2344 7.61175 42.2344 7.17188C42.2344 6.732 41.8774 6.375 41.4375 6.375H6.375V5.17969C6.375 4.73981 6.732 4.38281 7.17188 4.38281H43.8281C44.268 4.38281 44.625 4.73981 44.625 5.17969V29.4844C44.625 29.9242 44.268 30.2812 43.8281 30.2812H25.5V22.1133C25.5 17.2723 21.5754 13.3477 16.7344 13.3477C16.2045 13.3477 15.6705 13.3477 15.1406 13.3477C10.2996 13.3477 6.375 17.2723 6.375 22.1133V36.0921C5.49525 36.3542 4.68563 36.8324 4.02422 37.493C2.97792 38.5393 2.39062 39.9577 2.39062 41.4375C2.39062 44.4648 2.39062 47.8125 2.39062 47.8125C2.39062 48.2524 2.74763 48.6094 3.1875 48.6094H28.6875C29.1274 48.6094 29.4844 48.2524 29.4844 47.8125V41.4375C29.4844 39.9577 28.8971 38.5393 27.8508 37.493C27.1894 36.8324 26.3797 36.3542 25.5 36.0921V31.875H43.8281C45.1485 31.875 46.2188 30.8048 46.2188 29.4844V5.17969C46.2188 4.89998 46.1709 4.63223 46.0825 4.38281H47.8125C48.2524 4.38281 48.6094 4.02581 48.6094 3.58594C48.6094 3.14606 48.2524 2.78906 47.8125 2.78906ZM23.9062 37.4531H20.6526C20.2725 39.7131 18.305 41.4375 15.9375 41.4375C13.57 41.4375 11.6025 39.7131 11.2224 37.4531H7.96875C6.91209 37.4531 5.89847 37.8731 5.151 38.6198C4.40433 39.3672 3.98438 40.3808 3.98438 41.4375V47.0156H7.17188V43.8281C7.17188 43.3882 7.52887 43.0312 7.96875 43.0312C8.40863 43.0312 8.76562 43.3882 8.76562 43.8281V47.0156H23.1094V43.8281C23.1094 43.3882 23.4664 43.0312 23.9062 43.0312C24.3461 43.0312 24.7031 43.3882 24.7031 43.8281V47.0156H27.8906V41.4375C27.8906 40.3808 27.4707 39.3672 26.724 38.6198C25.9765 37.8731 24.9629 37.4531 23.9062 37.4531ZM19.0246 37.4531H12.8504C13.205 38.8269 14.4537 39.8438 15.9375 39.8438C17.4213 39.8438 18.67 38.8269 19.0246 37.4531ZM23.9062 35.8594H7.96875V22.1133C7.96875 18.152 11.1794 14.9414 15.1406 14.9414C15.6705 14.9414 16.2045 14.9414 16.7344 14.9414C20.6956 14.9414 23.9062 18.152 23.9062 22.1133V35.8594ZM22.3125 22.3125C22.3125 21.8726 21.9555 21.5156 21.5156 21.5156H16.43L15.0562 18.7688C14.9215 18.4987 14.6458 18.3281 14.3438 18.3281C14.0417 18.3281 13.766 18.4987 13.6313 18.7688L12.2575 21.5156H10.3594C9.9195 21.5156 9.5625 21.8726 9.5625 22.3125V30.2812C9.5625 32.4814 11.3467 34.2656 13.5469 34.2656C15.0458 34.2656 16.8292 34.2656 18.3281 34.2656C20.5283 34.2656 22.3125 32.4814 22.3125 30.2812C22.3125 26.9838 22.3125 22.3125 22.3125 22.3125ZM20.7188 23.1094V30.2812C20.7188 31.6017 19.6485 32.6719 18.3281 32.6719H13.5469C12.2265 32.6719 11.1562 31.6017 11.1562 30.2812V23.1094H12.75C13.052 23.1094 13.3277 22.9388 13.4624 22.6687L14.3438 20.9068L15.2251 22.6687C15.3598 22.9388 15.6355 23.1094 15.9375 23.1094H20.7188ZM32.2734 27.8906H41.4375C41.8774 27.8906 42.2344 27.5336 42.2344 27.0938C42.2344 26.6539 41.8774 26.2969 41.4375 26.2969H32.2734C31.8336 26.2969 31.4766 26.6539 31.4766 27.0938C31.4766 27.5336 31.8336 27.8906 32.2734 27.8906ZM29.4844 23.9062H41.4375C41.8774 23.9062 42.2344 23.5492 42.2344 23.1094C42.2344 22.6695 41.8774 22.3125 41.4375 22.3125H29.4844C29.0445 22.3125 28.6875 22.6695 28.6875 23.1094C28.6875 23.5492 29.0445 23.9062 29.4844 23.9062ZM29.4844 19.9219H41.4375C41.8774 19.9219 42.2344 19.5649 42.2344 19.125C42.2344 18.6851 41.8774 18.3281 41.4375 18.3281H29.4844C29.0445 18.3281 28.6875 18.6851 28.6875 19.125C28.6875 19.5649 29.0445 19.9219 29.4844 19.9219ZM29.4844 15.9375H41.4375C41.8774 15.9375 42.2344 15.5805 42.2344 15.1406C42.2344 14.7008 41.8774 14.3438 41.4375 14.3438H29.4844C29.0445 14.3438 28.6875 14.7008 28.6875 15.1406C28.6875 15.5805 29.0445 15.9375 29.4844 15.9375ZM23.9062 11.9531H41.4375C41.8774 11.9531 42.2344 11.5961 42.2344 11.1562C42.2344 10.7164 41.8774 10.3594 41.4375 10.3594H23.9062C23.4664 10.3594 23.1094 10.7164 23.1094 11.1562C23.1094 11.5961 23.4664 11.9531 23.9062 11.9531Z" fill="#FF5B00"/>
</svg>
