<svg width="25" height="25" viewBox="0 0 25 25" fill="none" xmlns="http://www.w3.org/2000/svg">
<path d="M11.6981 2.46396C10.9762 2.56709 10.0341 2.9374 9.41999 3.35459C9.25593 3.4624 8.96061 3.71084 8.75436 3.90771C7.39968 5.19678 6.81843 7.03896 7.19811 8.85771C7.56374 10.6249 8.97468 12.214 10.6997 12.7905C11.3512 13.0108 11.6981 13.0671 12.4481 13.0671C13.7137 13.0718 14.7262 12.7437 15.7059 12.0171C17.9887 10.3155 18.5325 7.1749 16.9481 4.77959C16.6856 4.38115 15.9919 3.67803 15.5887 3.40146C14.4637 2.62334 13.02 2.27178 11.6981 2.46396Z" fill="#203864"/>
<path d="M6.86914 12.7387C5.78164 13.4512 5.10664 14.3465 4.77852 15.5137C4.67539 15.8793 4.67071 15.959 4.65196 18.5371C4.63789 20.4824 4.65196 21.2559 4.68946 21.4434C4.85352 22.1887 5.40664 22.8074 6.17071 23.0934C6.44727 23.2012 6.44727 23.2012 10.1645 23.2152C12.2035 23.2199 13.877 23.2152 13.877 23.1965C13.877 23.1777 13.5723 22.8496 13.1973 22.4699C12.6395 21.9074 12.4895 21.7246 12.3723 21.4715C11.8426 20.3371 12.3113 19.034 13.441 18.4996C13.7973 18.3309 13.8207 18.3262 14.3691 18.3262C14.9223 18.3262 14.9363 18.3309 15.2973 18.4996C15.5785 18.6355 15.7566 18.7668 16.0941 19.0949L16.5254 19.5168L17.7676 18.2793C18.9113 17.1402 19.0379 17.0277 19.3613 16.8777C19.591 16.7699 19.816 16.6996 20.0129 16.6809L20.3129 16.648L20.2848 16.2824C20.2098 15.3168 19.7785 14.3277 19.1082 13.5824C18.8363 13.2777 18.4285 12.9543 17.9176 12.6309L17.5285 12.3824L17.2613 12.6402C16.2629 13.6105 14.9598 14.2621 13.5535 14.4871C13.0379 14.5715 11.9879 14.5809 11.4863 14.5059C10.6379 14.3793 9.70977 14.0559 9.00196 13.634C8.52852 13.3527 7.90977 12.884 7.61914 12.5887C7.52071 12.4809 7.42227 12.3965 7.40821 12.3965C7.39414 12.3965 7.15508 12.5512 6.86914 12.7387Z" fill="#203864"/>
<path d="M19.9477 18.2511C19.8727 18.298 19.0805 19.0714 18.1899 19.962C17.2993 20.8527 16.554 21.5839 16.5259 21.5839C16.4977 21.5839 16.0899 21.1949 15.6165 20.7214C14.8852 19.9902 14.7212 19.8495 14.5571 19.8074C13.8915 19.6386 13.3993 20.3464 13.779 20.9324C13.9852 21.2511 16.0243 23.2527 16.2305 23.337C16.4509 23.4308 16.6009 23.4308 16.8212 23.3417C17.0274 23.2527 20.6977 19.6199 20.9134 19.2917C21.1477 18.9308 21.0634 18.4995 20.7212 18.2652C20.5196 18.1292 20.1493 18.1245 19.9477 18.2511Z" fill="#203864"/>
</svg>
