<svg width="40" height="40" viewBox="0 0 40 40" fill="none" xmlns="http://www.w3.org/2000/svg">
<path d="M36.6333 26.0833C35.2667 24.4 33.1833 23.3333 30.8333 23.3333C29.0667 23.3333 27.4333 23.95 26.15 24.9833C24.4167 26.35 23.3333 28.4667 23.3333 30.8333C23.3333 32.2333 23.7333 33.5667 24.4167 34.7C24.8667 35.45 25.4333 36.1 26.1 36.6333H26.1167C27.4 37.7 29.05 38.3333 30.8333 38.3333C32.7333 38.3333 34.45 37.6333 35.7667 36.4667C36.35 35.9667 36.85 35.3667 37.25 34.7C37.9333 33.5667 38.3333 32.2333 38.3333 30.8333C38.3333 29.0333 37.7 27.3667 36.6333 26.0833ZM34.6 29.9L30.6 33.6C30.3667 33.8167 30.05 33.9333 29.75 33.9333C29.4333 33.9333 29.1167 33.8167 28.8667 33.5667L27.0167 31.7167C26.5333 31.2333 26.5333 30.4333 27.0167 29.95C27.5 29.4667 28.3 29.4667 28.7833 29.95L29.7833 30.95L32.9 28.0667C33.4 27.6 34.2 27.6333 34.6667 28.1333C35.15 28.65 35.1167 29.4333 34.6 29.9Z" fill="#FFC300"/>
<path d="M24.55 9.76668V4.16668C24.55 3.70001 24.1833 3.33334 23.7167 3.33334H16.2833C15.8167 3.33334 15.45 3.70001 15.45 4.16668V9.76668C15.45 10.2333 15.8167 10.6 16.2833 10.6H23.7167C24.1833 10.6 24.55 10.2333 24.55 9.76668Z" fill="#FFC300"/>
<path d="M12.0833 3.36666C7.81667 3.63333 4.9 5.83333 3.81667 9.49999C3.65 10.05 4.05 10.6 4.61667 10.6H12.1167C12.5833 10.6 12.95 10.2333 12.95 9.76666V4.19999C12.95 3.73333 12.55 3.33333 12.0833 3.36666Z" fill="#FFC300"/>
<path d="M27.9167 3.35C32.1833 3.61666 35.1 5.81666 36.1833 9.48333C36.35 10.0333 35.95 10.5833 35.3833 10.5833H27.8833C27.4167 10.5833 27.05 10.2167 27.05 9.75V4.18333C27.05 3.71666 27.45 3.31666 27.9167 3.35Z" fill="#FFC300"/>
<path d="M36.1667 13.9333V21.2333C36.1667 21.4779 35.9115 21.6323 35.6969 21.5228C34.2257 20.7526 32.5467 20.3333 30.8333 20.3333C28.0162 20.3333 25.2705 21.487 23.3092 23.5004C21.3828 25.4622 20.3333 28.0718 20.3333 30.8333C20.3333 32.2877 20.8995 34.0974 21.5788 35.575C21.6389 35.7068 21.6261 35.8598 21.5542 35.9824C21.4845 36.1011 21.376 36.1667 21.25 36.1667H13.0167C7.94281 36.1667 3.83334 32.0572 3.83334 26.9833V13.9333C3.83334 13.7428 3.97614 13.6 4.16667 13.6H35.8333C36.0239 13.6 36.1667 13.7428 36.1667 13.9333Z" stroke="#FFC300"/>
</svg>
