<svg width="20" height="20" viewBox="0 0 20 20" fill="none" xmlns="http://www.w3.org/2000/svg">
<path d="M10.0007 3.33325C5.83398 3.33325 2.27565 5.92492 0.833984 9.58325C2.27565 13.2416 5.83398 15.8333 10.0007 15.8333C14.1673 15.8333 17.7256 13.2416 19.1673 9.58325C17.7256 5.92492 14.1673 3.33325 10.0007 3.33325ZM10.0007 13.7499C7.70065 13.7499 5.83398 11.8833 5.83398 9.58325C5.83398 7.28325 7.70065 5.41659 10.0007 5.41659C12.3006 5.41659 14.1673 7.28325 14.1673 9.58325C14.1673 11.8833 12.3006 13.7499 10.0007 13.7499ZM10.0007 7.08325C8.61732 7.08325 7.50065 8.19992 7.50065 9.58325C7.50065 10.9666 8.61732 12.0833 10.0007 12.0833C11.384 12.0833 12.5007 10.9666 12.5007 9.58325C12.5007 8.19992 11.384 7.08325 10.0007 7.08325Z" fill="white"/>
</svg>
