<svg width="24" height="24" viewBox="0 0 24 24" fill="none" xmlns="http://www.w3.org/2000/svg">
<path d="M12.8986 11.9964L19.6522 5.23619C19.7713 5.11646 19.8382 4.95438 19.838 4.78547C19.8379 4.61656 19.7709 4.45457 19.6516 4.33499C19.4128 4.09739 18.9922 4.09619 18.751 4.33619L11.9992 11.0964L5.24497 4.33439C5.00497 4.09739 4.58437 4.09859 4.34557 4.33559C4.2863 4.39463 4.23938 4.46488 4.20754 4.54224C4.17571 4.61961 4.15961 4.70254 4.16017 4.78619C4.16017 4.95659 4.22617 5.11619 4.34557 5.23439L11.0992 11.9958L4.34617 18.7578C4.227 18.8777 4.16027 19.04 4.1606 19.2091C4.16094 19.3781 4.22832 19.5402 4.34797 19.6596C4.46377 19.7742 4.62757 19.8402 4.79677 19.8402H4.80037C4.97017 19.8396 5.13397 19.773 5.24737 19.6572L11.9992 12.897L18.7534 19.659C18.8728 19.7778 19.0324 19.8438 19.2016 19.8438C19.2852 19.844 19.3681 19.8277 19.4455 19.7958C19.5228 19.7639 19.5931 19.717 19.6522 19.6579C19.7114 19.5987 19.7583 19.5284 19.7902 19.4511C19.8221 19.3737 19.8384 19.2909 19.8382 19.2072C19.8382 19.0374 19.7722 18.8772 19.6522 18.759L12.8986 11.9964Z" fill="#9DA8B5"/>
</svg>
