<svg width="24" height="24" viewBox="0 0 24 24" fill="none" xmlns="http://www.w3.org/2000/svg">
<circle cx="12" cy="12" r="11.5" fill="white" stroke="#36A3A4"/>
<path d="M6.85352 15V17.1428H8.99637L15.3164 10.8228L13.1735 8.67997L6.85352 15ZM16.9735 9.16568C17.0265 9.11282 17.0685 9.05002 17.0972 8.9809C17.1259 8.91177 17.1406 8.83766 17.1406 8.76282C17.1406 8.68799 17.1259 8.61388 17.0972 8.54475C17.0685 8.47563 17.0265 8.41283 16.9735 8.35997L15.6364 7.02282C15.5835 6.96985 15.5207 6.92782 15.4516 6.89915C15.3825 6.87047 15.3084 6.85571 15.2335 6.85571C15.1587 6.85571 15.0846 6.87047 15.0154 6.89915C14.9463 6.92782 14.8835 6.96985 14.8307 7.02282L13.7849 8.06854L15.9278 10.2114L16.9735 9.16568Z" fill="#9DA8B5"/>
</svg>
