<svg width="25" height="25" viewBox="0 0 25 25" fill="none" xmlns="http://www.w3.org/2000/svg">
<path d="M11.5 18.5C11.2167 18.5 10.979 18.404 10.787 18.212C10.595 18.02 10.4993 17.7827 10.5 17.5C10.5 17.2167 10.596 16.979 10.788 16.787C10.98 16.595 11.2173 16.4993 11.5 16.5H13.5C13.7833 16.5 14.021 16.596 14.213 16.788C14.405 16.98 14.5007 17.2173 14.5 17.5C14.5 17.7833 14.404 18.021 14.212 18.213C14.02 18.405 13.7827 18.5007 13.5 18.5H11.5ZM4.5 8.5C4.21667 8.5 3.979 8.404 3.787 8.212C3.595 8.02 3.49934 7.78267 3.5 7.5C3.5 7.21667 3.596 6.979 3.788 6.787C3.98 6.595 4.21734 6.49934 4.5 6.5H20.5C20.7833 6.5 21.021 6.596 21.213 6.788C21.405 6.98 21.5007 7.21734 21.5 7.5C21.5 7.78334 21.404 8.021 21.212 8.213C21.02 8.405 20.7827 8.50067 20.5 8.5H4.5ZM7.5 13.5C7.21667 13.5 6.979 13.404 6.787 13.212C6.595 13.02 6.49934 12.7827 6.5 12.5C6.5 12.2167 6.596 11.979 6.788 11.787C6.98 11.595 7.21734 11.4993 7.5 11.5H17.5C17.7833 11.5 18.021 11.596 18.213 11.788C18.405 11.98 18.5007 12.2173 18.5 12.5C18.5 12.7833 18.404 13.021 18.212 13.213C18.02 13.405 17.7827 13.5007 17.5 13.5H7.5Z" fill="#364E79"/>
</svg>
