<svg width="24" height="24" viewBox="0 0 24 24" fill="none" xmlns="http://www.w3.org/2000/svg">
<path d="M12.8986 11.9966L19.6522 5.23644C19.7713 5.1167 19.8382 4.95463 19.838 4.78571C19.8379 4.6168 19.7709 4.45481 19.6516 4.33524C19.4128 4.09764 18.9922 4.09644 18.751 4.33644L11.9992 11.0966L5.24497 4.33464C5.00497 4.09764 4.58437 4.09884 4.34557 4.33584C4.2863 4.39487 4.23938 4.46512 4.20754 4.54249C4.17571 4.61985 4.15961 4.70278 4.16017 4.78644C4.16017 4.95684 4.22617 5.11644 4.34557 5.23464L11.0992 11.996L4.34617 18.758C4.227 18.878 4.16027 19.0403 4.1606 19.2093C4.16094 19.3784 4.22832 19.5404 4.34797 19.6598C4.46377 19.7744 4.62757 19.8404 4.79677 19.8404H4.80037C4.97017 19.8398 5.13397 19.7732 5.24737 19.6574L11.9992 12.8972L18.7534 19.6592C18.8728 19.778 19.0324 19.844 19.2016 19.844C19.2852 19.8443 19.3681 19.828 19.4455 19.7961C19.5228 19.7642 19.5931 19.7173 19.6522 19.6581C19.7114 19.599 19.7583 19.5287 19.7902 19.4513C19.8221 19.374 19.8384 19.2911 19.8382 19.2074C19.8382 19.0376 19.7722 18.8774 19.6522 18.7592L12.8986 11.9966Z" fill="#FF5443"/>
</svg>
